{"glyphs":{"0":{"ha":886,"x_min":6,"x_max":1051,"o":"m 528 1388 q 738 1326 642 1388 q 903 1155 833 1264 q 1013 895 974 1046 q 1051 567 1051 744 q 1010 348 1051 450 q 898 169 969 246 q 731 49 826 93 q 528 4 636 4 q 324 49 419 4 q 158 169 229 93 q 47 348 88 246 q 6 567 6 450 q 44 895 6 744 q 153 1155 83 1046 q 318 1326 222 1264 q 528 1388 414 1388 m 528 240 q 667 272 601 240 q 781 356 732 303 q 857 482 829 410 q 885 636 885 554 q 858 894 885 775 q 783 1101 831 1014 q 669 1239 735 1189 q 528 1289 604 1289 q 387 1239 451 1289 q 274 1101 322 1189 q 199 894 226 1014 q 172 636 172 775 q 200 482 172 554 q 276 356 228 410 q 390 272 325 303 q 528 240 454 240 m 528 1156 q 607 1117 567 1156 q 679 1010 647 1079 q 731 846 711 942 q 751 636 751 750 q 734 534 751 582 q 686 451 717 486 q 615 394 656 415 q 528 374 574 374 q 442 394 482 374 q 371 451 401 415 q 323 534 340 486 q 306 636 306 582 q 326 846 306 750 q 377 1010 346 942 q 448 1117 408 1079 q 528 1156 488 1156 z "},"1":{"ha":639,"x_min":1,"x_max":801,"o":"m 800 1175 q 801 1150 801 1169 l 800 211 q 767 113 796 158 l 756 88 l 736 74 q 733 70 735 71 q 731 68 732 69 l 721 58 q 701 44 708 47 q 690 38 694 40 q 682 32 685 35 q 674 28 679 31 q 663 22 669 25 l 653 18 q 645 16 649 17 q 638 14 642 15 l 636 14 q 628 12 633 13 q 617 8 624 11 q 574 4 596 4 q 485 22 526 4 q 413 72 443 40 q 364 144 382 103 q 346 232 346 185 l 346 736 l 346 811 l 346 815 q 290 792 319 800 q 229 783 261 783 q 141 801 182 783 q 69 851 100 819 q 19 923 38 882 q 1 1011 1 964 l 1 1161 q 19 1249 1 1208 q 69 1322 38 1290 q 141 1371 100 1353 q 229 1389 182 1389 q 336 1361 288 1389 q 438 1376 389 1372 q 526 1379 486 1379 q 566 1378 550 1379 q 589 1378 582 1378 q 599 1376 594 1376 q 607 1375 603 1376 q 615 1374 613 1375 l 626 1372 q 632 1371 628 1371 l 644 1367 q 658 1361 653 1364 q 667 1358 661 1361 l 668 1357 q 674 1354 671 1356 q 683 1350 678 1353 l 706 1338 l 715 1329 q 724 1322 721 1324 l 726 1319 l 732 1314 q 742 1303 739 1307 l 746 1299 l 753 1292 q 758 1285 756 1286 l 774 1265 l 781 1246 q 783 1241 782 1243 q 785 1238 783 1239 l 790 1221 q 793 1208 793 1213 l 796 1201 q 797 1193 797 1197 q 799 1186 797 1189 l 799 1183 l 800 1178 l 800 1175 m 639 1217 q 638 1225 639 1222 l 638 1228 l 638 1231 l 636 1232 l 636 1233 q 635 1238 636 1236 l 635 1240 q 629 1250 632 1246 l 629 1251 l 628 1253 l 626 1254 q 624 1258 626 1256 q 623 1260 624 1260 q 622 1261 622 1260 q 619 1264 619 1261 q 617 1265 618 1264 l 614 1268 l 613 1269 l 611 1269 l 607 1274 l 606 1274 q 603 1275 604 1275 q 601 1276 601 1275 q 600 1276 601 1276 q 598 1277 599 1276 q 596 1278 597 1278 q 593 1279 596 1278 l 592 1279 q 589 1281 590 1279 l 586 1281 l 583 1281 q 578 1282 582 1282 q 540 1283 569 1282 q 469 1282 510 1285 q 381 1271 428 1279 q 292 1246 333 1263 q 269 1279 285 1265 q 229 1293 253 1293 q 183 1274 201 1293 q 164 1228 164 1256 l 164 1079 q 183 1033 164 1051 q 229 1014 201 1014 q 276 1033 257 1014 q 294 1079 294 1051 q 307 1104 294 1096 q 342 1126 319 1117 q 392 1140 365 1135 q 449 1149 419 1146 q 508 1153 479 1153 l 508 1032 l 508 1031 l 508 968 l 508 886 l 508 883 l 508 803 l 508 785 l 508 621 l 508 319 l 508 300 q 527 253 508 272 q 574 235 546 235 q 586 236 582 235 q 592 238 590 236 q 594 238 593 238 q 599 239 596 239 q 601 241 600 240 q 604 243 603 242 q 606 244 606 243 q 608 244 607 244 q 613 248 611 247 q 615 250 614 249 q 618 251 617 251 q 622 256 621 254 q 625 260 622 257 l 625 261 q 639 293 638 275 l 639 599 l 639 863 l 639 867 l 639 1217 z "},"2":{"ha":861,"x_min":3,"x_max":1024,"o":"m 1021 1186 q 1023 1167 1022 1176 q 1024 1150 1024 1158 l 1024 790 l 1022 781 q 994 683 1017 729 q 1016 631 1008 658 q 1024 572 1024 603 l 1024 232 q 1023 219 1024 225 q 1022 208 1022 213 q 1008 148 1019 176 q 978 96 996 119 l 974 90 q 963 78 968 83 q 951 65 957 72 l 942 58 q 931 49 936 54 q 919 42 926 44 q 904 32 911 35 q 895 28 901 31 q 882 22 889 25 q 860 14 869 15 q 852 12 857 13 q 840 8 847 11 q 796 4 817 4 q 682 35 735 4 q 513 4 597 4 q 315 47 407 4 q 153 165 222 90 q 43 340 83 240 q 3 554 3 440 q 224 1047 3 931 l 224 1161 q 242 1249 224 1208 q 290 1322 260 1290 q 363 1371 321 1353 q 451 1389 404 1389 q 558 1363 506 1389 q 658 1376 610 1374 q 747 1379 707 1379 q 783 1378 767 1379 q 810 1378 799 1378 q 828 1375 817 1378 q 838 1374 833 1375 l 849 1371 q 854 1369 853 1371 q 864 1367 858 1369 q 875 1364 867 1367 q 883 1360 879 1361 q 889 1357 886 1360 l 892 1357 q 893 1356 892 1357 l 921 1344 l 936 1329 q 941 1325 939 1326 q 946 1321 943 1324 q 964 1303 956 1313 q 967 1300 967 1301 q 971 1296 968 1299 q 979 1285 975 1290 q 986 1275 983 1281 l 992 1267 q 1007 1233 1000 1253 q 1011 1222 1011 1226 q 1018 1199 1017 1210 q 1019 1189 1019 1196 l 1021 1186 m 861 1217 q 860 1222 861 1219 q 860 1228 860 1225 l 860 1231 q 858 1235 858 1233 q 857 1238 858 1236 q 856 1240 857 1240 q 851 1250 854 1244 l 851 1251 q 849 1255 850 1254 q 846 1258 847 1256 q 843 1261 846 1258 l 839 1265 l 836 1268 q 835 1269 835 1268 l 833 1269 l 829 1274 l 828 1274 q 824 1275 826 1275 l 822 1276 q 820 1277 821 1276 q 818 1278 819 1278 q 817 1278 817 1278 q 815 1279 817 1279 l 814 1279 q 812 1280 813 1279 q 810 1281 811 1281 l 808 1281 l 804 1281 q 799 1282 803 1282 q 755 1284 786 1283 q 683 1282 724 1285 q 598 1272 643 1279 q 513 1247 553 1264 q 490 1280 506 1267 q 451 1293 474 1293 q 405 1274 424 1293 q 386 1228 386 1256 l 386 1101 l 386 1097 l 386 1090 q 405 1044 386 1063 q 451 1025 424 1025 q 498 1044 479 1025 q 517 1090 517 1063 q 517 1097 517 1093 q 524 1107 518 1101 q 558 1126 536 1118 q 609 1140 581 1135 q 669 1149 638 1146 q 731 1153 700 1153 l 731 1032 l 731 1029 l 731 968 q 626 1001 682 996 q 517 1007 569 1007 l 513 1007 q 485 1007 499 1007 q 457 1006 472 1007 q 396 1001 425 1006 q 388 1000 393 1000 q 303 973 343 993 q 233 910 264 953 q 183 797 201 867 q 165 621 165 728 q 192 471 165 542 q 267 348 219 400 q 377 265 314 296 q 513 235 440 235 q 630 257 575 235 q 729 319 685 279 l 731 319 l 731 300 q 749 253 731 272 q 796 235 768 235 q 808 236 804 235 q 814 238 811 236 q 817 238 815 238 q 819 239 818 239 q 826 243 825 242 q 828 244 828 243 q 831 244 829 244 q 838 250 833 246 q 840 251 839 251 q 847 260 842 254 l 847 261 q 860 293 857 274 q 860 297 860 296 q 861 300 861 297 l 861 621 q 861 610 861 615 q 860 599 861 604 l 860 640 q 841 687 860 668 q 794 706 822 706 q 751 688 769 706 q 731 646 733 671 l 731 643 q 730 642 731 642 q 729 640 729 642 l 729 607 q 709 513 726 557 q 663 435 692 468 q 594 384 633 403 q 513 365 556 365 q 428 385 468 365 q 360 440 389 406 q 313 522 331 475 q 296 621 296 568 q 354 850 296 806 q 421 873 379 869 q 513 876 463 876 q 606 873 564 876 q 672 850 647 869 q 700 815 688 839 l 700 814 q 714 797 706 806 q 731 785 722 789 q 786 775 754 772 q 840 807 818 778 q 853 833 847 818 q 861 867 858 847 l 861 1217 z "},"3":{"ha":864,"x_min":4,"x_max":1025,"o":"m 819 1376 q 901 1353 864 1372 q 967 1303 939 1333 q 1010 1234 994 1274 q 1025 1150 1025 1194 l 1025 836 q 1007 747 1025 788 q 1019 675 1014 713 q 1025 594 1024 638 l 1025 579 l 1025 232 q 1007 144 1025 185 q 958 72 989 103 q 886 22 928 40 q 797 4 844 4 q 683 35 736 4 q 515 4 599 4 q 317 47 410 4 q 154 165 224 90 q 44 340 85 240 q 4 554 4 440 q 17 628 4 593 q 51 692 29 663 q 103 742 74 721 q 169 772 133 763 q 92 853 121 803 q 64 965 64 904 l 64 990 l 64 1011 l 64 1161 q 82 1249 64 1208 q 131 1322 100 1290 q 203 1371 161 1353 q 292 1389 244 1389 q 356 1379 325 1389 q 414 1353 388 1369 q 542 1376 474 1368 q 689 1383 610 1383 q 772 1381 738 1383 q 819 1376 806 1379 m 863 1217 q 846 1260 863 1242 q 804 1282 829 1279 q 742 1286 792 1283 q 627 1285 693 1289 q 489 1269 561 1282 q 357 1226 417 1257 l 357 1228 q 338 1274 357 1256 q 292 1293 319 1293 q 245 1274 264 1293 q 226 1228 226 1256 l 226 1079 q 227 1070 226 1074 q 229 1063 228 1067 q 227 1048 228 1056 q 226 1032 226 1040 q 245 985 226 1004 q 292 967 264 967 q 338 985 319 967 q 357 1032 357 1004 q 382 1088 357 1067 q 447 1124 406 1110 q 535 1145 488 1138 q 635 1155 583 1153 q 732 1156 686 1157 l 732 968 q 626 1002 683 997 q 515 1007 569 1007 q 469 988 488 1007 q 450 942 450 969 q 469 895 450 914 q 515 876 488 876 q 608 873 567 876 q 675 850 650 869 q 732 621 732 806 q 715 522 732 568 q 668 440 697 475 q 599 385 639 406 q 515 365 560 365 q 431 385 471 365 q 363 440 392 406 q 316 522 333 475 q 299 621 299 568 q 280 667 299 649 q 233 686 261 686 q 187 667 206 686 q 168 621 168 649 q 195 471 168 542 q 269 348 222 400 q 380 265 317 296 q 515 235 443 235 q 633 257 578 235 q 732 319 688 279 l 732 300 q 751 253 732 272 q 797 235 769 235 q 844 253 825 235 q 863 300 863 272 l 863 621 l 863 646 l 863 650 q 829 847 858 772 q 853 870 844 856 q 863 903 863 885 l 863 1217 z "},"4":{"ha":864,"x_min":1,"x_max":1026,"o":"m 797 810 q 886 792 844 810 q 959 742 928 774 q 1008 669 990 711 q 1026 581 1026 628 l 1026 233 q 1008 144 1026 186 q 959 72 990 103 q 886 22 928 40 q 797 4 844 4 q 682 36 735 4 q 514 4 601 4 q 326 42 414 4 q 169 146 238 79 q 58 303 101 213 q 4 499 14 393 q 2 516 3 507 q 1 533 1 525 l 1 1154 q 18 1240 1 1200 q 64 1312 35 1281 q 133 1362 93 1343 q 218 1383 172 1381 q 240 1384 226 1383 q 274 1385 254 1385 q 381 1380 321 1385 q 501 1360 440 1375 q 575 1372 536 1372 q 664 1354 622 1372 q 737 1305 706 1336 q 786 1232 768 1274 q 804 1143 804 1190 l 804 1026 q 785 938 804 979 q 735 867 767 897 q 663 818 704 836 q 575 800 622 800 q 514 808 543 800 q 460 832 485 817 l 460 556 q 478 488 460 514 q 514 463 497 463 q 549 488 531 463 q 568 556 568 514 l 568 581 q 586 669 568 628 q 635 742 604 711 q 708 792 667 774 q 797 810 750 810 m 863 649 q 844 695 863 676 q 797 714 825 714 q 751 695 769 714 q 732 649 732 676 l 732 624 q 715 524 732 571 q 667 442 697 476 q 598 387 638 407 q 514 367 558 367 q 428 387 468 367 q 360 442 389 407 q 313 524 331 476 q 296 624 296 571 l 296 1157 q 358 1153 326 1156 q 417 1144 389 1150 q 468 1129 446 1138 q 503 1110 490 1121 q 509 1102 508 1106 q 510 1096 510 1099 q 528 1049 510 1068 q 575 1031 547 1031 q 622 1049 603 1031 q 640 1096 640 1068 l 640 1103 l 640 1106 l 640 1210 q 622 1256 640 1238 q 575 1275 603 1275 q 522 1249 542 1275 q 435 1274 482 1265 q 347 1285 389 1282 q 273 1288 306 1289 q 226 1288 240 1288 q 183 1267 200 1285 q 165 1222 165 1249 l 165 624 l 165 601 q 167 588 165 592 q 202 449 172 514 q 278 337 232 385 q 385 262 325 289 q 514 235 446 235 q 632 258 576 235 q 732 321 688 281 l 732 301 q 751 254 732 274 q 797 235 769 235 q 844 254 825 235 q 863 301 863 274 l 863 624 l 863 649 z "},"5":{"ha":865,"x_min":3,"x_max":1028,"o":"m 807 1051 q 1028 556 1028 932 q 988 341 1028 442 q 878 165 947 240 q 715 47 808 90 q 515 4 621 4 q 347 36 431 4 q 272 8 313 15 q 188 8 231 0 q 176 12 181 11 q 168 14 171 13 q 158 17 164 15 q 146 21 153 18 q 124 32 131 29 q 117 36 121 35 q 110 40 113 38 l 108 42 q 97 49 101 44 q 85 58 92 54 q 75 67 79 64 q 65 77 69 72 q 56 89 61 82 l 49 97 q 6 210 11 150 q 3 233 3 221 l 4 575 q 32 686 4 635 q 4 783 10 732 l 3 793 l 3 1154 q 7 1192 3 1172 q 8 1197 7 1194 q 8 1203 8 1200 q 12 1215 11 1210 q 15 1228 13 1221 q 17 1233 17 1231 q 19 1239 18 1236 q 26 1253 22 1246 q 33 1268 29 1261 l 42 1281 q 56 1300 47 1289 q 63 1308 57 1303 l 64 1308 l 68 1313 l 71 1317 l 81 1326 q 85 1330 83 1329 q 89 1333 86 1331 q 92 1335 92 1335 q 96 1338 93 1336 l 101 1343 l 126 1358 q 131 1360 129 1358 l 135 1361 q 138 1363 135 1361 l 139 1364 q 146 1367 142 1365 q 153 1369 150 1368 q 164 1372 161 1372 q 169 1374 167 1374 q 174 1376 171 1375 l 179 1376 l 190 1379 q 196 1381 193 1381 q 201 1382 199 1381 q 212 1383 207 1382 q 224 1383 217 1383 q 240 1384 231 1383 q 261 1385 249 1385 q 372 1379 310 1385 q 497 1357 433 1374 q 578 1372 536 1372 q 667 1354 625 1372 q 740 1305 708 1336 q 789 1232 771 1274 q 807 1143 807 1190 l 807 1051 m 515 235 q 651 265 588 235 q 763 349 715 296 q 838 472 810 401 q 865 624 865 543 q 847 801 865 731 q 798 914 829 871 q 726 977 767 957 q 642 1004 686 997 l 635 1004 q 572 1010 607 1010 q 544 1011 557 1011 q 515 1011 531 1011 l 513 1011 q 403 1006 460 1011 q 297 972 346 1000 l 297 1033 q 299 1036 297 1035 l 299 1156 q 358 1150 328 1154 q 417 1140 389 1146 q 468 1124 446 1133 q 503 1103 490 1115 q 513 1083 513 1094 q 531 1037 513 1056 q 578 1018 550 1018 q 624 1037 606 1018 q 643 1083 643 1056 l 643 1097 l 643 1106 l 643 1210 q 624 1256 643 1238 q 578 1275 606 1275 q 522 1243 540 1275 q 436 1271 482 1261 q 349 1284 390 1281 q 275 1288 307 1288 q 231 1288 243 1288 q 226 1287 228 1288 q 224 1286 225 1286 l 219 1286 q 217 1285 218 1286 q 215 1285 217 1285 l 213 1285 q 210 1283 211 1283 q 208 1283 208 1283 q 207 1282 208 1282 q 206 1281 206 1282 q 204 1281 206 1281 q 202 1280 203 1281 q 200 1279 201 1279 q 199 1278 200 1279 q 197 1277 197 1278 q 196 1276 197 1276 l 194 1275 q 192 1274 193 1274 l 189 1271 l 186 1268 q 185 1267 186 1267 l 183 1265 l 182 1264 q 179 1260 181 1261 q 176 1256 178 1258 q 173 1251 174 1253 q 171 1246 172 1249 l 171 1243 q 169 1239 169 1240 q 168 1236 169 1238 l 168 1232 q 167 1222 167 1229 l 167 869 q 175 836 169 850 q 188 811 181 822 q 242 778 210 781 q 297 788 274 775 q 315 801 306 792 q 328 817 324 810 l 328 818 q 356 854 342 844 q 422 877 381 874 q 515 881 464 881 q 609 877 567 881 q 676 854 651 874 q 733 624 733 808 q 716 524 733 571 q 669 442 699 476 q 601 387 640 407 q 515 367 561 367 q 433 385 472 367 q 365 437 394 404 q 318 514 336 469 q 299 610 300 558 l 299 643 q 297 646 299 643 l 297 649 q 276 691 294 674 q 233 708 258 708 q 187 690 206 708 q 168 643 168 671 l 168 601 q 167 624 167 608 l 167 301 q 168 294 167 297 q 172 276 168 285 q 181 261 175 268 q 184 257 183 258 q 188 253 185 256 q 189 252 189 253 q 190 251 189 251 q 197 246 194 247 q 199 244 199 244 q 201 243 200 244 q 208 240 203 243 q 211 239 210 239 q 214 238 213 239 q 219 236 218 238 q 226 235 222 236 q 232 235 229 235 q 278 254 260 235 q 297 301 297 274 l 297 321 l 299 321 q 398 258 343 281 q 515 235 453 235 z "},"6":{"ha":868,"x_min":4,"x_max":1029,"o":"m 678 854 q 735 624 735 808 q 717 524 735 571 q 671 442 700 476 q 602 387 642 407 q 517 367 563 367 q 433 387 472 367 q 363 442 393 407 q 316 524 333 476 q 299 624 299 571 q 357 854 299 808 q 424 877 382 874 q 517 881 465 881 q 610 877 568 881 q 678 854 651 874 m 808 1051 q 893 989 853 1028 q 963 890 933 950 q 1011 749 993 831 q 1029 556 1029 667 q 989 341 1029 442 q 879 165 949 240 q 716 47 810 90 q 517 4 622 4 q 349 36 432 4 q 233 4 296 4 q 144 22 186 4 q 72 72 103 40 q 22 144 40 103 q 4 233 4 186 l 4 1154 q 21 1240 4 1200 q 67 1312 38 1281 q 135 1362 96 1343 q 221 1383 175 1381 q 244 1384 231 1383 q 276 1385 258 1385 q 384 1380 325 1385 q 506 1360 443 1375 q 579 1372 540 1372 q 668 1354 626 1372 q 741 1305 710 1336 q 790 1232 772 1274 q 808 1143 808 1190 l 808 1051 m 517 235 q 653 265 589 235 q 764 349 717 296 q 839 472 811 401 q 867 624 867 543 q 851 787 867 721 q 810 896 836 853 q 750 963 785 939 q 676 997 715 986 q 597 1009 638 1007 q 517 1011 556 1011 q 405 1006 463 1011 q 299 972 347 1001 l 299 1157 q 361 1153 329 1156 q 422 1144 393 1150 q 472 1129 450 1138 q 507 1110 494 1121 q 514 1096 514 1103 q 533 1049 514 1068 q 579 1031 551 1031 q 626 1049 607 1031 q 644 1096 644 1068 l 644 1103 l 644 1106 l 644 1210 q 626 1256 644 1238 q 579 1275 607 1275 q 526 1249 544 1275 q 438 1274 485 1265 q 350 1285 392 1282 q 276 1288 308 1289 q 231 1288 243 1288 q 186 1267 204 1285 q 168 1222 168 1249 l 168 624 l 168 301 q 187 254 168 274 q 233 235 206 235 q 280 254 261 235 q 299 301 299 274 l 299 321 q 399 258 343 281 q 517 235 454 235 z "},"7":{"ha":801,"x_min":0,"x_max":967,"o":"m 760 1382 q 842 1358 804 1378 q 907 1308 879 1339 q 951 1238 935 1278 q 967 1154 967 1199 l 967 233 q 949 144 967 186 q 899 72 931 103 q 826 22 868 40 q 738 4 785 4 q 649 22 690 4 q 576 72 607 40 q 526 144 544 103 q 508 233 508 186 l 508 556 q 507 612 508 589 q 503 649 506 635 q 478 650 492 650 q 454 650 465 650 q 349 675 396 650 q 269 744 301 700 q 229 740 249 740 q 140 758 182 740 q 67 808 99 776 q 18 881 36 839 q 0 969 0 922 q 1 988 0 979 q 3 1008 1 997 q 1 1023 1 1015 q 0 1038 0 1031 l 0 1143 q 18 1232 0 1190 q 67 1305 36 1274 q 140 1354 99 1336 q 229 1372 182 1372 q 279 1367 256 1372 q 326 1351 303 1361 q 628 1389 453 1389 q 711 1387 676 1389 q 760 1382 746 1385 m 803 1222 q 786 1266 803 1247 q 744 1288 769 1285 q 682 1292 732 1289 q 565 1291 632 1294 q 425 1274 499 1288 q 292 1229 351 1260 q 268 1262 285 1249 q 229 1275 251 1275 q 183 1256 201 1275 q 164 1210 164 1238 l 164 1106 q 168 1081 164 1093 q 164 1036 164 1060 q 183 990 164 1008 q 229 971 201 971 q 276 990 257 971 q 294 1036 294 1008 q 319 1092 294 1068 q 385 1128 344 1114 q 475 1151 426 1143 q 575 1160 524 1158 q 672 1161 626 1163 l 672 972 q 566 1006 624 1001 q 454 1011 508 1011 q 408 992 426 1011 q 389 946 389 974 q 408 899 389 918 q 454 881 426 881 q 547 877 506 881 q 614 854 589 874 q 672 624 672 808 l 672 301 q 691 254 672 274 q 738 235 710 235 q 784 254 765 235 q 803 301 803 274 l 803 624 l 803 1222 z "},"8":{"ha":878,"x_min":1,"x_max":1043,"o":"m 632 1024 q 577 1027 604 1026 q 522 1028 550 1028 q 469 1027 496 1028 q 414 1024 442 1026 q 458 1125 418 1090 q 484 1144 469 1136 q 517 1153 499 1153 q 556 1143 538 1153 q 590 1118 575 1133 q 632 1024 628 1082 m 686 868 q 744 633 744 822 q 727 531 744 579 q 679 448 710 483 q 608 392 649 413 q 522 372 568 372 q 436 392 476 372 q 366 448 396 413 q 319 531 336 483 q 301 633 301 579 q 360 868 301 822 q 428 891 386 888 q 522 894 471 894 q 617 891 575 894 q 686 868 660 888 m 849 1207 q 931 976 922 1106 q 1043 565 1043 838 q 1002 347 1043 449 q 890 169 961 244 q 725 49 819 93 q 522 4 631 4 q 320 49 415 4 q 154 169 225 93 q 42 347 83 244 q 1 565 1 449 q 115 975 1 836 q 192 1204 124 1104 q 260 1282 221 1246 q 514 1388 378 1385 l 517 1388 q 659 1358 589 1388 q 792 1271 729 1328 q 849 1207 822 1244 m 522 239 q 660 270 596 239 q 774 355 725 301 q 850 480 822 408 q 878 633 878 551 q 869 765 878 708 q 844 864 860 822 q 806 934 828 906 q 757 981 783 963 q 763 995 760 988 q 765 1013 765 1003 q 714 1178 765 1107 q 679 1217 700 1199 q 601 1269 643 1249 q 515 1289 560 1289 q 440 1271 476 1289 q 371 1225 403 1253 q 329 1178 344 1203 q 281 1013 281 1108 q 283 995 281 1003 q 289 981 286 988 q 240 934 263 963 q 202 864 218 906 q 177 765 186 822 q 168 633 168 708 q 196 480 168 551 q 272 355 224 408 q 385 270 321 301 q 522 239 449 239 z "},"9":{"ha":643,"x_min":6,"x_max":806,"o":"m 613 1375 q 690 1349 654 1368 q 751 1299 725 1329 q 791 1231 776 1269 q 806 1150 806 1193 l 806 233 q 788 144 806 186 q 738 72 769 103 q 666 24 707 42 q 578 6 625 6 q 489 24 531 6 q 417 72 447 42 q 368 144 386 103 q 350 233 350 186 l 350 554 q 348 610 350 588 q 343 647 346 632 l 294 647 l 233 647 q 145 665 186 647 q 73 715 104 683 q 24 787 42 746 q 6 875 6 828 l 6 944 q 42 1126 6 1043 q 147 1268 78 1208 q 236 1326 189 1304 q 331 1361 283 1349 q 422 1378 378 1374 q 504 1383 467 1383 q 573 1381 544 1383 q 613 1375 601 1378 m 643 1218 q 627 1260 643 1242 q 588 1282 611 1278 q 542 1287 579 1283 q 456 1286 506 1290 q 353 1265 407 1282 q 254 1211 299 1249 q 190 1124 211 1175 q 168 1011 168 1074 l 168 942 q 187 895 168 914 q 233 876 206 876 l 294 876 q 388 874 346 876 q 454 851 429 871 q 513 621 513 806 l 513 300 q 531 253 513 272 q 578 235 550 235 q 624 253 606 235 q 643 300 643 272 l 643 1218 m 299 1011 q 338 1111 299 1078 q 421 1149 371 1140 q 513 1157 471 1157 l 513 968 q 408 1002 464 997 q 299 1007 351 1007 l 299 1011 z "}," ":{"ha":699,"x_min":0,"x_max":0,"o":""},"E":{"ha":865,"x_min":4,"x_max":1029,"o":"m 864 774 q 929 742 899 763 q 982 692 960 721 q 1017 627 1004 663 q 1029 553 1029 592 q 989 338 1029 439 q 878 163 949 238 q 715 44 808 88 q 517 1 622 1 q 347 33 431 1 q 233 1 296 1 q 144 19 186 1 q 72 69 103 38 q 22 142 40 100 q 4 231 4 183 l 4 1151 q 20 1235 4 1196 q 64 1306 36 1275 q 129 1356 92 1336 q 211 1379 167 1375 q 260 1384 225 1382 q 343 1386 294 1386 q 849 1240 686 1386 q 938 1117 907 1188 q 969 967 969 1046 q 941 854 969 904 q 864 774 913 804 m 517 233 q 652 264 589 233 q 763 347 715 294 q 838 470 810 400 q 865 621 865 540 q 847 667 865 649 q 800 686 828 686 q 753 667 772 686 q 735 621 735 649 q 717 521 735 568 q 670 439 700 474 q 601 384 640 404 q 517 364 561 364 q 431 384 471 364 q 363 439 392 404 q 316 521 333 474 q 299 621 299 568 q 357 851 299 806 q 424 874 382 871 q 517 878 465 878 q 563 897 544 878 q 582 943 582 915 q 563 990 582 971 q 517 1008 544 1008 q 405 1003 463 1008 q 299 969 347 999 l 299 1157 q 388 1157 338 1158 q 488 1149 439 1156 q 581 1128 538 1142 q 650 1090 624 1114 q 676 1033 676 1065 q 695 987 676 1006 q 742 968 714 968 q 788 987 769 968 q 807 1033 807 1006 q 739 1186 807 1125 q 653 1240 703 1219 q 551 1271 604 1260 q 443 1285 497 1282 q 344 1289 389 1289 q 267 1287 299 1289 q 226 1285 236 1285 q 185 1263 201 1282 q 168 1219 168 1244 l 168 621 l 168 299 q 187 252 168 271 q 233 233 206 233 q 280 252 261 233 q 299 299 299 271 l 299 318 q 399 256 343 278 q 517 233 454 233 z "},"F":{"ha":808,"x_min":4,"x_max":971,"o":"m 849 1243 q 940 1119 908 1190 q 971 969 971 1049 q 953 881 971 922 q 903 808 935 839 q 831 758 872 776 q 742 740 789 740 q 703 744 721 740 q 623 675 671 700 q 517 650 575 650 q 493 650 506 650 q 468 649 481 650 q 464 612 465 635 q 463 556 463 589 l 463 233 q 444 144 463 186 q 395 72 426 103 q 322 22 364 40 q 233 4 281 4 q 144 22 186 4 q 72 72 103 40 q 22 144 40 103 q 4 233 4 186 l 4 1154 q 20 1238 4 1199 q 64 1308 36 1278 q 129 1358 92 1339 q 211 1382 167 1378 q 260 1387 225 1385 q 343 1389 294 1389 q 849 1243 688 1389 m 742 971 q 788 990 769 971 q 807 1036 807 1008 q 739 1189 807 1128 q 653 1242 703 1222 q 551 1274 604 1263 q 444 1288 497 1285 q 345 1292 390 1292 q 269 1290 300 1292 q 228 1288 238 1288 q 185 1266 203 1285 q 168 1222 168 1247 l 168 624 l 168 301 q 187 254 168 274 q 233 235 206 235 q 280 254 261 235 q 299 301 299 274 l 299 624 q 357 854 299 808 q 424 877 382 874 q 517 881 465 881 q 563 899 544 881 q 582 946 582 918 q 563 992 582 974 q 517 1011 544 1011 q 405 1006 463 1011 q 299 972 347 1001 l 299 1160 q 389 1160 339 1161 q 489 1151 439 1158 q 582 1130 539 1144 q 651 1092 625 1115 q 676 1036 676 1071 q 695 990 676 1008 q 742 971 714 971 z "},"G":{"ha":863,"x_min":0,"x_max":1025,"o":"m 801 978 q 855 948 829 965 q 904 907 881 931 q 1025 553 1025 786 q 985 339 1025 439 q 875 164 944 239 q 712 46 806 89 q 513 3 618 3 q 344 33 424 3 q 229 3 290 3 q 140 21 182 3 q 67 70 99 39 q 18 142 36 101 q 0 231 0 183 l 0 1153 q 15 1233 0 1194 q 55 1301 29 1271 q 116 1351 81 1332 q 193 1378 151 1371 q 256 1385 208 1381 q 366 1383 303 1389 q 501 1357 429 1378 q 638 1289 572 1336 q 745 1169 704 1240 q 799 1015 786 1099 q 801 997 800 1006 q 801 978 801 988 m 513 233 q 649 264 585 233 q 760 347 713 294 q 835 470 807 400 q 863 621 863 540 q 844 763 863 706 q 789 858 826 821 q 733 897 764 883 q 669 916 703 910 q 600 924 636 922 q 529 925 564 925 l 513 925 q 466 906 485 925 q 447 860 447 888 q 466 813 447 832 q 513 794 485 794 l 531 794 q 629 791 585 794 q 696 765 674 788 q 731 621 731 731 q 713 521 731 568 q 667 439 696 474 q 598 384 638 404 q 513 364 558 364 q 428 384 468 364 q 359 439 389 404 q 312 521 329 474 q 294 621 294 568 l 294 1158 q 382 1151 335 1160 q 463 1119 429 1143 q 507 1040 501 1089 q 533 997 511 1013 q 582 985 554 982 q 624 1010 608 989 q 638 1060 640 1032 q 540 1224 621 1165 q 442 1271 496 1257 q 342 1288 389 1285 q 261 1289 296 1292 q 219 1285 226 1286 q 180 1262 196 1281 q 164 1219 164 1243 l 164 621 l 164 299 q 183 252 164 271 q 229 233 201 233 q 276 252 257 233 q 294 299 294 271 l 294 318 q 394 256 339 278 q 513 233 450 233 z "},"H":{"ha":865,"x_min":4,"x_max":1029,"o":"m 800 1383 q 889 1365 847 1383 q 962 1316 931 1347 q 1011 1243 993 1285 q 1029 1154 1029 1201 l 1029 233 q 1011 144 1029 186 q 962 72 993 103 q 889 22 931 40 q 800 4 847 4 q 711 22 753 4 q 638 72 669 40 q 589 144 607 103 q 571 233 571 186 l 571 556 q 569 612 571 589 q 565 649 568 635 q 541 650 554 650 q 517 650 528 650 q 492 650 506 650 q 468 649 479 650 q 464 612 465 635 q 463 556 463 589 l 463 233 q 444 144 463 186 q 395 72 426 103 q 322 22 364 40 q 233 4 281 4 q 144 22 186 4 q 72 72 103 40 q 22 144 40 103 q 4 233 4 186 l 4 1154 q 22 1243 4 1201 q 72 1316 40 1285 q 144 1365 103 1347 q 233 1383 186 1383 q 322 1365 281 1383 q 395 1316 364 1347 q 444 1243 426 1285 q 463 1154 463 1201 l 463 1107 q 571 1107 517 1108 l 571 1154 q 589 1243 571 1201 q 638 1316 607 1285 q 711 1365 669 1347 q 800 1383 753 1383 m 865 1222 q 847 1269 865 1250 q 800 1288 828 1288 q 753 1269 772 1288 q 735 1222 735 1250 l 735 972 q 628 1006 686 1001 q 517 1011 571 1011 q 405 1006 463 1011 q 299 972 347 1001 l 299 1222 q 280 1269 299 1250 q 233 1288 261 1288 q 187 1269 206 1288 q 168 1222 168 1250 l 168 624 l 168 301 q 187 254 168 274 q 233 235 206 235 q 280 254 261 235 q 299 301 299 274 l 299 624 q 357 854 299 808 q 424 877 382 874 q 517 881 465 881 q 610 877 568 881 q 676 854 651 874 q 735 624 735 808 l 735 301 q 753 254 735 274 q 800 235 772 235 q 847 254 828 235 q 865 301 865 274 l 865 624 l 865 1222 z "},"I":{"ha":806,"x_min":-1,"x_max":971,"o":"m 739 740 q 726 740 732 740 q 714 742 721 740 l 714 465 l 717 465 q 728 467 724 467 q 739 467 733 467 q 823 451 783 467 q 893 407 863 435 q 943 342 924 379 q 967 260 963 304 q 958 169 971 213 q 916 92 944 126 q 848 36 888 58 q 761 10 808 14 q 713 6 747 8 q 629 4 678 4 q 124 150 283 4 q 33 274 65 203 q 1 424 1 344 q 19 513 1 471 q 69 585 38 554 q 142 633 100 615 q 231 651 183 651 q 244 651 238 651 q 257 650 250 651 l 257 926 l 253 926 l 231 926 q 147 942 186 926 q 77 985 107 958 q 27 1050 47 1013 q 3 1132 7 1088 q 13 1223 -1 1179 q 54 1301 26 1267 q 122 1356 82 1335 q 208 1382 161 1378 q 257 1387 222 1385 q 340 1389 292 1389 q 846 1243 685 1389 q 937 1119 906 1190 q 968 969 968 1049 q 950 881 968 922 q 901 808 932 839 q 828 758 869 776 q 739 740 786 740 m 733 371 q 648 366 696 367 q 550 369 600 365 l 550 1138 q 607 1119 582 1131 q 649 1092 632 1107 q 674 1036 674 1071 q 692 990 674 1008 q 739 971 711 971 q 785 990 767 971 q 804 1036 804 1008 q 736 1189 804 1128 q 651 1242 700 1222 q 548 1274 601 1263 q 441 1288 494 1285 q 342 1292 388 1292 q 266 1290 297 1292 q 225 1288 235 1288 q 180 1264 197 1285 q 165 1215 163 1243 q 189 1171 168 1188 q 238 1157 210 1154 q 323 1160 275 1160 q 419 1158 371 1161 l 419 389 q 364 408 389 397 q 322 435 339 419 q 296 490 296 457 q 277 537 296 518 q 231 556 258 556 q 184 537 203 556 q 165 490 165 518 q 233 338 165 399 q 319 285 269 306 q 422 254 368 265 q 531 239 476 243 q 629 235 585 235 q 705 237 674 235 q 746 240 736 239 q 790 263 774 243 q 804 311 807 283 q 781 356 801 339 q 733 371 761 374 z "},"J":{"ha":861,"x_min":0,"x_max":1025,"o":"m 832 1381 q 909 1353 874 1374 q 970 1303 944 1333 q 1010 1235 996 1274 q 1025 1154 1025 1197 l 1025 233 q 1007 144 1025 186 q 958 72 989 103 q 885 22 926 40 q 796 4 843 4 q 682 36 733 4 q 513 4 599 4 q 314 47 407 4 q 151 165 221 90 q 40 341 81 240 q 0 556 0 442 q 18 644 0 603 q 67 717 36 686 q 140 767 99 749 q 229 785 182 785 q 304 772 268 785 q 244 849 267 804 q 222 947 222 894 q 259 1129 222 1046 q 365 1272 296 1213 q 454 1331 407 1308 q 549 1367 501 1354 q 641 1384 596 1379 q 724 1389 686 1389 q 792 1386 764 1389 q 832 1381 821 1383 m 861 1222 q 846 1265 861 1246 q 807 1286 831 1283 q 762 1291 799 1288 q 675 1290 725 1294 q 570 1269 625 1286 q 471 1215 515 1253 q 386 1015 386 1143 q 405 969 386 988 q 451 950 424 950 q 498 969 479 950 q 517 1015 517 988 q 556 1115 517 1082 q 639 1153 589 1144 q 731 1161 689 1163 l 731 624 q 713 524 731 571 q 667 442 696 476 q 598 387 638 407 q 513 367 558 367 q 428 387 468 367 q 359 442 389 407 q 312 524 329 476 q 294 624 294 571 q 276 670 294 651 q 229 689 257 689 q 183 670 201 689 q 164 624 164 651 q 192 472 164 543 q 267 349 219 401 q 377 265 314 296 q 513 235 440 235 q 631 258 575 235 q 731 321 686 281 l 731 301 q 749 254 731 274 q 796 235 768 235 q 842 254 824 235 q 861 301 861 274 l 861 624 l 861 1222 z "},"K":{"ha":868,"x_min":0,"x_max":1025,"o":"m 790 1058 q 1025 556 1025 943 q 985 341 1025 442 q 874 165 944 240 q 711 47 804 90 q 513 4 618 4 q 436 17 472 4 q 371 54 400 31 q 306 17 342 31 q 229 4 269 4 q 140 22 182 4 q 67 72 99 40 q 18 144 36 103 q 0 233 0 186 l 0 1154 q 18 1243 0 1201 q 67 1316 36 1285 q 140 1365 99 1347 q 229 1383 182 1383 q 329 1361 281 1383 q 397 1375 361 1372 q 467 1369 432 1378 q 680 1257 597 1338 q 790 1058 763 1176 m 513 235 q 648 265 585 235 q 758 349 711 296 q 833 472 806 401 q 861 624 861 543 q 843 801 861 731 q 794 914 825 871 q 722 977 763 957 q 639 1004 682 997 l 639 1015 q 585 1184 639 1117 q 426 1278 531 1251 q 377 1271 400 1285 q 347 1231 354 1257 q 354 1181 340 1203 q 394 1151 368 1158 q 455 1126 432 1142 q 490 1092 478 1111 q 505 1053 501 1074 q 508 1015 508 1033 l 508 1011 q 399 1006 456 1011 q 294 972 343 1000 l 294 1222 q 276 1269 294 1250 q 229 1288 257 1288 q 182 1269 201 1288 q 163 1222 163 1250 l 163 624 l 163 301 q 182 254 163 274 q 229 235 201 235 q 276 254 257 235 q 294 301 294 274 l 294 624 q 351 854 294 808 q 419 877 378 874 q 513 881 461 881 q 606 877 564 881 q 672 854 647 874 q 731 624 731 808 q 713 524 731 571 q 666 442 696 476 q 597 387 636 407 q 513 367 557 367 q 466 348 485 367 q 447 301 447 329 q 466 254 447 274 q 513 235 485 235 z "},"L":{"ha":861,"x_min":0,"x_max":1025,"o":"m 796 785 q 885 767 843 785 q 958 717 926 749 q 1007 644 989 686 q 1025 556 1025 603 q 985 341 1025 442 q 875 165 944 240 q 712 47 806 90 q 513 4 618 4 q 344 36 425 4 q 229 4 292 4 q 140 22 182 4 q 67 72 99 40 q 18 144 36 103 q 0 233 0 186 l 0 1154 q 18 1243 0 1201 q 67 1316 36 1285 q 140 1365 99 1347 q 229 1383 182 1383 q 318 1365 276 1383 q 391 1316 360 1347 q 440 1243 422 1285 q 458 1154 458 1201 l 458 556 q 477 488 458 514 q 513 463 496 463 q 548 488 529 463 q 567 556 567 514 q 585 644 567 603 q 634 717 603 686 q 707 767 665 749 q 796 785 749 785 m 513 235 q 649 265 585 235 q 760 349 713 296 q 834 472 807 401 q 861 624 861 543 q 842 670 861 651 q 796 689 824 689 q 749 670 768 689 q 731 624 731 651 q 713 524 731 571 q 667 442 696 476 q 598 387 638 407 q 513 367 558 367 q 428 387 468 367 q 359 442 389 407 q 312 524 329 476 q 294 624 294 571 l 294 1222 q 276 1269 294 1250 q 229 1288 257 1288 q 183 1269 201 1288 q 164 1222 164 1250 l 164 624 l 164 301 q 183 254 164 274 q 229 235 201 235 q 276 254 257 235 q 294 301 294 274 l 294 321 q 394 258 339 281 q 513 235 450 235 z "},"M":{"ha":992,"x_min":4,"x_max":1156,"o":"m 906 1263 q 1156 556 1156 1050 q 1115 341 1156 442 q 1005 165 1075 240 q 842 47 935 90 q 643 4 749 4 q 520 40 575 4 q 438 132 465 75 q 355 40 410 75 q 233 4 300 4 q 144 22 186 4 q 72 72 103 40 q 22 144 40 103 q 4 233 4 186 l 4 1154 q 19 1235 4 1197 q 59 1303 33 1274 q 120 1353 85 1333 q 197 1381 156 1374 q 237 1386 208 1383 q 306 1389 265 1389 q 468 1369 390 1389 q 487 1376 478 1374 q 507 1381 496 1378 q 531 1383 514 1382 q 572 1385 547 1385 q 636 1381 599 1385 q 717 1364 674 1376 q 810 1327 761 1351 q 906 1263 858 1303 m 643 235 q 779 265 715 235 q 890 349 843 296 q 965 472 938 401 q 992 624 992 543 q 800 1206 992 1043 q 708 1263 754 1244 q 624 1285 661 1281 q 561 1288 586 1290 q 535 1286 536 1286 q 490 1257 506 1282 q 403 1283 447 1276 q 320 1292 358 1290 q 256 1290 282 1293 q 222 1286 229 1288 q 183 1265 199 1283 q 167 1222 167 1246 l 167 301 q 186 254 167 274 q 233 235 206 235 q 280 254 261 235 q 299 301 299 274 l 299 1161 q 343 1160 319 1161 q 390 1153 367 1158 q 434 1138 413 1147 q 472 1115 456 1129 q 513 1015 513 1083 q 531 969 513 988 q 578 950 550 950 q 624 969 606 950 q 643 1015 643 988 q 608 1156 643 1093 q 660 1140 632 1151 q 718 1103 689 1128 q 825 920 789 1042 q 861 624 861 799 q 844 524 861 571 q 797 442 826 476 q 728 387 768 407 q 643 367 689 367 q 597 348 615 367 q 578 301 578 329 q 597 254 578 274 q 643 235 615 235 z "},"N":{"ha":865,"x_min":0,"x_max":1029,"o":"m 576 1294 q 735 1226 654 1274 q 881 1093 815 1179 q 988 876 946 1007 q 1029 554 1029 744 q 989 338 1029 439 q 878 163 949 238 q 715 44 808 88 q 515 0 621 0 q 439 13 475 0 q 372 49 403 25 q 307 13 343 25 q 231 0 271 0 q 141 18 183 0 q 67 67 99 36 q 18 140 36 99 q 0 229 0 182 l 0 1154 q 36 1279 0 1224 q 132 1363 72 1335 q 151 1371 142 1367 q 189 1382 169 1378 q 214 1384 200 1385 q 239 1383 228 1383 q 264 1382 253 1382 q 353 1349 313 1375 q 421 1283 393 1324 q 497 1302 457 1299 q 576 1294 538 1306 m 515 232 q 651 263 588 232 q 763 346 715 293 q 838 469 810 399 q 865 621 865 540 q 783 1013 865 867 q 533 1204 700 1158 q 482 1199 506 1211 q 451 1158 458 1186 q 458 1108 444 1132 q 497 1078 471 1085 q 735 621 735 1011 q 722 533 735 575 q 685 458 708 492 q 630 402 661 425 q 561 369 599 379 l 293 1242 q 265 1278 286 1265 q 221 1288 244 1290 q 181 1265 197 1283 q 165 1222 165 1246 l 165 297 q 184 251 165 269 q 231 232 203 232 q 277 251 258 232 q 296 297 296 269 l 296 786 l 453 278 q 476 244 460 257 q 515 232 493 232 z "},"O":{"ha":857,"x_min":1,"x_max":1026,"o":"m 767 1222 q 1026 557 1026 1000 q 986 342 1026 443 q 876 167 946 242 q 713 49 806 92 q 514 6 619 6 q 314 49 407 6 q 151 167 221 92 q 42 342 82 242 q 1 557 1 443 l 1 1156 q 16 1235 1 1197 q 56 1304 31 1274 q 117 1354 82 1335 q 194 1381 153 1374 q 227 1385 201 1383 q 293 1388 253 1388 q 388 1382 332 1388 q 506 1359 443 1376 q 637 1309 569 1342 q 767 1222 704 1276 m 514 236 q 649 267 586 236 q 760 350 713 297 q 835 473 807 403 q 863 624 863 543 q 661 1165 863 993 q 515 1252 590 1225 q 374 1287 439 1279 q 267 1291 310 1294 q 219 1288 224 1288 q 181 1265 196 1283 q 165 1222 165 1246 l 165 624 q 192 473 165 543 q 267 350 219 403 q 378 267 314 297 q 514 236 442 236 m 575 1065 q 732 624 732 933 q 715 524 732 571 q 668 442 697 476 q 599 387 639 407 q 514 367 560 367 q 428 387 468 367 q 360 442 389 407 q 313 524 331 476 q 296 624 296 571 l 296 1161 q 355 1158 321 1161 q 426 1144 389 1154 q 501 1115 463 1133 q 575 1065 539 1096 z "},"P":{"ha":642,"x_min":6,"x_max":804,"o":"m 663 1268 q 768 1126 732 1208 q 804 944 804 1043 l 804 875 q 786 787 804 828 q 738 715 768 746 q 665 665 707 683 q 576 647 624 647 l 515 647 l 467 647 q 463 610 464 632 q 461 554 461 588 l 461 233 q 443 144 461 186 q 394 72 425 103 q 322 24 363 42 q 233 6 281 6 q 144 24 186 6 q 72 72 103 42 q 24 144 42 103 q 6 233 6 186 l 6 1150 q 20 1231 6 1193 q 60 1299 35 1269 q 120 1349 85 1329 q 197 1375 156 1368 q 237 1381 208 1378 q 306 1383 265 1383 q 388 1378 343 1383 q 480 1361 433 1374 q 574 1326 526 1349 q 663 1268 621 1304 m 642 1011 q 557 1211 642 1139 q 458 1265 513 1249 q 353 1286 403 1282 q 267 1287 304 1290 q 222 1282 231 1283 q 183 1260 199 1278 q 168 1218 168 1242 l 168 300 q 187 253 168 272 q 233 235 206 235 q 280 253 261 235 q 299 300 299 272 l 299 621 q 356 851 299 806 q 422 874 381 871 q 515 876 464 876 l 576 876 q 623 895 604 876 q 642 942 642 914 l 642 1011 m 472 1111 q 511 1011 511 1078 l 511 1007 q 403 1002 458 1007 q 299 968 347 997 l 299 1157 q 342 1156 319 1157 q 389 1149 365 1154 q 434 1134 413 1143 q 472 1111 456 1125 z "},"Q":{"ha":863,"x_min":1,"x_max":1029,"o":"m 1007 403 l 994 365 q 1019 281 1011 324 q 1021 192 1029 236 q 986 108 1013 147 q 842 10 935 29 q 796 6 818 6 q 682 36 735 6 q 514 6 603 6 q 315 49 408 6 q 152 167 222 92 q 42 342 82 242 q 1 557 1 443 l 1 1156 q 16 1235 1 1197 q 56 1304 31 1274 q 117 1354 82 1335 q 194 1381 153 1374 q 227 1385 201 1383 q 293 1388 253 1388 q 388 1382 332 1388 q 506 1359 443 1376 q 637 1309 569 1342 q 767 1222 704 1276 q 1026 557 1026 1000 q 1011 424 1026 492 l 1008 414 l 1007 403 m 860 314 q 841 374 853 346 q 814 426 829 403 q 850 519 838 469 q 863 624 863 569 q 661 1165 863 993 q 515 1252 590 1225 q 374 1287 439 1279 q 267 1291 310 1294 q 221 1288 225 1288 q 181 1265 197 1283 q 165 1222 165 1246 l 165 624 q 193 473 165 543 q 268 350 221 403 q 378 267 315 297 q 514 236 442 236 q 627 257 574 236 q 725 314 681 278 q 728 301 728 307 q 732 288 729 294 q 754 250 736 264 q 796 236 772 236 q 808 238 804 236 q 851 265 836 243 q 860 314 865 288 m 576 1065 q 732 624 732 933 q 710 513 732 565 q 581 538 653 538 q 534 519 553 538 q 515 472 515 500 q 534 426 515 444 q 581 407 553 407 q 625 403 604 407 q 573 376 601 386 q 514 367 544 367 q 428 387 468 367 q 360 442 389 407 q 313 524 331 476 q 296 624 296 571 l 296 1161 q 355 1158 321 1161 q 426 1144 389 1154 q 501 1115 463 1133 q 576 1065 540 1096 z "},"R":{"ha":861,"x_min":4,"x_max":1025,"o":"m 471 1111 q 511 1011 511 1078 l 511 1007 q 402 1002 458 1007 q 297 968 346 997 l 297 1157 q 342 1156 318 1157 q 389 1149 365 1154 q 433 1134 413 1143 q 471 1111 454 1125 m 790 1056 q 1025 554 1025 940 q 985 340 1025 440 q 875 166 944 240 q 713 49 806 92 q 514 6 619 6 q 438 18 474 6 q 374 54 401 31 q 308 18 344 31 q 232 6 272 6 q 143 24 185 6 q 71 72 101 42 q 22 144 40 103 q 4 233 4 186 l 4 1150 q 19 1231 4 1193 q 58 1299 33 1269 q 119 1349 83 1329 q 196 1375 154 1368 q 235 1381 207 1378 q 304 1383 264 1383 q 387 1378 342 1383 q 478 1361 432 1374 q 572 1326 525 1349 q 661 1268 619 1304 q 742 1172 710 1226 q 790 1056 775 1118 m 514 235 q 649 265 586 235 q 760 348 713 296 q 834 471 807 400 q 861 621 861 542 q 843 797 861 728 q 794 910 825 867 q 724 973 764 953 q 640 1000 683 993 l 640 1011 q 556 1211 640 1139 q 456 1265 511 1249 q 352 1286 401 1282 q 267 1287 303 1290 q 222 1282 231 1283 q 183 1260 199 1278 q 167 1218 167 1242 l 167 621 l 167 300 q 185 253 167 272 q 232 235 204 235 q 278 253 260 235 q 297 300 297 272 l 297 621 q 354 851 297 806 q 421 874 379 871 q 514 876 463 876 q 607 874 565 876 q 674 851 649 871 q 732 621 732 806 q 715 522 732 568 q 667 440 697 475 q 598 385 638 406 q 514 365 558 365 q 467 347 486 365 q 449 300 449 328 q 467 253 449 272 q 514 235 486 235 z "},"S":{"ha":865,"x_min":4,"x_max":1029,"o":"m 806 1053 q 1029 556 1029 936 q 989 341 1029 442 q 878 165 949 240 q 715 47 808 90 q 517 4 622 4 q 347 36 431 4 q 272 8 313 15 q 189 8 231 0 q 177 12 182 11 q 168 14 172 13 q 146 22 161 15 q 133 28 139 25 q 124 32 126 31 q 117 36 121 35 q 110 40 113 38 q 97 49 103 44 q 86 58 92 54 q 76 67 82 61 q 66 77 71 72 q 56 89 61 82 l 50 96 q 6 210 13 147 q 4 233 4 215 l 4 575 q 12 633 4 606 q 33 686 19 661 q 15 732 22 708 q 6 783 8 756 l 4 793 l 4 1154 q 5 1173 4 1164 q 7 1192 6 1182 q 8 1197 8 1194 q 10 1203 8 1200 q 13 1215 11 1210 q 17 1228 14 1221 q 21 1239 17 1232 q 27 1256 24 1247 q 35 1271 31 1264 l 42 1281 q 49 1290 44 1286 q 56 1300 53 1294 q 63 1308 61 1306 q 71 1315 68 1314 q 76 1321 74 1318 q 82 1326 79 1324 q 90 1333 88 1332 q 97 1338 93 1336 q 103 1343 100 1340 q 108 1346 106 1346 l 122 1356 l 133 1361 q 135 1362 135 1361 q 138 1363 136 1363 q 139 1363 139 1363 q 140 1364 139 1364 q 153 1369 149 1367 l 165 1374 q 175 1376 167 1374 l 179 1376 l 190 1379 q 197 1381 193 1381 q 203 1382 200 1381 q 212 1383 207 1382 q 224 1383 217 1383 q 240 1384 231 1383 q 261 1385 249 1385 q 373 1379 313 1385 q 492 1359 433 1374 q 607 1317 551 1344 q 707 1249 663 1290 q 806 1053 793 1167 m 517 235 q 652 265 589 235 q 763 349 715 296 q 838 472 810 401 q 865 624 865 543 q 847 801 865 731 q 798 914 829 871 q 726 977 767 957 q 643 1004 686 997 l 635 1004 q 572 1010 607 1010 q 544 1011 557 1011 q 517 1011 531 1011 l 513 1011 q 403 1006 460 1011 q 299 972 347 1000 l 299 1033 l 299 1036 l 299 1156 q 359 1150 328 1154 q 418 1140 390 1146 q 468 1124 446 1133 q 503 1103 490 1115 q 513 1083 513 1094 q 531 1037 513 1056 q 578 1018 550 1018 q 625 1037 606 1018 q 644 1083 644 1056 q 594 1197 644 1150 q 501 1252 557 1233 q 391 1279 446 1271 q 292 1288 336 1288 q 231 1288 247 1288 q 227 1287 228 1288 q 224 1286 226 1286 l 221 1286 l 219 1286 q 217 1285 218 1286 q 215 1285 217 1285 l 213 1285 q 210 1283 213 1283 q 207 1282 210 1283 q 204 1281 207 1282 q 201 1279 203 1281 q 200 1278 200 1279 q 198 1277 199 1278 q 196 1276 197 1276 q 194 1275 196 1275 q 192 1274 194 1274 q 191 1272 192 1272 q 190 1271 190 1272 l 186 1267 q 185 1265 186 1267 q 183 1265 183 1265 q 182 1264 183 1264 l 178 1256 l 176 1256 q 174 1251 175 1253 q 172 1246 174 1249 q 172 1244 172 1244 q 171 1243 171 1244 q 170 1239 171 1240 q 169 1236 169 1238 q 169 1234 169 1235 q 168 1232 168 1233 l 168 1222 l 168 869 q 189 811 172 832 q 242 778 210 781 q 299 788 275 775 q 315 801 307 792 q 328 817 324 810 l 329 818 q 357 854 340 842 q 424 877 382 874 q 517 881 465 881 q 610 877 568 881 q 676 854 651 874 q 735 624 735 808 q 717 524 735 571 q 670 442 700 476 q 601 387 640 407 q 517 367 561 367 q 434 385 472 367 q 367 437 396 404 q 319 514 338 469 q 299 610 301 558 l 299 643 l 299 646 l 299 649 q 278 691 296 674 q 233 708 260 708 q 187 690 206 708 q 168 643 168 671 l 168 601 l 168 624 l 168 301 l 168 294 q 181 261 169 275 l 182 261 q 189 253 183 258 l 190 251 q 194 249 193 250 q 197 246 194 247 q 199 244 199 244 q 201 243 200 244 q 208 240 203 243 q 211 239 210 239 q 215 238 213 239 q 219 236 218 238 q 226 235 222 236 q 233 235 229 235 q 280 254 261 235 q 299 301 299 274 l 299 321 q 399 258 343 281 q 517 235 454 235 z "},"T":{"ha":826,"x_min":-3,"x_max":994,"o":"m 869 1239 q 963 1111 931 1183 q 994 957 994 1039 q 976 865 994 908 q 925 790 957 822 q 851 740 893 758 q 760 721 808 721 q 747 722 753 721 q 733 722 740 722 l 733 239 q 715 148 733 190 q 664 74 696 106 q 589 23 632 42 q 497 4 546 4 q 406 23 449 4 q 332 74 364 42 q 281 148 300 106 q 263 239 263 190 l 263 914 l 258 914 q 247 913 251 913 q 236 913 242 913 q 149 928 190 913 q 77 973 108 944 q 26 1040 46 1001 q 1 1125 6 1079 q 11 1218 -3 1174 q 53 1297 25 1263 q 123 1355 82 1332 q 213 1382 164 1378 q 263 1387 228 1385 q 349 1389 299 1389 q 869 1239 703 1389 m 760 958 q 807 978 788 958 q 826 1026 826 999 q 757 1183 826 1121 q 669 1238 719 1217 q 563 1269 618 1258 q 453 1285 508 1281 q 351 1289 397 1289 q 272 1287 304 1289 q 229 1283 239 1285 q 184 1260 201 1281 q 169 1211 167 1239 q 194 1165 172 1183 q 243 1150 215 1147 q 330 1155 281 1154 q 431 1151 379 1156 l 431 308 q 450 261 431 281 q 497 242 469 242 q 545 261 525 242 q 565 308 565 281 l 565 1131 q 623 1110 597 1122 q 665 1083 649 1099 q 692 1026 692 1058 q 712 978 692 999 q 760 958 732 958 z "},"U":{"ha":868,"x_min":6,"x_max":1031,"o":"m 661 1297 q 777 1215 713 1268 q 898 1073 842 1161 q 992 858 954 985 q 1031 556 1031 731 q 990 341 1031 442 q 880 165 950 240 q 717 47 810 90 q 518 4 624 4 q 349 36 432 4 q 233 4 297 4 q 145 22 186 4 q 73 72 104 40 q 24 144 42 103 q 6 233 6 186 l 6 1154 q 24 1243 6 1201 q 73 1316 42 1285 q 145 1365 104 1347 q 233 1383 186 1383 q 341 1357 292 1383 q 421 1286 390 1331 q 482 1316 449 1306 q 550 1326 515 1326 q 661 1297 611 1326 m 518 235 q 653 265 590 235 q 764 349 717 296 q 839 472 811 401 q 867 624 867 543 q 840 860 867 760 q 773 1033 814 961 q 681 1149 732 1104 q 582 1222 631 1194 q 533 1227 558 1235 q 493 1196 507 1219 q 488 1147 481 1172 q 519 1107 496 1121 q 736 624 736 988 q 719 524 736 571 q 672 442 701 476 q 602 387 642 407 q 518 367 563 367 q 433 387 472 367 q 364 442 393 407 q 317 524 335 476 q 300 624 300 571 l 300 1222 q 281 1269 300 1250 q 233 1288 261 1288 q 187 1269 206 1288 q 168 1222 168 1250 l 168 624 l 168 301 q 187 254 168 274 q 233 235 206 235 q 281 254 261 235 q 300 301 300 274 l 300 321 q 400 258 344 281 q 518 235 456 235 z "},"V":{"ha":863,"x_min":0,"x_max":1025,"o":"m 656 1265 q 811 1144 743 1217 q 927 981 879 1072 q 1000 782 975 890 q 1025 556 1025 674 q 985 352 1025 446 q 867 188 946 258 q 723 90 801 126 q 565 35 644 54 q 411 9 485 15 q 283 3 338 3 q 211 6 225 3 q 128 28 167 8 q 62 78 90 47 q 17 149 33 110 q 0 233 0 189 l 0 1154 q 18 1243 0 1201 q 67 1316 36 1285 q 140 1365 99 1347 q 229 1383 182 1383 q 349 1350 296 1383 q 431 1263 401 1317 q 546 1293 485 1293 q 656 1265 604 1293 m 756 374 q 861 624 861 471 q 787 965 861 817 q 578 1189 713 1114 q 528 1194 554 1201 q 489 1163 501 1186 q 483 1113 475 1139 q 514 1074 490 1088 q 674 899 617 1018 q 731 624 731 779 q 667 471 731 529 q 585 419 633 439 q 487 386 538 399 q 385 369 436 374 q 294 364 335 364 l 294 1222 q 276 1269 294 1250 q 229 1288 257 1288 q 183 1269 201 1288 q 164 1222 164 1250 l 164 301 q 181 256 164 275 q 224 236 199 238 q 283 233 232 233 q 385 238 325 233 q 510 258 444 243 q 641 300 576 272 q 756 374 706 328 z "},"W":{"ha":1182,"x_min":4,"x_max":1346,"o":"m 976 1256 q 1101 1172 1036 1222 q 1221 1040 1167 1121 q 1310 840 1275 958 q 1346 556 1346 722 q 1306 341 1346 442 q 1195 165 1265 240 q 1032 47 1125 90 q 833 4 939 4 q 675 32 751 4 q 511 5 596 4 q 347 36 426 6 q 233 4 296 4 q 144 22 186 4 q 72 72 103 40 q 22 144 40 103 q 4 233 4 186 l 4 1154 q 22 1243 4 1201 q 72 1316 40 1285 q 144 1365 103 1347 q 233 1383 186 1383 q 322 1365 281 1383 q 395 1316 364 1347 q 444 1243 426 1285 q 463 1154 463 1201 l 463 556 q 481 488 463 514 q 517 463 500 463 q 535 469 524 463 l 539 472 q 560 504 550 483 q 571 556 571 525 q 538 776 571 689 q 542 951 503 865 q 638 1057 572 1021 q 665 1165 638 1113 q 749 1252 696 1221 q 867 1283 803 1283 q 976 1256 925 1283 m 833 235 q 969 265 906 235 q 1079 349 1032 296 q 1154 472 1126 401 q 1182 624 1182 543 q 1157 848 1182 756 q 1092 1004 1132 940 q 1001 1109 1051 1068 q 897 1179 950 1150 q 848 1185 874 1193 q 808 1154 822 1178 q 803 1104 796 1131 q 835 1065 811 1078 q 913 1013 874 1043 q 982 934 951 983 q 1032 810 1013 885 q 1051 624 1051 735 q 1034 524 1051 571 q 987 442 1017 476 q 917 387 957 407 q 833 367 878 367 q 783 374 803 367 q 844 488 822 424 q 865 624 865 551 q 813 950 865 811 q 777 986 801 975 q 728 988 753 997 q 691 952 703 976 q 690 903 679 928 q 735 624 735 785 q 709 501 735 557 q 639 411 683 446 q 635 408 636 408 q 631 404 633 407 q 517 367 578 367 q 431 387 471 367 q 363 442 392 407 q 316 524 333 476 q 299 624 299 571 l 299 1222 q 280 1269 299 1250 q 233 1288 261 1288 q 187 1269 206 1288 q 168 1222 168 1250 l 168 624 l 168 301 q 187 254 168 274 q 233 235 206 235 q 280 254 261 235 q 299 301 299 274 l 299 321 q 399 258 343 281 q 517 235 454 235 q 675 278 601 235 q 833 235 750 235 z "},"X":{"ha":868,"x_min":6,"x_max":1031,"o":"m 860 1018 q 1031 557 1031 883 q 990 342 1031 443 q 880 167 950 242 q 717 49 810 92 q 518 6 624 6 q 442 18 478 6 q 375 54 406 31 q 310 18 346 31 q 233 6 274 6 q 144 24 186 6 q 72 73 103 42 q 24 146 42 104 q 6 235 6 188 l 6 557 q 160 1006 6 869 l 160 1156 q 178 1244 160 1203 q 227 1317 196 1286 q 300 1367 258 1349 q 389 1385 342 1385 q 486 1363 442 1385 q 563 1304 531 1340 q 631 1314 593 1314 q 719 1296 678 1314 q 792 1247 761 1278 q 842 1175 824 1217 q 860 1086 860 1133 l 860 1018 m 518 236 q 653 267 590 236 q 764 350 717 297 q 839 473 811 403 q 867 624 867 543 q 853 779 867 715 q 817 886 840 843 q 762 954 793 929 q 696 992 731 979 l 696 1153 q 677 1199 696 1181 q 631 1218 658 1218 q 584 1199 603 1218 q 565 1153 565 1181 l 565 1011 l 518 1011 l 454 1011 l 454 1222 q 435 1269 454 1250 q 389 1288 417 1288 q 342 1269 361 1288 q 324 1222 324 1250 l 324 985 q 262 944 290 971 q 213 876 233 918 q 180 772 192 833 q 168 624 168 710 l 168 301 q 187 255 168 274 q 233 236 206 236 q 280 255 261 236 q 299 301 299 274 l 299 624 q 357 854 299 807 q 424 877 382 874 q 518 881 467 881 q 610 877 568 881 q 678 854 653 874 q 736 624 736 808 q 719 524 736 571 q 672 442 701 476 q 602 387 642 407 q 518 367 563 367 q 471 348 490 367 q 451 301 451 329 q 471 255 451 274 q 518 236 490 236 z "},"Y":{"ha":904,"x_min":4,"x_max":1065,"o":"m 829 1385 q 921 1366 878 1385 q 996 1315 964 1347 q 1047 1239 1028 1282 q 1065 1147 1065 1196 l 1065 -69 l 1065 -72 q 1022 -198 1061 -142 q 917 -281 982 -254 q 901 -286 908 -283 q 806 -323 865 -303 q 674 -343 747 -343 q 522 -307 590 -343 q 410 -212 456 -272 q 346 -72 365 -153 q 342 -4 339 -39 q 205 79 267 26 q 99 201 143 132 q 29 353 54 271 q 4 526 4 436 q 41 823 4 700 q 134 1031 78 946 q 258 1168 190 1115 q 386 1254 325 1221 q 500 1283 440 1283 q 617 1253 565 1283 q 703 1348 646 1311 q 829 1385 760 1385 m 897 1217 q 877 1264 897 1244 q 829 1283 857 1283 q 781 1264 800 1283 q 761 1217 761 1244 l 761 597 q 743 493 761 542 q 694 408 725 444 q 623 351 664 372 q 536 331 582 331 q 447 351 489 331 q 375 408 406 372 q 326 493 344 444 q 308 597 308 542 q 328 792 308 714 q 381 922 349 869 q 453 1004 413 974 q 533 1057 493 1035 q 567 1098 560 1071 q 560 1149 574 1125 q 519 1181 547 1174 q 468 1176 492 1189 q 360 1103 414 1146 q 265 993 307 1060 q 198 831 224 926 q 172 597 172 735 q 201 441 172 514 q 279 313 229 368 q 395 227 329 258 q 536 196 461 196 q 656 219 599 196 q 761 285 714 243 l 761 56 q 706 35 736 44 q 661 33 676 26 q 650 49 654 38 q 643 67 646 60 q 614 109 638 94 q 563 117 590 124 q 520 86 535 110 q 511 35 506 63 q 550 -47 524 -19 q 599 -86 576 -75 q 674 -104 635 -104 q 762 -90 719 -104 q 835 -61 804 -75 q 844 -56 840 -58 q 854 -53 849 -54 q 886 -28 875 -46 q 897 11 897 -10 l 897 14 l 897 597 l 897 1217 z "},"Z":{"ha":868,"x_min":6,"x_max":1031,"o":"m 818 1383 q 901 1361 863 1381 q 969 1310 940 1342 q 1014 1239 997 1279 q 1031 1154 1031 1199 l 1031 868 q 1014 783 1031 824 q 968 713 997 743 q 1014 641 997 681 q 1031 556 1031 601 l 1031 233 q 1013 144 1031 186 q 963 72 994 103 q 890 22 932 40 q 801 4 849 4 q 686 36 739 4 q 518 4 606 4 q 318 47 411 4 q 156 165 225 90 q 46 341 86 240 q 6 556 6 442 q 40 698 6 635 q 125 810 74 761 q 88 877 101 840 q 74 956 74 914 q 104 1106 74 1035 q 193 1231 135 1176 q 311 1308 244 1278 q 450 1356 378 1339 q 594 1380 522 1374 q 728 1386 665 1386 q 785 1385 761 1386 q 818 1383 808 1383 m 867 1222 q 849 1266 867 1247 q 806 1288 832 1285 q 765 1290 796 1289 q 691 1290 735 1290 q 594 1283 647 1289 q 489 1265 542 1278 q 388 1232 436 1253 q 304 1178 339 1211 q 236 1024 236 1114 q 255 976 236 996 q 301 957 274 957 q 349 976 329 957 q 368 1024 368 996 q 394 1082 368 1060 q 458 1119 418 1104 q 544 1142 497 1133 q 642 1155 592 1151 q 736 1158 692 1158 l 736 986 q 629 953 694 974 q 493 903 564 932 q 248 768 326 836 q 169 624 169 700 q 197 472 169 543 q 271 349 224 401 q 382 265 318 296 q 518 235 446 235 q 636 258 581 235 q 736 321 692 281 l 736 301 q 755 254 736 274 q 801 235 774 235 q 848 254 829 235 q 867 301 867 274 l 867 624 q 848 670 867 651 q 801 689 829 689 q 755 670 774 689 q 736 624 736 651 q 719 524 736 571 q 672 442 701 476 q 602 387 642 407 q 518 367 563 367 q 433 387 472 367 q 364 442 393 407 q 317 524 335 476 q 300 624 300 571 q 331 667 304 642 q 403 717 354 688 q 542 782 451 746 q 642 819 593 803 q 731 848 692 836 q 794 866 769 860 q 818 872 818 872 q 853 895 840 878 q 867 936 867 913 l 867 1222 z "},"D":{"ha":863,"x_min":1,"x_max":1026,"o":"m 576 1065 q 732 624 732 931 q 715 524 732 571 q 668 442 697 476 q 599 387 639 407 q 514 367 560 367 q 430 387 469 367 q 360 442 390 407 q 313 524 331 476 q 296 624 296 571 l 296 1161 q 355 1157 321 1161 q 426 1142 389 1153 q 501 1114 463 1132 q 576 1065 540 1096 m 767 1222 q 1026 556 1026 1000 q 986 341 1026 442 q 876 165 946 240 q 713 47 807 90 q 514 4 619 4 q 346 36 426 4 q 231 4 293 4 q 142 22 183 4 q 69 72 100 40 q 19 144 38 103 q 1 233 1 186 l 1 1154 q 16 1235 1 1197 q 56 1303 31 1274 q 117 1353 82 1333 q 194 1381 153 1374 q 227 1385 201 1382 q 293 1388 253 1388 q 388 1382 332 1388 q 506 1358 443 1376 q 637 1308 569 1340 q 767 1222 704 1276 m 514 235 q 650 265 586 235 q 761 349 714 296 q 835 472 808 401 q 863 624 863 543 q 661 1165 863 992 q 515 1251 590 1225 q 374 1286 439 1278 q 267 1290 310 1294 q 221 1286 225 1286 q 181 1265 197 1283 q 165 1222 165 1246 l 165 624 l 165 301 q 184 254 165 274 q 231 235 203 235 q 277 254 258 235 q 296 301 296 274 l 296 321 q 396 258 340 281 q 514 235 451 235 z "},"<":{"ha":2351,"x_min":-3,"x_max":2497,"o":"m 2497 365 l 2497 197 l 2497 194 q 2482 122 2497 156 q 2442 62 2467 88 q 2383 20 2417 36 q 2313 3 2350 4 l 2310 3 q 2306 2 2307 3 q 2301 1 2304 1 q 2299 2 2300 1 q 2294 3 2297 3 l 2292 3 l 1882 3 l 1283 3 l 1185 3 l 810 3 l 31 0 q 22 1 28 0 q 11 2 18 1 q -3 4 4 3 q 47 10 7 7 q 146 17 88 14 q 273 20 204 19 q 408 19 342 21 q 502 23 458 18 q 576 35 546 28 l 576 39 l 583 44 l 583 50 l 578 50 l 590 60 l 594 64 l 601 69 l 621 50 l 614 50 l 614 44 l 617 44 l 618 46 q 639 51 629 49 q 656 57 649 54 l 656 58 l 668 67 l 668 75 l 658 75 l 679 92 l 685 97 l 693 104 l 678 104 l 710 133 l 719 142 l 729 150 q 679 219 710 197 q 610 261 649 242 q 553 293 582 275 q 496 339 524 311 q 444 410 468 367 q 406 517 421 453 q 404 514 406 515 l 404 511 q 405 510 404 510 q 406 508 406 510 q 404 506 408 506 l 408 501 q 406 499 408 496 q 404 500 406 499 l 406 500 q 407 496 406 497 q 406 493 407 493 l 406 492 l 408 489 q 409 486 410 488 q 407 486 408 485 q 410 482 407 485 l 410 481 q 408 479 410 479 l 410 479 q 410 477 410 478 q 411 475 411 476 q 410 472 411 475 q 413 465 413 467 q 410 468 411 467 q 407 471 410 469 l 407 474 l 406 474 q 404 472 406 472 l 404 474 l 403 475 q 401 478 403 475 q 400 476 401 476 l 400 481 q 399 482 400 481 q 398 481 399 481 q 397 482 397 481 l 397 486 q 396 488 396 486 q 394 486 396 486 l 394 489 l 393 489 l 393 492 q 392 490 393 490 q 392 492 392 490 l 392 496 l 392 497 q 391 495 392 496 q 390 496 390 494 q 389 494 389 496 q 388 498 389 497 q 388 501 388 499 l 388 503 q 386 507 386 504 q 385 505 386 506 q 385 506 385 504 l 385 514 l 383 513 l 383 517 q 383 515 383 515 q 382 517 382 515 l 381 517 q 382 513 381 514 q 381 511 382 511 q 379 510 379 511 q 378 513 379 513 l 378 511 l 378 507 l 376 506 l 375 504 q 376 502 375 503 q 376 500 376 501 q 375 498 376 499 q 374 499 374 497 q 375 494 374 496 q 374 493 375 493 q 372 492 372 493 l 372 488 q 371 486 372 486 q 370 482 371 483 q 369 478 369 481 q 368 485 368 479 l 367 485 l 367 488 l 365 488 l 365 489 l 365 490 l 365 493 l 364 493 q 365 497 364 496 l 365 499 q 363 500 363 499 q 364 503 364 501 l 364 506 q 363 504 364 504 q 363 506 363 504 q 364 507 364 506 l 363 507 q 364 510 363 510 l 363 510 q 363 513 363 513 q 364 515 364 514 l 365 515 l 364 515 q 361 510 361 513 q 358 508 361 508 q 356 508 356 507 q 353 503 353 506 q 351 499 353 501 q 347 495 350 496 q 344 497 343 494 q 345 499 344 499 q 346 503 346 500 q 345 501 346 501 q 344 500 344 501 q 339 493 343 497 q 333 492 339 489 q 333 490 333 490 q 332 489 332 490 q 331 484 331 486 q 329 479 331 482 q 326 477 329 478 q 322 478 322 476 l 324 479 q 319 469 322 478 q 313 468 318 468 l 311 467 l 313 467 q 310 458 310 461 q 303 457 308 457 q 297 449 300 453 q 292 442 294 446 q 294 451 293 446 q 297 460 296 456 q 294 459 294 458 q 294 461 293 460 q 299 464 296 461 l 299 465 q 296 467 296 465 q 297 468 296 468 q 297 469 297 468 l 297 471 q 300 479 300 476 q 299 479 300 479 q 304 485 300 483 l 303 485 q 306 489 306 488 q 303 492 300 489 q 306 495 304 494 q 308 497 307 496 q 310 501 310 499 q 308 503 306 501 q 313 506 310 503 q 310 508 310 506 l 314 513 l 313 513 q 316 517 314 515 q 321 521 318 518 l 322 521 q 324 522 322 521 q 319 521 321 521 q 318 524 317 521 l 315 524 q 325 535 319 526 q 326 536 325 535 q 333 543 329 540 l 331 543 q 319 531 324 538 q 311 517 314 524 q 306 514 310 514 q 304 517 303 514 q 306 518 306 517 q 301 519 300 518 q 313 536 304 525 q 285 496 292 518 q 280 492 283 493 q 278 494 276 492 q 301 532 286 517 q 294 530 299 531 q 288 526 290 529 q 280 512 282 519 q 275 496 278 504 q 273 494 275 494 q 269 494 271 493 l 269 492 q 266 490 269 490 q 263 490 263 489 q 263 501 263 496 q 264 513 263 507 l 260 504 q 256 490 257 497 q 253 475 254 482 q 251 472 253 474 l 251 465 q 247 463 250 464 q 244 465 244 463 q 246 472 244 469 l 246 482 q 244 480 244 481 q 243 478 244 479 l 243 463 q 240 460 243 460 q 236 463 236 460 l 236 464 l 236 453 q 231 450 236 450 q 226 439 229 447 l 226 435 q 224 432 226 432 q 222 426 222 431 l 222 413 q 218 410 222 410 q 217 379 215 394 q 225 350 218 364 q 213 376 218 364 q 206 400 208 389 q 201 398 204 399 q 199 400 199 397 l 199 413 l 199 414 q 199 419 199 417 q 200 424 200 421 q 198 433 199 429 q 197 443 197 438 l 194 443 q 197 463 194 451 q 199 475 197 471 q 196 471 196 472 q 186 436 189 456 q 182 434 185 435 q 179 436 179 433 q 181 447 181 442 q 185 458 182 453 q 179 450 182 456 q 178 449 179 449 q 178 447 178 449 l 178 422 q 175 420 178 421 q 171 419 172 419 l 171 394 q 169 392 171 392 q 165 393 167 392 l 165 392 q 167 378 164 386 q 164 375 167 375 q 163 363 163 371 q 167 353 164 358 q 163 350 167 350 l 163 339 q 164 335 164 336 q 165 332 164 335 q 164 329 165 331 l 164 326 q 165 322 164 324 q 164 319 165 321 q 165 315 164 317 q 165 311 165 314 q 165 310 165 311 q 168 301 165 307 q 167 299 171 299 l 167 292 q 169 290 169 292 l 169 289 q 170 288 171 289 q 168 288 169 288 q 171 271 168 279 q 172 265 172 267 q 167 273 171 267 q 156 290 163 279 q 152 288 156 289 q 149 290 149 288 l 149 297 q 144 299 146 297 q 144 301 144 300 q 143 303 143 301 q 139 304 140 303 q 138 324 138 310 l 138 321 q 134 317 138 318 q 131 319 131 317 l 131 324 q 127 323 129 322 q 125 325 125 324 l 125 351 q 119 351 119 351 q 119 363 119 358 q 121 375 119 368 q 119 378 119 376 q 117 379 117 375 l 117 397 l 117 413 q 113 414 113 413 q 114 422 113 418 q 117 431 115 426 l 117 433 q 114 433 114 431 q 117 440 115 436 q 119 446 118 443 l 119 447 l 118 449 q 119 456 119 453 q 122 463 119 460 q 128 471 125 468 l 128 472 q 131 476 128 474 q 128 478 128 476 q 136 488 133 483 q 140 492 139 490 q 144 497 142 494 q 141 498 142 497 q 142 499 140 499 q 156 513 146 511 l 157 513 q 158 513 158 513 q 160 514 158 514 q 157 517 154 514 l 165 521 l 164 521 q 160 523 161 521 q 163 526 160 525 l 164 526 q 174 532 168 531 q 185 536 179 533 q 168 531 174 533 q 164 530 167 529 q 164 533 161 531 q 176 538 171 536 q 188 540 181 539 l 189 542 q 206 547 200 547 l 208 550 q 201 549 204 549 q 194 546 197 549 q 190 545 193 544 q 190 549 188 546 q 203 553 196 553 l 201 554 q 197 553 199 554 q 192 552 196 553 q 192 553 189 551 q 206 557 197 557 q 232 563 217 563 q 238 570 235 567 q 243 576 240 574 q 242 575 242 576 q 238 574 240 574 q 235 575 235 574 q 238 578 236 578 q 242 582 239 579 q 256 596 249 589 q 271 607 263 603 q 264 606 267 607 q 262 608 261 606 q 265 610 263 610 q 276 612 271 611 q 289 614 282 613 q 296 617 292 617 l 289 617 q 286 617 286 615 q 289 619 286 618 q 300 621 292 621 q 286 624 289 624 q 288 626 285 625 q 292 626 290 628 l 294 626 q 300 629 294 629 l 308 629 l 311 629 l 314 629 l 319 629 l 317 629 q 317 633 314 631 l 304 633 q 303 635 301 633 q 307 636 306 636 l 315 636 q 314 638 315 638 l 296 638 q 294 639 292 638 q 299 640 296 640 l 307 640 l 299 644 l 294 644 q 293 646 293 644 q 275 650 282 649 q 275 651 272 650 q 279 653 278 653 q 301 647 293 650 q 297 651 299 650 q 292 654 294 651 q 267 657 279 656 q 242 658 254 658 q 240 660 239 658 q 244 663 242 663 q 254 662 250 663 q 264 661 258 661 l 265 661 q 269 664 268 664 l 276 664 l 274 664 l 271 664 q 253 667 263 667 q 236 667 244 667 q 235 668 233 667 q 239 669 238 669 q 252 670 246 669 q 265 669 258 671 q 258 672 263 672 l 229 672 q 228 674 226 672 q 232 676 231 676 l 253 676 l 228 676 q 224 678 224 676 q 228 681 225 681 l 242 681 q 240 682 240 682 q 238 683 239 682 q 232 681 235 681 q 226 681 229 681 q 221 681 224 682 q 219 681 218 679 q 222 683 219 683 q 235 683 228 685 l 226 688 q 214 685 222 688 q 210 686 211 685 q 213 688 210 688 q 219 689 215 689 q 217 690 218 690 l 215 690 l 213 690 l 210 688 q 205 686 208 686 q 204 688 201 686 q 206 690 204 689 q 186 686 192 688 q 183 685 183 685 q 181 686 182 686 l 179 686 q 176 687 176 685 q 178 690 175 689 l 199 694 l 194 694 l 192 694 q 179 693 183 694 q 176 692 176 692 q 172 689 175 692 q 167 688 171 688 q 167 690 164 689 q 170 692 169 692 q 174 694 171 693 l 171 694 q 165 690 168 692 q 158 685 161 688 q 153 685 156 683 q 153 688 150 686 q 155 689 154 689 q 157 690 156 689 q 155 690 156 690 q 153 689 154 689 l 149 681 q 144 678 147 678 q 142 679 142 678 q 144 683 143 682 q 146 686 144 683 q 140 683 140 683 q 135 678 138 681 q 131 674 133 676 q 126 672 129 672 q 125 675 124 672 q 119 668 121 671 q 116 665 119 665 q 114 667 113 665 q 117 674 114 671 q 112 672 114 672 q 107 668 110 671 q 97 654 101 663 q 92 654 94 651 q 88 653 92 653 l 88 650 q 84 647 88 647 q 81 649 81 646 q 81 651 81 650 q 82 654 82 653 l 81 653 q 75 642 79 647 q 72 640 75 640 q 69 642 68 639 q 71 644 69 643 q 68 643 69 643 q 50 621 54 632 l 58 642 q 58 643 58 643 q 57 644 57 643 q 61 650 58 647 q 64 656 63 653 q 67 661 65 658 q 63 662 64 661 q 64 664 61 663 q 72 668 68 668 q 69 669 68 668 q 74 672 71 669 q 75 674 75 672 q 74 675 72 674 l 75 675 q 78 678 78 678 q 76 679 76 678 q 82 683 76 683 q 85 688 82 685 q 81 689 79 688 q 90 696 85 696 q 93 699 93 699 q 88 698 90 697 q 88 701 85 699 q 101 710 94 708 l 101 711 q 98 710 100 710 q 97 711 96 710 q 103 715 101 715 l 103 717 q 114 725 107 722 q 124 732 119 731 l 125 733 l 122 733 q 119 733 119 732 q 121 736 118 735 q 131 738 125 738 q 136 740 133 740 q 126 739 129 740 q 123 740 122 739 q 126 742 124 742 q 143 744 138 744 q 145 745 144 744 q 147 746 146 746 l 146 746 q 144 748 143 746 q 149 750 146 750 l 168 750 q 178 751 171 751 q 175 752 176 751 q 172 753 174 753 q 171 756 169 753 q 175 758 172 758 l 192 754 q 193 751 193 751 l 196 751 q 199 751 199 751 l 201 751 l 204 751 q 208 751 207 751 q 210 750 208 750 q 213 749 211 749 q 207 751 210 751 q 208 754 204 753 q 213 754 211 756 q 225 747 219 753 l 225 746 l 228 746 q 225 747 228 746 q 226 751 222 750 q 231 751 229 753 q 239 745 235 749 q 249 739 243 742 q 251 738 250 739 q 245 742 249 740 q 239 747 242 744 q 239 751 236 749 q 244 751 242 753 q 247 749 246 750 q 250 747 249 749 q 256 747 256 747 q 265 740 261 744 q 272 729 268 735 q 278 731 275 732 q 285 724 282 728 q 293 718 289 721 q 297 715 294 718 q 304 718 297 721 q 316 710 311 715 q 325 699 321 704 q 330 696 328 697 q 335 693 332 694 q 325 700 329 699 q 325 703 322 701 q 331 703 328 704 q 341 696 338 700 q 349 688 344 692 l 353 688 q 364 672 361 681 l 367 672 q 378 663 372 671 q 383 664 382 665 q 394 653 390 660 q 399 654 399 657 q 402 651 401 653 q 404 649 403 650 q 406 654 404 653 q 408 657 406 654 q 410 660 408 657 q 414 663 410 663 l 414 665 q 418 668 414 672 q 419 672 419 671 q 421 675 419 672 l 424 675 q 424 678 424 676 q 425 681 425 679 l 426 682 q 428 689 428 685 q 432 696 429 693 l 433 696 l 438 708 q 443 711 438 711 q 446 714 443 714 l 446 715 q 442 717 443 715 q 436 715 439 717 q 433 713 435 714 q 431 710 432 713 q 426 710 429 708 q 424 713 422 711 l 425 714 q 419 713 422 713 q 415 709 417 710 q 411 706 414 708 q 406 706 410 704 q 404 708 403 708 q 390 706 396 707 q 376 701 383 704 q 389 713 382 707 q 403 725 396 718 q 404 726 403 725 q 411 732 407 728 q 408 735 408 733 q 411 736 408 736 l 415 736 q 419 739 417 736 q 419 742 417 742 l 422 742 l 424 742 q 426 743 424 742 q 422 746 424 744 q 422 747 419 747 l 428 747 l 429 747 l 431 749 l 432 750 q 431 751 431 750 q 433 751 431 751 l 436 751 q 438 753 436 753 q 443 756 440 753 l 439 756 q 434 758 436 756 q 435 760 432 760 q 439 761 436 761 q 437 762 438 761 q 439 763 436 763 q 444 761 443 763 q 451 764 447 764 q 450 767 450 765 q 458 768 453 768 q 461 767 458 768 q 464 768 463 767 l 463 768 q 458 771 460 768 q 460 774 457 774 l 472 774 l 474 772 q 476 773 475 772 q 478 774 476 774 l 474 774 q 469 776 471 774 q 471 779 468 779 l 483 779 q 482 782 478 782 l 493 782 q 496 783 493 783 l 510 783 q 513 785 510 785 q 519 783 515 783 q 521 784 521 783 q 522 785 521 785 q 526 786 522 786 q 526 785 529 786 q 528 783 526 785 q 532 786 531 786 l 533 786 q 546 794 538 792 q 560 804 549 799 q 561 801 565 804 q 553 794 554 799 q 561 797 558 797 q 560 799 560 797 l 564 803 q 569 804 565 804 q 575 806 572 806 q 581 808 578 807 q 585 806 585 808 l 588 806 l 592 810 q 597 808 597 810 q 603 809 600 808 q 608 810 606 810 q 611 808 611 813 l 624 808 q 626 807 626 808 l 638 807 q 638 804 640 807 l 647 804 q 651 801 651 804 q 647 799 650 799 l 642 799 q 646 797 644 799 l 647 799 l 658 799 q 662 796 663 799 q 658 793 661 793 l 656 793 q 658 792 656 793 q 660 792 660 792 q 661 793 660 793 q 669 792 667 793 q 667 789 669 792 l 668 789 q 671 788 669 788 q 675 786 672 788 q 679 788 676 788 q 681 785 683 788 l 685 785 q 685 783 688 785 q 681 781 682 781 q 675 782 679 782 q 678 779 678 781 q 682 776 679 778 l 686 776 q 688 776 688 776 q 686 775 688 775 l 689 772 l 690 772 l 696 772 q 697 771 699 772 q 693 769 694 769 q 696 767 693 769 l 700 767 q 699 764 701 767 l 703 760 l 707 760 q 707 757 710 760 q 714 751 711 753 q 715 750 714 750 q 728 738 722 743 q 742 726 735 732 q 728 731 735 729 q 713 735 721 732 l 714 735 q 711 732 714 733 q 707 732 708 731 q 703 735 704 733 q 700 738 703 736 q 693 739 697 739 l 694 738 q 692 735 694 736 q 688 736 689 733 q 685 739 686 738 q 682 742 685 740 q 676 743 678 742 q 671 740 674 740 l 663 744 q 661 742 664 743 q 656 743 658 740 q 650 747 653 746 l 643 747 l 646 747 q 646 744 649 746 q 640 743 643 743 q 634 745 638 744 q 628 749 631 746 q 625 749 626 749 q 622 750 624 750 l 621 750 l 619 750 l 621 750 q 618 747 621 749 q 614 747 615 746 q 607 750 611 750 q 613 743 610 749 q 619 742 615 746 q 626 731 624 739 q 629 729 628 731 q 635 719 632 725 q 637 722 633 722 q 642 719 640 721 q 643 717 642 718 q 647 715 647 721 q 653 707 650 713 q 654 706 653 706 q 658 701 658 703 q 664 699 661 701 q 665 696 664 697 q 665 693 665 694 q 668 692 667 693 q 672 685 669 690 q 678 683 674 686 q 679 681 678 683 q 686 678 683 681 q 688 672 688 675 q 689 665 688 668 l 690 664 q 696 650 693 658 l 697 649 q 699 643 699 647 l 701 643 q 703 640 701 642 l 703 643 q 706 645 704 646 q 707 642 707 644 q 713 657 710 653 q 713 658 713 658 q 714 654 714 657 q 719 671 717 665 q 721 672 719 674 q 722 669 722 671 q 726 679 725 675 q 728 678 728 681 q 728 672 729 675 l 728 674 q 733 690 731 679 q 735 692 735 693 q 736 688 736 690 l 740 696 q 743 697 742 697 q 750 710 749 706 q 751 707 751 710 q 754 703 754 710 l 756 704 q 756 706 754 704 q 760 715 756 711 l 761 715 q 763 717 763 717 q 764 719 763 718 q 767 718 767 719 q 768 720 768 719 q 769 722 768 721 q 770 724 769 725 q 771 721 771 722 q 774 724 771 721 q 778 731 775 725 q 782 728 779 733 q 785 732 782 729 l 785 731 l 785 732 q 787 735 786 733 q 789 738 788 736 q 790 738 789 739 q 790 736 790 738 q 793 738 792 738 q 796 742 794 739 l 799 742 l 801 744 q 803 742 801 744 l 804 742 q 805 744 804 743 q 806 747 806 744 q 808 744 807 749 q 815 749 811 747 q 824 754 819 751 q 818 747 821 750 q 813 739 815 743 l 813 733 q 808 731 810 731 q 804 728 807 731 l 803 726 q 804 724 804 726 q 803 719 804 721 q 799 717 801 718 q 794 714 797 717 l 796 714 q 798 712 797 715 q 797 708 799 708 q 789 703 794 706 q 788 700 788 701 l 788 694 q 784 692 785 693 q 781 688 783 690 l 779 686 q 783 689 781 686 q 786 687 786 690 q 785 682 786 683 q 780 678 782 679 q 775 675 778 678 q 778 673 778 676 q 776 669 778 669 q 769 664 774 668 q 768 658 768 663 q 767 653 768 654 l 768 653 q 769 654 769 653 q 775 654 771 656 q 794 671 785 665 q 800 668 800 671 q 810 678 806 674 q 821 686 815 683 q 828 682 828 689 q 829 683 828 683 q 835 692 832 688 q 842 699 838 696 q 845 699 844 701 q 843 694 846 697 l 839 690 l 842 693 q 844 695 843 694 q 847 699 846 696 l 849 699 q 852 700 850 700 q 853 697 854 700 q 854 696 853 697 q 871 714 861 708 q 876 714 872 715 q 883 718 878 715 q 889 717 886 719 q 889 713 892 715 q 879 707 882 710 l 879 706 l 896 718 q 901 717 899 719 q 901 713 904 715 l 900 713 q 901 711 901 713 q 903 713 901 713 l 903 714 q 915 721 908 719 q 920 719 917 721 q 921 717 924 718 q 917 715 918 717 q 920 717 919 717 q 924 718 921 717 q 926 717 924 718 q 928 718 926 718 q 931 717 931 718 l 932 718 l 933 718 q 936 719 933 718 q 954 724 947 722 q 958 721 957 724 q 956 718 960 718 q 951 717 954 717 q 956 715 954 717 l 981 715 q 985 713 983 715 q 982 710 986 710 q 985 708 985 710 q 994 708 989 708 q 1003 707 999 708 q 1006 703 1006 706 q 1003 703 1007 701 q 993 704 1000 704 q 997 701 994 704 q 1008 700 1004 701 q 1010 697 1011 699 q 1007 697 1010 696 l 1004 697 l 1006 696 q 1015 689 1011 693 q 1026 681 1022 686 q 1026 679 1028 679 q 1033 674 1029 678 q 1026 674 1033 674 l 1028 674 q 1042 664 1033 672 q 1042 660 1044 661 q 1036 661 1039 660 q 1038 660 1038 661 q 1039 660 1038 660 q 1049 653 1044 657 q 1044 650 1051 646 q 1046 648 1046 649 q 1047 646 1046 647 q 1053 642 1051 643 q 1051 640 1053 640 l 1054 638 q 1054 635 1057 635 l 1054 633 q 1056 633 1056 633 q 1058 632 1057 632 q 1060 629 1060 631 q 1065 626 1063 629 q 1063 622 1069 622 q 1065 617 1064 619 q 1068 611 1067 614 q 1072 606 1071 608 q 1069 603 1072 603 q 1074 592 1072 597 q 1079 581 1076 586 q 1061 604 1075 593 q 1058 606 1060 604 q 1060 603 1058 604 q 1057 601 1061 600 q 1053 603 1053 601 q 1047 615 1050 607 l 1047 610 q 1044 608 1049 607 q 1040 611 1040 610 l 1040 614 q 1038 615 1039 614 q 1036 615 1038 615 q 1031 617 1032 615 q 1026 624 1028 619 q 1021 631 1024 628 l 1019 631 l 1017 633 q 1015 634 1015 633 q 1014 635 1015 635 l 1013 635 q 1015 629 1013 632 q 1012 627 1015 626 q 1007 631 1008 628 q 1003 638 1007 633 q 1001 635 1004 635 q 996 638 999 635 q 994 640 996 638 l 993 640 q 989 644 990 643 q 985 647 988 644 l 983 647 q 986 642 983 647 q 983 641 988 640 q 979 644 979 642 q 976 650 976 647 l 975 650 q 972 647 975 647 q 969 649 972 647 q 967 651 968 650 q 964 653 965 651 q 961 654 963 653 q 960 653 961 653 q 957 649 960 649 q 951 651 951 651 q 947 650 951 647 l 946 650 q 942 649 946 649 q 922 654 936 651 l 922 653 q 923 650 925 650 q 918 651 921 650 l 917 650 q 914 650 917 650 q 899 651 908 651 q 892 649 897 651 l 904 649 l 907 646 l 908 646 l 908 643 q 915 639 911 640 q 922 635 919 638 q 932 632 926 635 l 933 632 q 943 628 938 631 q 944 626 946 628 q 942 622 943 624 q 959 608 950 615 q 978 590 968 601 q 929 615 960 608 q 925 613 926 611 q 919 615 922 614 q 914 617 917 615 l 908 617 q 906 615 908 617 q 903 617 904 617 q 901 618 903 617 l 892 618 q 888 613 892 613 q 883 614 885 614 q 879 615 882 614 q 879 612 881 614 q 876 610 878 610 l 864 614 l 864 615 q 862 615 863 615 q 860 614 861 614 q 868 611 863 614 q 875 610 872 611 q 875 607 876 610 q 871 604 874 604 q 865 606 869 606 l 864 606 q 835 610 849 610 q 832 609 833 610 q 829 608 831 608 q 838 606 833 607 q 847 603 843 606 q 847 600 849 603 q 843 597 846 597 l 842 597 q 838 593 842 593 q 814 594 824 596 l 824 594 q 829 592 826 594 l 832 592 q 835 592 832 592 l 838 592 q 840 589 840 592 q 836 586 839 586 l 832 586 q 836 585 833 585 q 838 581 839 583 q 835 581 838 579 q 833 581 833 581 q 831 582 832 582 q 836 579 831 582 q 847 576 842 578 q 858 575 851 575 q 863 572 861 575 q 861 569 865 569 q 857 570 858 569 q 854 571 856 571 q 869 560 863 567 q 882 546 875 553 q 883 544 883 546 q 889 538 888 540 q 887 536 890 535 q 882 539 883 538 q 887 533 885 536 q 892 525 889 529 q 918 519 907 525 q 932 515 925 519 q 932 513 935 513 q 928 514 929 514 q 922 517 925 517 l 922 515 q 935 510 931 513 q 935 506 938 507 q 929 507 932 506 q 917 511 922 511 q 918 510 918 511 q 919 510 918 510 q 936 503 925 508 l 938 501 q 949 499 943 500 q 960 494 954 497 q 960 490 963 492 q 956 492 958 489 q 949 495 953 494 q 942 497 944 496 q 952 493 947 494 q 961 488 957 492 q 963 486 963 488 q 961 482 967 482 l 960 482 q 963 480 963 481 q 967 478 964 479 q 965 474 971 474 l 967 474 q 968 472 967 474 l 1018 508 l 1185 388 l 1185 653 l 1269 676 l 1269 950 l 1354 981 l 1354 1136 l 1376 1143 l 1376 1196 l 1404 1207 l 1404 1268 l 1303 1268 l 1303 1332 l 1404 1332 l 1404 1339 l 1415 1339 l 1415 1210 l 1436 1218 l 1497 1196 l 1497 1181 l 1536 1193 l 1717 1136 l 1717 981 l 1801 950 l 1801 676 l 1882 654 l 1882 888 l 1924 903 l 1924 993 l 2008 1024 l 2008 1179 l 2029 1186 l 2029 1239 l 2042 1243 l 2042 1299 l 2085 1314 l 2085 1363 q 2076 1374 2076 1365 q 2090 1388 2076 1388 q 2103 1374 2103 1388 q 2096 1363 2103 1365 l 2096 1314 l 2139 1299 l 2139 1243 l 2151 1239 l 2151 1224 l 2189 1236 l 2371 1179 l 2371 1024 l 2456 993 l 2456 903 l 2496 888 l 2497 365 m 818 603 q 821 600 818 603 l 835 600 q 830 601 832 601 q 825 603 828 601 l 818 603 m 633 804 l 628 804 q 632 803 629 803 q 633 804 632 803 m 258 735 l 260 735 l 258 735 m 174 526 q 175 527 175 526 q 176 528 175 528 q 171 526 172 528 l 174 526 m 179 531 q 181 532 181 532 q 183 533 182 532 q 179 532 181 532 q 175 531 178 532 l 176 531 l 179 531 m 194 540 l 193 540 q 194 542 194 540 l 194 540 m 215 554 q 222 557 221 557 l 219 557 q 215 556 218 556 q 213 555 214 556 q 210 554 211 554 l 215 554 m 257 592 q 272 604 263 600 q 257 592 263 600 m 269 499 q 274 511 272 506 q 279 524 276 517 q 272 521 274 521 q 270 510 271 515 q 269 499 269 506 m 314 622 q 318 624 317 622 q 313 625 315 625 q 308 626 311 625 l 296 626 q 314 622 303 625 m 325 625 q 329 626 328 625 q 332 626 331 626 l 329 626 l 322 626 q 325 625 324 625 m 383 518 l 383 519 l 383 518 m 389 501 l 389 503 l 389 501 m 450 713 q 447 708 447 710 q 446 703 447 706 l 450 707 l 450 713 m 451 717 l 450 715 l 451 715 l 451 717 m 675 672 q 672 681 675 675 l 672 676 q 675 672 675 674 m 664 547 l 665 547 l 665 549 l 664 547 m 615 738 q 617 736 615 736 l 615 738 m 603 749 q 601 747 603 749 q 606 744 603 747 q 604 747 604 746 q 603 749 604 747 m 601 751 q 600 750 600 751 l 601 750 l 601 751 m 568 703 l 569 703 l 567 703 l 568 703 m 546 792 q 544 790 544 790 q 542 789 543 790 q 546 792 544 792 m 492 778 l 489 778 l 488 778 l 492 778 m 479 649 q 477 645 478 646 q 475 642 476 644 q 480 642 478 642 q 485 643 482 643 q 485 640 488 643 q 494 642 489 642 q 503 644 499 643 q 507 642 507 644 q 518 644 513 644 q 520 642 521 644 q 517 639 519 639 l 536 639 q 533 636 536 639 l 553 636 q 554 634 556 636 q 550 632 553 632 l 544 632 l 547 632 l 549 632 l 563 632 q 563 629 565 631 q 558 629 560 628 l 557 629 q 560 628 557 628 l 578 628 q 579 626 581 628 q 575 625 578 625 q 581 624 578 624 q 586 622 583 624 q 588 621 588 622 l 589 621 q 596 618 592 619 q 604 617 600 617 q 605 616 606 617 q 601 615 604 615 q 603 614 603 615 q 614 611 606 614 q 617 614 611 614 q 626 612 621 613 q 635 608 631 611 q 636 611 632 611 l 644 611 q 643 614 643 613 q 640 617 643 615 l 640 618 q 635 619 639 619 q 632 624 632 619 q 628 627 628 625 q 633 628 629 629 l 635 628 l 633 629 q 631 631 632 631 q 629 632 631 631 q 625 634 626 632 q 628 635 624 636 q 630 634 629 635 q 632 633 631 633 l 631 635 l 629 636 q 622 640 628 638 q 622 643 617 643 q 621 644 621 643 q 619 647 617 646 q 624 646 621 647 q 621 649 621 649 q 615 651 618 651 q 613 655 613 653 q 615 657 613 657 q 608 660 610 660 q 606 661 607 660 l 606 663 l 597 667 q 594 668 594 667 q 596 671 593 669 q 599 675 592 675 q 586 682 594 676 q 585 685 583 683 q 589 686 586 688 q 588 688 589 686 l 579 688 q 574 690 576 688 q 574 692 571 692 l 576 692 q 575 696 571 692 l 572 696 q 570 697 571 696 q 568 697 569 697 l 567 697 l 565 697 l 563 700 q 561 701 561 700 q 563 701 561 701 q 564 703 563 701 l 560 703 q 555 705 557 703 q 556 707 553 707 q 553 708 554 708 q 548 711 550 708 q 550 714 546 714 l 551 714 q 549 715 549 714 l 542 715 l 539 715 l 533 715 l 532 715 q 535 714 535 715 q 533 711 536 713 q 521 704 525 706 l 522 704 q 525 700 525 704 q 526 698 526 700 q 524 696 526 696 q 519 694 521 694 q 515 693 518 694 q 513 690 515 690 q 509 689 510 689 q 506 688 508 689 l 506 686 q 508 685 508 686 q 506 682 508 683 q 503 681 504 681 q 500 679 501 681 q 497 676 497 679 q 501 677 500 678 q 500 675 503 676 q 499 674 500 674 q 497 671 503 674 q 490 667 496 669 q 490 665 492 667 q 489 664 489 665 q 490 665 490 664 q 492 665 490 665 q 494 665 494 667 q 492 663 494 664 q 486 660 492 663 l 486 658 l 488 658 q 491 658 490 660 q 489 654 492 656 q 485 651 489 651 q 483 651 483 651 q 481 650 482 650 q 479 649 481 649 m 600 610 q 599 611 600 610 l 597 611 q 599 610 599 611 q 600 610 599 610 m 590 615 q 588 617 589 617 q 585 618 586 617 l 583 618 q 589 615 589 615 l 590 615 m 568 625 l 569 624 l 569 625 l 568 625 m 529 636 l 526 636 l 529 636 m 519 581 q 518 581 518 581 q 517 582 518 582 q 514 581 515 581 l 517 581 l 518 581 l 519 581 m 513 581 l 511 581 q 510 582 510 582 q 513 581 513 581 m 471 578 l 474 575 q 472 574 474 574 q 475 569 475 571 q 474 568 476 568 q 476 563 476 565 q 478 558 476 560 q 480 560 479 560 q 482 561 481 560 q 478 564 479 563 q 481 565 478 565 q 490 567 483 567 q 494 569 493 569 q 492 572 489 572 l 499 572 q 499 576 496 575 q 501 577 500 576 q 504 578 501 578 q 503 579 503 578 l 504 579 q 500 582 501 582 l 492 582 q 494 581 493 582 q 494 576 497 578 q 490 576 492 575 q 479 581 483 581 l 476 579 l 471 578 m 457 551 q 456 553 456 553 l 457 551 m 454 551 q 456 547 456 549 q 457 542 456 544 l 460 542 l 460 543 q 458 546 456 543 q 456 546 457 544 q 456 549 454 547 q 457 551 456 549 q 454 551 457 551 m 693 278 q 677 383 679 328 q 694 501 675 439 l 690 501 l 694 506 q 693 505 693 506 q 692 504 693 504 q 689 496 689 499 q 685 492 689 493 q 682 494 682 492 q 676 493 682 493 q 674 492 675 492 q 672 490 674 492 q 669 482 669 485 q 666 480 669 481 q 663 482 663 479 q 658 471 660 474 q 655 467 658 468 q 651 469 651 467 q 653 472 653 471 q 654 475 653 474 q 651 474 653 474 l 647 465 q 642 464 646 464 q 641 463 642 463 q 640 461 640 463 q 638 451 638 456 q 633 449 636 450 q 631 451 631 449 q 628 447 628 449 q 626 442 629 444 q 621 440 626 440 q 619 439 621 440 l 621 439 q 618 435 618 436 q 617 431 618 433 q 611 429 617 429 q 606 422 608 425 q 600 414 603 418 q 602 423 601 418 q 604 432 603 428 q 603 433 600 432 q 605 435 604 435 q 607 436 606 435 l 607 438 q 604 439 603 438 q 606 442 604 440 q 604 442 604 442 q 606 443 604 443 q 608 451 606 446 l 606 451 l 611 457 q 614 461 611 458 q 610 464 607 461 l 617 471 q 618 474 617 471 q 615 475 614 474 q 617 476 617 476 q 619 478 618 476 q 618 481 615 478 q 619 483 619 482 q 621 485 619 483 q 629 493 622 489 l 631 493 l 631 494 q 627 493 629 493 q 625 496 625 493 l 624 496 q 628 501 626 499 q 633 507 631 504 l 633 510 q 640 517 638 513 q 637 515 639 515 q 638 518 635 515 q 644 522 640 521 q 651 526 649 524 q 653 528 651 526 q 648 526 651 526 q 647 528 644 526 q 656 533 650 531 q 653 538 649 533 q 658 540 656 539 q 664 544 661 542 l 660 544 q 656 546 657 544 q 651 549 651 546 q 640 548 644 549 q 629 544 635 547 q 624 544 626 542 q 624 549 621 546 q 626 550 625 549 l 619 550 q 617 548 618 549 q 614 546 615 547 q 608 545 611 543 q 607 549 604 547 l 606 549 q 601 550 603 549 q 594 548 597 549 q 586 546 590 547 q 581 547 585 546 q 581 550 578 549 q 585 551 583 550 l 582 551 q 575 544 576 549 q 569 544 574 543 q 568 547 565 546 l 568 549 q 561 550 565 546 l 556 550 q 547 544 550 547 q 542 544 546 543 q 540 549 539 546 q 535 544 538 546 q 531 540 533 543 q 524 541 528 539 q 524 544 521 543 q 526 546 525 546 q 528 547 526 546 l 525 547 q 515 543 519 544 q 510 544 513 540 l 507 544 q 499 538 503 542 q 493 538 496 536 q 492 540 490 539 q 487 538 489 540 q 482 535 485 536 l 481 535 q 482 533 481 533 l 481 533 q 478 535 481 532 l 478 533 l 479 533 q 480 531 479 532 q 481 528 481 531 l 479 528 l 481 526 l 479 525 l 479 524 q 480 522 481 522 q 478 524 479 522 l 478 521 q 479 518 479 521 q 478 517 479 517 l 478 515 l 476 515 q 478 513 478 514 q 476 513 478 511 l 476 508 l 476 506 q 475 507 476 506 l 475 506 l 475 504 q 474 504 475 503 q 473 500 474 501 q 472 496 472 499 q 472 500 472 499 q 471 504 471 501 l 469 506 l 469 510 l 469 511 l 468 513 l 468 518 l 468 517 l 467 518 q 465 519 465 518 q 467 524 467 521 l 467 525 l 465 526 l 465 529 l 464 529 q 463 528 464 528 q 463 531 463 529 q 460 531 461 531 q 458 532 460 532 q 492 440 472 476 q 534 379 511 403 q 583 340 557 356 q 635 311 608 325 q 665 295 650 303 q 693 278 679 288 m 660 536 l 658 535 q 660 536 660 536 m 638 506 l 636 504 l 638 506 m 722 664 l 722 665 l 722 664 m 849 483 q 843 486 849 483 q 851 464 849 476 q 851 474 851 469 q 849 483 850 478 m 815 590 q 810 590 813 590 q 806 589 808 589 q 808 588 807 588 q 813 589 811 589 q 818 590 815 589 l 824 590 l 815 590 m 797 665 q 794 663 796 664 q 792 661 793 663 q 797 664 794 664 l 797 665 m 769 500 l 769 499 l 769 500 m 746 696 l 746 694 l 746 696 m 885 413 l 885 422 q 881 421 883 419 q 878 425 878 422 l 878 439 l 879 439 q 878 441 878 440 q 876 443 878 442 l 876 433 q 878 425 878 431 q 874 424 878 424 q 871 428 871 425 q 870 431 871 429 q 869 433 869 432 l 869 435 l 869 436 q 867 451 868 443 q 863 468 865 460 q 860 471 861 469 q 858 474 860 472 q 860 463 860 468 q 860 451 860 457 q 856 451 860 450 q 851 454 851 451 l 851 456 q 846 458 849 456 q 841 475 843 467 q 835 490 839 483 q 828 493 832 492 q 821 496 824 494 q 844 458 836 478 q 842 455 846 456 q 838 457 838 454 q 826 479 833 469 q 811 497 819 489 q 816 490 814 494 q 821 483 818 486 q 817 481 822 481 l 817 479 q 815 477 819 476 q 810 479 811 478 q 802 494 807 486 q 790 508 797 503 q 785 510 788 510 q 779 513 782 511 q 790 502 785 507 q 800 490 794 497 q 797 488 801 488 q 793 490 793 489 q 775 510 786 501 q 774 510 775 508 l 774 511 l 774 503 q 778 499 776 500 q 781 494 779 497 q 778 494 782 493 q 774 496 775 494 q 773 497 774 497 q 772 499 772 497 q 771 492 771 496 q 769 493 771 492 q 769 492 769 492 q 768 494 768 493 l 768 493 l 768 488 l 767 488 l 767 486 q 766 485 767 485 q 765 486 765 485 l 765 483 q 764 483 765 483 l 764 482 q 763 478 764 479 q 762 477 763 476 q 761 479 761 478 q 760 476 761 478 l 760 474 q 758 474 760 474 q 757 471 758 472 q 756 469 757 469 q 756 468 756 469 q 754 469 756 468 l 754 467 q 753 467 754 467 q 749 460 751 465 q 749 465 749 463 q 750 468 750 467 q 750 471 750 471 q 751 473 750 472 q 751 475 751 474 l 750 478 q 753 482 753 481 q 751 482 751 481 q 751 485 750 483 q 754 488 751 485 l 754 489 q 753 492 753 490 q 753 494 753 493 q 754 496 754 494 l 754 497 q 753 496 754 496 q 753 494 753 496 l 751 494 q 733 382 731 436 q 751 279 736 328 l 751 315 l 885 413 m 914 517 q 912 517 913 517 q 908 518 911 518 l 906 518 q 903 519 906 518 l 901 519 q 907 517 907 517 l 908 517 l 914 517 m 944 492 q 946 492 944 493 q 944 493 944 493 q 942 494 943 493 l 944 492 m 951 488 q 950 488 950 488 q 949 489 950 489 l 950 488 l 951 488 m 1404 1288 l 1310 1288 l 1310 1275 l 1404 1275 l 1404 1288 m 1404 1310 l 1310 1310 l 1310 1292 l 1404 1292 l 1404 1310 m 1404 1325 l 1310 1325 l 1310 1313 l 1404 1313 l 1404 1325 z "},">":{"ha":2638,"x_min":7,"x_max":2640,"o":"m 1531 617 l 1556 617 l 1556 610 l 1524 610 l 1524 653 l 1554 653 l 1554 647 l 1531 647 l 1531 635 l 1554 635 l 1554 629 l 1531 629 l 1531 617 m 1533 561 l 1554 561 l 1554 557 l 1554 554 l 1526 554 l 1526 557 l 1526 597 l 1533 597 l 1533 561 m 1529 763 l 1522 763 l 1522 803 l 1522 806 l 1529 806 l 1529 803 l 1529 788 l 1550 788 l 1550 803 l 1550 806 l 1557 806 l 1557 803 l 1557 763 l 1550 763 l 1550 782 l 1529 782 l 1529 763 m 1556 753 q 1558 749 1557 750 q 1560 746 1558 749 q 1560 741 1560 743 q 1561 736 1561 739 q 1560 731 1561 733 q 1560 726 1560 729 q 1558 723 1558 724 q 1556 719 1557 722 q 1552 717 1553 718 q 1549 715 1551 717 q 1540 714 1546 714 q 1531 715 1533 714 q 1528 717 1529 717 q 1525 719 1526 718 q 1521 726 1521 724 q 1518 736 1518 732 q 1519 740 1518 739 q 1519 744 1519 742 l 1524 753 q 1531 757 1525 754 q 1540 760 1536 760 q 1549 757 1543 760 q 1552 755 1551 756 q 1556 753 1553 754 m 1553 729 q 1553 733 1553 732 q 1554 736 1554 733 q 1553 740 1554 739 q 1553 743 1553 740 q 1550 749 1553 743 q 1548 750 1549 750 q 1546 751 1547 750 q 1540 753 1544 753 q 1533 751 1536 753 q 1531 750 1532 750 q 1529 749 1531 750 q 1526 743 1526 743 q 1526 740 1526 740 q 1525 736 1525 739 q 1526 733 1525 733 q 1526 729 1526 732 q 1528 727 1528 728 q 1529 725 1528 726 l 1533 721 q 1537 720 1536 721 q 1540 719 1538 719 q 1543 720 1542 719 q 1546 721 1544 721 l 1550 725 q 1551 727 1551 726 q 1553 729 1551 728 m 1522 704 l 1557 704 l 1557 699 l 1543 699 l 1543 661 l 1536 661 l 1536 699 l 1522 699 l 1522 704 m 1124 1217 q 1119 1233 1121 1225 q 1118 1251 1118 1242 q 1147 1324 1118 1293 q 1217 1357 1175 1354 l 1217 1363 q 1210 1374 1210 1367 q 1225 1389 1210 1389 q 1240 1374 1240 1389 q 1233 1363 1240 1367 l 1233 1357 q 1288 1338 1264 1354 q 1322 1294 1311 1321 l 1315 1289 l 1281 1315 l 1293 1274 l 1257 1249 l 1285 1249 q 1258 1233 1274 1242 q 1226 1218 1243 1225 q 1191 1206 1208 1211 q 1161 1200 1174 1200 q 1132 1208 1144 1200 l 1124 1217 m 1142 1179 q 1108 1199 1121 1181 q 1095 1228 1099 1211 q 1092 1260 1092 1244 q 1101 1232 1094 1247 q 1125 1203 1108 1217 q 1158 1193 1136 1193 q 1217 1207 1186 1193 q 1271 1233 1249 1221 q 1153 1178 1196 1178 q 1142 1179 1144 1178 m 1314 1282 l 1324 1289 l 1338 1299 l 1329 1272 l 1328 1271 l 1329 1271 l 1351 1253 l 1331 1254 l 1322 1254 l 1313 1226 l 1304 1254 l 1301 1254 l 1299 1254 l 1275 1256 l 1299 1271 l 1290 1300 l 1314 1282 m 2129 18 q 2221 20 2169 19 q 2327 21 2272 21 q 2435 21 2382 21 q 2533 20 2489 21 q 2606 19 2576 19 q 2640 17 2635 18 q 2628 15 2633 15 q 2619 15 2624 15 q 2611 14 2614 15 l 1993 6 q 1979 1 1986 1 q 1968 4 1976 1 l 1943 4 q 1933 1 1938 1 q 1932 3 1932 1 l 1932 1 l 1768 1 l 1542 1 l 1454 1 l 915 1 l 364 1 l 289 1 l 200 1 l 190 1 l 183 1 l 176 1 q 110 17 140 3 q 57 56 79 32 q 22 110 35 79 q 8 178 8 142 l 8 424 q 8 426 8 425 q 7 428 7 426 l 7 572 l 7 583 l 40 590 l 40 656 l 40 707 l 71 717 l 71 747 l 82 751 l 82 763 l 101 763 l 101 758 l 114 763 l 158 747 l 158 743 l 158 853 l 213 850 l 239 826 l 239 856 l 249 860 l 249 910 l 260 914 l 260 925 l 279 925 l 279 921 l 293 925 l 338 910 l 338 860 l 347 856 l 347 713 l 358 710 l 364 708 l 364 797 l 400 811 l 400 892 l 476 919 l 476 1060 l 640 1110 l 675 1099 l 675 1113 l 685 1117 l 685 1167 l 724 1181 l 724 1319 q 717 1329 717 1322 q 729 1342 717 1342 q 740 1329 740 1342 q 733 1319 740 1322 l 733 1181 l 774 1167 l 774 1117 l 783 1113 l 783 1065 l 803 1060 l 803 919 l 879 892 l 879 811 l 915 797 l 915 588 l 988 607 l 988 854 l 1064 881 l 1064 1021 l 1172 1054 l 1172 1083 l 1217 1100 l 1217 1144 q 1182 1153 1197 1146 q 1153 1172 1167 1161 l 1156 1172 q 1194 1182 1168 1172 q 1243 1207 1214 1189 q 1301 1246 1274 1224 l 1314 1206 l 1328 1247 l 1332 1247 q 1301 1177 1329 1207 q 1233 1144 1274 1147 l 1233 1101 l 1282 1083 l 1282 1054 l 1390 1021 l 1390 881 l 1467 854 l 1467 785 l 1489 785 l 1489 828 l 1590 828 l 1590 532 l 1489 532 l 1489 583 l 1467 583 l 1467 532 l 1542 486 l 1542 347 l 1693 457 l 1738 425 l 1739 425 q 1740 426 1739 425 q 1739 428 1736 426 q 1744 432 1740 432 l 1743 432 q 1740 434 1740 432 q 1743 438 1740 436 q 1761 446 1750 443 q 1749 442 1754 446 q 1744 440 1746 439 q 1744 444 1742 442 q 1765 450 1758 450 q 1767 451 1765 451 q 1782 457 1771 454 q 1783 458 1782 458 q 1772 456 1776 458 q 1767 455 1769 454 q 1768 458 1765 456 q 1779 463 1772 463 q 1778 464 1778 463 q 1776 463 1776 464 q 1774 463 1775 463 q 1769 460 1772 461 q 1769 463 1767 460 q 1776 465 1772 465 q 1782 467 1779 465 q 1794 470 1789 469 q 1807 472 1800 471 q 1810 478 1810 475 q 1814 483 1811 481 q 1810 481 1814 482 q 1808 483 1807 481 q 1810 486 1810 485 q 1814 489 1811 488 l 1814 490 q 1827 503 1821 497 q 1840 513 1833 510 q 1833 511 1836 513 q 1832 513 1831 511 q 1836 517 1833 515 q 1857 519 1843 517 q 1861 522 1860 522 l 1857 522 q 1854 522 1854 521 q 1857 525 1854 524 q 1860 526 1858 525 l 1856 526 q 1853 529 1854 526 q 1854 532 1851 532 l 1857 532 l 1860 532 l 1863 532 l 1865 532 q 1867 533 1867 532 l 1875 533 q 1865 534 1869 535 q 1854 533 1860 533 q 1851 538 1851 533 l 1850 536 q 1846 539 1847 536 q 1846 542 1844 542 q 1854 544 1850 543 q 1863 546 1858 546 q 1857 547 1861 547 q 1844 547 1850 547 q 1831 544 1838 546 l 1829 544 q 1827 544 1828 544 q 1825 543 1826 543 q 1821 545 1822 543 q 1821 549 1819 547 q 1826 550 1825 549 q 1831 551 1829 550 q 1835 551 1832 551 q 1833 552 1833 551 q 1831 553 1832 553 l 1831 551 q 1826 550 1828 550 q 1821 549 1824 550 q 1817 549 1818 547 q 1817 553 1815 551 q 1814 551 1815 551 q 1810 550 1813 551 q 1807 551 1808 550 q 1807 554 1806 553 l 1797 554 q 1793 553 1794 554 q 1790 554 1793 553 l 1786 554 q 1775 550 1783 553 q 1772 551 1775 550 q 1729 531 1746 547 q 1746 546 1738 539 q 1761 560 1754 553 q 1758 562 1760 560 q 1760 564 1757 564 l 1768 568 l 1769 568 q 1778 571 1772 568 q 1785 574 1782 574 q 1792 578 1789 575 q 1790 578 1790 578 q 1792 579 1790 579 q 1796 582 1792 582 q 1806 583 1799 583 q 1800 586 1803 583 q 1792 585 1796 585 q 1786 583 1789 585 q 1783 585 1783 583 l 1782 585 q 1778 583 1781 583 q 1778 586 1776 583 l 1779 588 q 1761 583 1772 586 q 1758 583 1760 582 l 1757 583 l 1756 583 q 1753 585 1753 583 q 1751 584 1751 585 q 1749 583 1750 583 q 1746 583 1747 582 q 1744 586 1744 585 q 1743 588 1743 586 l 1742 586 q 1736 582 1739 585 l 1733 582 q 1731 583 1731 582 q 1728 578 1731 583 q 1724 576 1726 576 q 1721 576 1721 575 q 1724 582 1721 576 l 1722 581 q 1715 575 1719 579 l 1714 575 q 1713 572 1714 574 q 1706 572 1706 568 q 1701 567 1703 569 q 1698 563 1701 564 q 1696 565 1694 563 q 1697 567 1696 567 q 1697 569 1697 568 l 1697 571 q 1693 569 1696 569 q 1692 568 1693 568 q 1692 567 1692 568 l 1690 567 l 1682 554 q 1676 553 1678 550 q 1674 551 1675 553 q 1672 549 1672 551 q 1669 547 1672 547 q 1665 547 1665 546 q 1667 553 1667 550 q 1661 542 1665 547 q 1658 540 1661 540 q 1656 542 1654 539 l 1656 543 l 1654 543 q 1638 522 1642 532 q 1646 542 1640 528 q 1644 544 1642 542 q 1647 549 1644 546 l 1647 550 q 1653 558 1650 553 q 1650 563 1646 558 q 1656 565 1653 565 q 1656 567 1654 565 q 1658 568 1657 568 q 1660 569 1658 568 l 1661 571 q 1660 572 1657 571 l 1663 575 q 1661 576 1661 575 q 1663 579 1663 579 q 1665 581 1664 579 l 1667 581 q 1667 582 1667 582 q 1668 583 1668 582 q 1665 586 1664 583 q 1675 592 1671 592 l 1675 594 q 1671 593 1674 593 q 1671 596 1668 593 q 1683 604 1676 601 l 1685 606 q 1680 604 1682 604 q 1679 606 1678 604 q 1682 608 1681 607 q 1685 610 1683 608 l 1685 611 q 1690 615 1688 614 q 1696 619 1693 617 q 1704 625 1699 622 q 1706 626 1704 625 l 1703 626 q 1699 626 1700 625 q 1701 629 1699 628 q 1711 631 1704 631 q 1714 633 1714 633 q 1706 632 1711 632 q 1703 633 1703 631 q 1707 635 1704 635 q 1714 636 1710 636 q 1722 638 1718 636 l 1725 638 q 1722 640 1721 638 q 1726 643 1724 643 l 1749 643 l 1753 643 q 1749 644 1751 644 q 1746 647 1744 644 q 1750 650 1747 650 q 1767 646 1758 650 q 1768 644 1768 646 l 1769 644 l 1771 644 l 1774 644 l 1775 644 l 1778 644 q 1781 644 1779 644 q 1783 643 1782 643 q 1781 644 1782 643 q 1781 646 1778 644 q 1785 647 1783 647 q 1796 640 1793 646 l 1797 639 q 1799 640 1797 639 l 1797 640 q 1797 644 1794 643 q 1801 644 1800 646 q 1810 640 1806 642 q 1818 635 1814 638 q 1808 640 1814 638 q 1808 644 1806 643 q 1814 644 1811 646 q 1821 642 1819 642 q 1825 642 1825 642 q 1840 625 1835 635 q 1842 626 1840 626 q 1842 629 1840 629 q 1844 628 1843 629 l 1846 626 q 1849 624 1847 625 q 1851 622 1850 624 l 1853 621 q 1850 624 1853 624 q 1848 628 1847 626 q 1851 628 1849 631 q 1861 614 1857 622 q 1864 613 1863 614 q 1865 616 1863 615 q 1869 617 1867 617 q 1879 609 1875 614 q 1888 600 1883 604 q 1894 603 1890 603 q 1903 596 1900 600 q 1911 588 1907 592 q 1915 588 1915 592 q 1917 586 1917 588 l 1918 586 q 1918 592 1915 589 q 1917 594 1917 593 q 1915 596 1917 594 q 1910 601 1914 600 q 1908 604 1908 601 q 1911 607 1908 607 q 1907 610 1908 608 q 1903 613 1906 611 q 1901 617 1900 614 q 1903 618 1901 619 q 1907 615 1904 618 q 1906 618 1907 617 q 1903 621 1904 619 q 1900 624 1903 622 l 1900 629 q 1899 632 1900 631 q 1895 634 1897 633 q 1892 636 1893 635 q 1890 640 1890 636 q 1892 642 1890 643 l 1893 642 q 1890 644 1892 644 q 1885 647 1888 644 q 1886 653 1885 653 q 1885 654 1885 653 l 1885 653 q 1878 658 1881 657 q 1878 664 1878 658 q 1872 670 1875 667 q 1867 678 1869 674 q 1882 668 1874 674 q 1883 671 1882 672 q 1884 669 1883 669 q 1885 667 1885 668 q 1886 665 1886 667 q 1888 668 1886 668 q 1890 665 1888 668 q 1891 667 1890 667 q 1892 665 1892 667 q 1894 663 1893 664 q 1897 661 1896 663 q 1898 663 1897 663 q 1899 663 1899 664 q 1901 657 1901 660 q 1906 654 1903 657 q 1908 657 1906 660 q 1913 650 1911 651 q 1915 647 1913 650 q 1917 649 1915 651 q 1918 644 1917 646 q 1921 646 1918 649 q 1922 644 1922 644 q 1924 642 1922 643 l 1924 643 q 1927 638 1926 640 q 1929 633 1928 636 l 1929 632 l 1929 631 q 1932 635 1929 638 q 1933 638 1932 638 q 1936 632 1935 635 q 1940 626 1938 629 q 1942 625 1940 626 q 1946 618 1944 619 q 1947 621 1946 619 q 1949 619 1947 622 q 1951 613 1950 617 q 1953 606 1951 608 l 1953 604 q 1953 608 1953 606 q 1954 610 1954 611 l 1958 601 q 1959 604 1958 603 q 1961 603 1960 606 q 1963 595 1963 599 q 1965 588 1964 592 q 1967 590 1967 590 q 1972 576 1969 585 q 1974 580 1972 579 q 1976 578 1975 581 l 1976 575 q 1978 576 1976 576 q 1979 578 1978 578 q 1981 582 1981 579 q 1981 583 1981 583 q 1982 585 1982 583 q 1984 591 1983 588 q 1988 597 1985 594 l 1989 597 q 1992 608 1989 603 q 1997 611 1992 611 q 1999 614 1997 613 q 2004 615 2000 615 q 2007 622 2004 617 l 2010 622 q 2010 625 2010 624 q 2011 628 2011 626 q 2015 629 2013 629 q 2019 633 2017 632 q 2021 635 2019 635 l 2025 643 q 2029 644 2026 644 q 2031 646 2031 644 q 2035 648 2032 647 q 2038 647 2038 649 l 2042 656 q 2044 657 2042 656 q 2047 662 2046 660 q 2050 667 2047 664 q 2057 667 2053 669 l 2061 675 l 2060 675 q 2058 674 2058 674 q 2056 672 2057 674 q 2051 671 2054 671 q 2050 672 2049 671 q 2054 674 2051 674 l 2047 674 l 2046 674 q 2042 672 2043 674 q 2031 668 2033 669 q 2026 668 2028 667 q 2028 671 2025 669 q 2030 672 2029 671 q 2032 672 2031 672 q 2026 672 2029 672 q 2021 671 2024 671 l 2018 668 q 2013 667 2015 667 q 2013 668 2010 667 q 2014 669 2013 669 l 2013 669 l 2011 669 q 2004 665 2006 667 q 2000 667 2000 665 q 1992 665 1994 667 q 1989 663 1992 665 q 1986 661 1989 661 l 1983 661 q 1986 664 1986 664 q 1981 663 1983 664 q 1976 663 1979 663 l 1972 658 q 1967 658 1967 658 q 1969 661 1967 658 q 1956 657 1963 658 q 1942 653 1949 656 q 1956 665 1949 658 q 1971 679 1963 672 q 1974 683 1967 683 l 1975 683 q 1979 686 1976 683 q 1978 688 1976 686 q 1982 689 1981 689 q 1983 690 1983 689 q 1985 690 1983 690 l 1982 690 q 1981 692 1979 690 q 1985 693 1983 693 l 1989 693 q 1990 694 1989 694 q 1994 697 1988 697 q 1997 699 1996 699 q 2000 701 1999 700 l 1994 701 q 1992 703 1992 701 q 1994 706 1992 704 q 1997 706 1996 706 q 1999 707 1997 707 l 2001 707 q 2003 706 2003 707 q 2008 708 2003 706 l 2011 708 l 2013 710 l 2010 710 q 2006 708 2008 708 q 2007 710 2004 708 q 2017 713 2013 713 l 2018 713 l 2015 713 q 2013 715 2013 713 q 2017 717 2014 717 l 2026 717 l 2028 717 q 2031 718 2028 717 l 2025 718 q 2023 720 2022 718 q 2026 722 2024 722 l 2033 722 q 2038 725 2033 725 l 2044 725 q 2047 726 2044 726 l 2058 726 q 2063 728 2060 728 q 2071 726 2065 726 q 2076 728 2074 729 q 2082 724 2079 725 q 2086 726 2082 726 q 2097 722 2089 725 q 2100 722 2100 722 q 2101 721 2101 722 q 2107 722 2103 722 q 2117 714 2115 719 l 2118 714 q 2129 706 2125 713 q 2131 706 2129 706 q 2133 704 2133 706 q 2139 706 2136 707 q 2140 705 2140 706 q 2142 704 2140 704 l 2147 704 q 2150 704 2149 706 l 2161 704 q 2164 701 2164 704 q 2175 703 2167 703 q 2174 700 2176 703 l 2183 700 q 2186 697 2188 700 q 2182 694 2185 694 l 2178 694 q 2181 693 2181 694 q 2183 694 2182 694 l 2194 694 q 2196 692 2197 694 q 2192 690 2194 690 l 2190 690 q 2193 689 2192 689 q 2196 690 2194 689 q 2203 689 2201 690 q 2203 688 2204 689 q 2201 688 2203 688 q 2208 685 2207 685 l 2213 685 q 2214 683 2215 685 l 2217 683 q 2217 681 2219 682 q 2213 679 2215 679 l 2210 679 l 2214 675 l 2215 675 l 2218 675 q 2221 674 2221 675 q 2219 674 2221 674 q 2221 672 2219 672 q 2222 671 2222 672 l 2229 671 q 2229 669 2232 671 q 2225 668 2226 668 q 2228 667 2225 668 l 2231 667 q 2231 664 2233 667 q 2233 661 2233 661 l 2238 661 q 2239 657 2243 661 l 2243 653 l 2244 653 q 2246 651 2246 653 q 2258 640 2253 644 q 2269 629 2264 635 q 2244 638 2258 633 q 2243 635 2246 636 q 2239 635 2240 633 q 2231 640 2233 638 l 2226 640 l 2228 639 q 2224 638 2225 638 q 2221 638 2221 638 l 2215 643 q 2210 644 2213 643 q 2209 643 2210 643 q 2208 642 2208 643 q 2209 640 2208 640 q 2210 639 2210 640 q 2215 638 2214 639 q 2218 626 2215 635 l 2219 626 q 2224 613 2224 619 q 2225 611 2225 613 q 2226 607 2226 610 l 2229 607 q 2231 604 2231 606 q 2232 601 2231 603 l 2232 600 l 2233 600 q 2236 599 2236 603 l 2236 594 q 2240 594 2238 596 l 2240 590 q 2243 589 2242 589 q 2244 582 2244 586 l 2249 586 q 2251 588 2249 586 l 2254 588 q 2264 596 2260 593 l 2267 596 l 2268 596 q 2265 594 2267 594 q 2263 592 2264 593 q 2268 594 2265 592 q 2279 603 2272 600 l 2279 604 l 2281 604 q 2290 617 2286 613 q 2294 617 2294 617 q 2302 625 2299 621 q 2313 632 2306 629 q 2315 632 2314 633 q 2314 629 2317 631 q 2303 619 2310 626 q 2310 624 2306 622 q 2317 629 2314 626 q 2325 638 2321 633 q 2335 644 2329 642 q 2340 645 2338 646 q 2339 643 2342 644 l 2336 640 q 2349 647 2344 646 q 2353 651 2351 650 q 2358 656 2356 653 q 2364 656 2364 656 q 2361 654 2363 656 q 2364 656 2363 654 q 2378 671 2372 667 q 2383 671 2383 671 q 2389 674 2386 674 q 2393 675 2390 676 q 2393 671 2396 674 q 2386 667 2389 668 q 2381 663 2383 665 q 2383 663 2382 663 q 2386 664 2385 664 q 2394 669 2390 667 q 2400 674 2397 671 q 2405 675 2403 676 q 2404 672 2407 674 l 2401 669 q 2407 671 2404 669 q 2418 678 2411 675 q 2422 678 2421 679 q 2419 675 2422 676 q 2414 672 2417 675 q 2421 674 2418 672 q 2423 674 2422 674 q 2425 675 2424 675 q 2428 674 2428 675 q 2431 675 2429 675 l 2433 675 q 2436 676 2435 676 q 2451 681 2444 681 q 2454 678 2454 681 q 2451 676 2454 676 q 2450 676 2450 676 q 2449 675 2450 675 l 2450 675 q 2456 674 2454 675 l 2476 674 q 2478 672 2479 674 q 2475 671 2476 671 q 2477 669 2476 669 q 2479 668 2478 669 q 2496 667 2490 668 q 2496 665 2499 667 q 2492 664 2493 664 q 2486 665 2489 664 q 2488 664 2488 664 q 2490 663 2489 664 q 2500 661 2497 663 q 2501 660 2503 661 q 2496 658 2499 658 q 2506 653 2501 656 q 2515 644 2513 647 l 2514 643 q 2521 640 2518 643 q 2518 638 2521 638 q 2529 631 2524 635 q 2529 628 2531 629 q 2525 628 2528 626 q 2526 626 2525 626 q 2535 621 2532 624 q 2532 618 2538 618 q 2535 614 2532 617 l 2536 614 q 2539 611 2539 614 q 2538 610 2539 611 q 2539 609 2539 610 q 2540 608 2539 608 q 2542 607 2540 607 q 2539 606 2542 607 q 2540 604 2540 606 q 2544 601 2542 604 q 2545 601 2546 601 q 2543 600 2544 600 q 2551 597 2549 600 q 2549 594 2551 594 q 2553 586 2550 588 l 2553 585 q 2556 579 2556 582 q 2556 578 2557 579 q 2554 578 2556 578 q 2563 557 2560 567 q 2547 578 2558 567 l 2546 578 q 2543 574 2546 575 q 2539 575 2540 574 l 2535 588 l 2535 583 q 2532 581 2535 582 q 2529 582 2529 581 q 2528 584 2529 583 q 2528 586 2528 585 l 2525 586 q 2524 588 2525 588 q 2519 588 2521 585 q 2511 601 2514 596 q 2503 604 2508 601 q 2506 600 2506 601 q 2503 597 2507 599 q 2500 599 2500 596 q 2494 606 2497 604 q 2492 604 2494 604 q 2489 606 2490 604 q 2481 615 2483 611 l 2478 615 q 2479 613 2479 614 q 2481 611 2479 613 q 2478 609 2481 610 q 2474 610 2475 608 q 2472 613 2472 613 q 2471 617 2472 614 q 2465 615 2467 613 q 2458 619 2460 618 q 2456 619 2457 619 q 2453 618 2454 618 q 2444 624 2450 621 l 2433 624 q 2441 622 2438 622 q 2449 619 2444 621 q 2449 617 2451 618 q 2444 617 2447 615 q 2440 615 2443 615 l 2424 619 l 2425 619 q 2424 616 2426 617 q 2419 617 2421 615 l 2418 617 q 2417 616 2417 617 q 2415 615 2417 615 l 2414 615 q 2403 617 2410 617 q 2390 611 2394 614 l 2401 611 q 2396 611 2399 614 q 2394 613 2393 611 q 2397 614 2396 614 q 2405 615 2401 614 q 2411 614 2408 615 q 2410 613 2413 614 q 2406 611 2407 611 l 2404 611 q 2406 609 2407 611 q 2403 607 2406 607 l 2381 607 l 2401 607 q 2402 606 2404 607 q 2399 604 2400 604 l 2375 604 l 2367 600 q 2381 602 2374 603 q 2396 601 2389 601 q 2396 600 2399 601 q 2392 599 2393 599 q 2378 599 2385 599 q 2364 597 2371 600 q 2361 596 2363 597 l 2360 596 l 2368 596 q 2369 594 2369 596 q 2371 593 2372 594 q 2390 594 2378 594 q 2392 593 2393 594 q 2388 592 2390 592 q 2367 590 2376 592 q 2346 588 2357 589 q 2341 584 2343 585 q 2336 581 2339 583 q 2339 582 2336 581 q 2349 585 2344 583 q 2360 586 2353 586 q 2360 585 2363 586 q 2357 583 2358 583 q 2344 581 2353 583 q 2343 579 2344 579 l 2340 579 l 2336 579 l 2328 575 l 2342 575 q 2343 574 2344 575 q 2339 572 2342 572 l 2322 572 l 2333 572 q 2335 570 2336 572 q 2331 568 2333 568 l 2324 568 q 2322 565 2324 568 l 2319 565 l 2328 565 l 2329 565 l 2332 565 l 2342 565 q 2342 564 2344 565 q 2338 563 2339 563 l 2326 563 q 2324 561 2325 561 q 2321 560 2322 561 q 2326 558 2324 560 l 2347 563 q 2350 563 2350 564 q 2347 561 2350 561 q 2336 558 2339 558 q 2350 557 2344 558 q 2351 554 2353 556 q 2346 553 2349 553 q 2344 554 2346 554 q 2349 553 2346 553 q 2360 550 2354 551 q 2371 549 2365 549 q 2372 546 2374 547 q 2369 544 2371 544 l 2367 544 q 2379 536 2374 542 q 2390 525 2385 531 l 2390 524 q 2396 517 2393 522 q 2395 516 2397 517 q 2392 515 2393 515 q 2395 510 2394 513 q 2399 506 2396 508 q 2422 501 2411 506 q 2436 497 2428 501 q 2435 496 2436 496 l 2432 496 q 2434 494 2433 494 q 2436 493 2435 494 q 2438 490 2439 492 q 2433 489 2436 489 q 2439 486 2436 489 l 2438 486 q 2449 483 2444 485 q 2460 479 2454 482 q 2461 477 2463 478 q 2457 476 2460 476 q 2459 475 2458 475 q 2461 474 2460 475 l 2460 472 l 2461 472 q 2464 471 2464 472 q 2461 468 2464 469 q 2467 464 2464 465 q 2464 463 2467 464 q 2467 460 2467 460 l 2469 460 q 2481 450 2478 457 q 2478 447 2481 447 q 2480 444 2479 446 q 2482 442 2481 443 l 2483 442 q 2493 431 2489 433 q 2490 428 2493 431 l 2492 426 q 2497 415 2494 424 q 2501 404 2501 411 l 2500 403 q 2503 397 2501 400 q 2506 390 2504 393 l 2504 389 l 2501 389 l 2503 389 q 2505 381 2504 385 q 2507 374 2506 378 q 2503 371 2507 371 l 2503 357 l 2503 340 q 2500 339 2503 340 l 2500 338 l 2500 317 q 2494 315 2500 315 l 2494 293 q 2490 290 2494 290 l 2490 288 q 2487 285 2490 286 q 2483 288 2483 285 l 2483 290 q 2482 274 2483 279 q 2479 272 2482 272 q 2478 268 2478 271 q 2476 267 2476 268 q 2474 267 2475 267 l 2474 261 q 2471 258 2474 258 q 2468 260 2468 257 l 2468 261 q 2457 244 2461 250 q 2453 238 2453 239 q 2457 257 2453 240 q 2454 260 2454 257 l 2456 260 q 2457 261 2456 261 q 2458 265 2457 264 q 2458 268 2458 265 q 2456 269 2456 268 q 2458 276 2458 272 q 2460 278 2458 276 l 2460 286 q 2458 289 2458 286 q 2460 292 2460 289 q 2460 294 2460 293 q 2461 296 2461 294 l 2458 296 l 2458 297 q 2460 300 2460 299 q 2461 303 2460 301 l 2461 314 q 2458 315 2457 314 q 2460 320 2460 318 q 2461 325 2460 322 l 2461 336 q 2458 339 2456 336 q 2460 350 2460 343 l 2460 353 q 2456 351 2458 351 q 2454 354 2454 351 l 2454 379 q 2450 377 2453 378 q 2447 378 2447 376 l 2447 403 l 2447 404 q 2443 411 2446 406 q 2447 393 2444 404 q 2444 390 2447 390 q 2440 390 2440 389 q 2431 425 2438 410 l 2429 426 q 2431 418 2429 421 q 2431 409 2431 414 q 2432 400 2432 404 q 2431 397 2432 399 q 2429 389 2429 393 q 2428 381 2429 385 q 2429 372 2428 375 l 2428 371 l 2429 371 l 2429 360 q 2426 358 2429 358 q 2424 358 2424 357 q 2406 314 2417 338 q 2413 340 2413 326 q 2411 368 2414 354 q 2408 369 2408 368 l 2408 382 q 2408 385 2408 385 q 2407 388 2407 386 q 2404 389 2404 388 l 2404 394 q 2402 400 2403 397 q 2400 406 2401 403 q 2397 404 2399 404 q 2394 406 2394 404 l 2394 417 l 2394 415 q 2392 413 2394 414 q 2389 415 2389 413 l 2389 428 q 2386 433 2389 431 q 2388 426 2386 429 l 2388 418 q 2385 416 2389 417 q 2382 417 2382 415 q 2381 424 2382 421 l 2381 425 q 2378 440 2379 432 q 2374 454 2376 447 q 2372 457 2372 456 q 2369 460 2371 458 q 2371 451 2371 456 q 2371 442 2371 446 q 2368 440 2371 440 q 2365 440 2365 439 l 2365 444 q 2362 443 2364 443 q 2360 444 2360 443 q 2355 459 2357 451 q 2347 474 2353 467 q 2342 476 2344 475 q 2338 478 2340 476 q 2350 463 2344 471 q 2358 446 2356 456 q 2356 442 2358 443 q 2351 444 2353 442 q 2331 476 2346 461 q 2336 468 2333 474 q 2333 465 2339 465 l 2333 464 q 2332 462 2335 463 q 2328 463 2329 461 q 2319 477 2324 469 q 2307 489 2314 485 q 2301 492 2307 489 q 2318 474 2313 483 q 2315 472 2317 472 q 2313 472 2313 472 q 2301 485 2307 479 q 2288 496 2294 490 q 2283 497 2285 497 q 2279 499 2282 497 q 2301 478 2294 489 q 2299 476 2300 476 q 2296 476 2296 476 q 2278 494 2289 488 q 2256 506 2267 500 q 2253 507 2253 506 q 2219 390 2240 436 q 2171 313 2197 343 q 2115 266 2144 283 q 2060 235 2086 249 q 2020 213 2039 224 q 1986 186 2001 201 q 1959 149 1971 171 q 1940 94 1947 128 q 1942 95 1942 94 q 1944 96 1943 96 q 1966 87 1957 96 q 1975 67 1975 78 q 1974 63 1975 64 q 1974 60 1974 63 q 1976 60 1975 60 q 1979 61 1978 61 q 2001 52 1992 61 q 2010 32 2010 43 q 2009 28 2010 29 q 2008 26 2008 28 q 2064 19 2033 22 q 2129 18 2094 17 m 2447 476 l 2446 476 l 2447 476 m 2425 497 l 2426 497 l 2425 497 m 2431 490 q 2421 493 2425 493 l 2422 493 q 2426 492 2425 492 q 2431 490 2428 492 m 2414 499 q 2412 499 2413 499 q 2410 500 2411 500 q 2412 499 2411 499 q 2414 497 2413 499 l 2415 497 l 2418 497 q 2414 499 2417 499 m 2363 467 q 2360 468 2361 468 q 2358 469 2360 468 q 2362 460 2361 465 q 2365 450 2363 456 q 2364 458 2364 454 q 2363 467 2364 463 m 2335 558 q 2332 557 2333 557 l 2331 557 q 2335 558 2333 557 m 2469 619 l 2468 619 l 2469 619 m 2413 619 l 2411 619 q 2414 619 2413 619 q 2417 618 2415 618 q 2415 619 2417 619 l 2413 619 m 2374 661 q 2372 658 2372 660 q 2375 660 2372 660 q 2374 661 2374 660 m 2350 590 l 2351 590 l 2350 590 m 2313 565 l 2311 565 l 2313 565 l 2313 565 m 2310 563 q 2313 562 2313 563 q 2317 561 2314 561 q 2319 563 2318 561 l 2310 563 m 2292 613 l 2292 611 l 2292 613 m 2253 585 l 2253 583 q 2251 582 2251 583 q 2252 583 2251 583 q 2253 585 2253 583 m 2040 721 q 2043 722 2042 721 l 2039 722 l 2040 721 m 2203 636 q 2204 635 2204 636 q 2206 635 2204 635 l 2203 638 l 2203 636 m 2203 643 l 2203 642 l 2204 643 l 2203 643 m 2197 522 q 2194 521 2196 522 l 2201 521 q 2197 522 2200 522 m 2186 522 q 2167 518 2172 522 q 2163 517 2165 517 q 2163 521 2160 518 l 2171 525 l 2168 525 q 2165 524 2168 524 l 2163 524 l 2161 524 l 2157 524 q 2154 521 2154 521 l 2156 519 l 2154 518 q 2160 517 2158 518 q 2160 514 2163 517 l 2165 514 q 2164 511 2167 514 q 2165 510 2165 511 q 2167 510 2165 510 q 2171 509 2169 510 q 2175 508 2172 508 q 2177 506 2178 507 q 2175 504 2176 504 q 2177 503 2176 503 q 2179 501 2178 503 q 2183 501 2182 501 q 2186 500 2183 500 q 2185 497 2188 500 q 2192 493 2190 494 q 2193 492 2193 493 q 2196 490 2193 492 q 2194 488 2199 488 l 2194 486 l 2197 486 q 2203 519 2200 500 l 2190 519 l 2189 519 q 2189 522 2183 519 q 2190 524 2189 522 l 2188 524 q 2186 522 2188 522 m 2169 699 l 2168 699 l 2165 699 l 2169 699 m 2103 717 q 2110 714 2107 717 q 2104 718 2107 718 l 2103 717 m 2096 631 l 2099 631 q 2097 632 2097 631 l 2096 631 m 2067 674 l 2068 674 l 2068 675 l 2067 675 l 2067 674 m 2065 671 q 2064 669 2064 671 q 2067 671 2064 669 l 2065 671 m 2054 663 q 2053 661 2054 663 q 2054 663 2054 661 m 2032 554 q 2030 551 2031 553 q 2028 549 2029 550 l 2036 549 q 2038 547 2042 551 q 2045 549 2042 549 q 2053 551 2049 550 q 2057 549 2057 551 q 2067 551 2063 551 l 2068 551 l 2065 551 q 2065 553 2063 551 q 2068 554 2067 554 q 2079 557 2074 554 q 2082 558 2079 557 q 2092 561 2088 561 l 2089 561 q 2088 563 2086 561 q 2090 564 2089 564 l 2106 564 q 2108 565 2106 564 l 2103 565 q 2101 565 2100 564 q 2104 567 2101 567 q 2117 568 2108 568 l 2118 568 l 2111 568 q 2110 570 2108 568 q 2113 572 2111 572 l 2125 572 l 2128 572 q 2129 574 2129 572 q 2135 574 2132 574 q 2142 575 2139 575 q 2140 577 2139 575 q 2143 579 2140 579 q 2153 576 2147 579 q 2156 579 2153 579 q 2164 578 2160 578 q 2171 575 2168 578 q 2175 578 2174 578 q 2179 576 2176 576 q 2176 582 2179 579 q 2175 583 2175 582 q 2173 584 2174 583 q 2171 585 2172 585 q 2168 588 2168 585 l 2167 588 q 2166 590 2164 589 q 2169 592 2168 592 q 2163 596 2168 593 q 2163 597 2161 596 q 2167 597 2164 597 l 2167 599 l 2158 603 q 2160 604 2158 603 q 2157 606 2158 604 q 2156 607 2154 606 q 2160 608 2158 608 l 2160 610 q 2156 611 2157 611 q 2151 613 2154 611 q 2150 614 2149 613 q 2154 617 2151 615 l 2153 617 q 2146 619 2150 619 q 2144 622 2144 621 q 2140 624 2142 624 q 2136 625 2139 624 q 2134 626 2133 625 q 2136 628 2135 628 q 2138 632 2132 632 q 2126 639 2135 633 q 2129 642 2124 642 l 2129 643 l 2126 643 l 2122 643 l 2121 642 l 2114 642 l 2113 642 q 2115 639 2117 642 q 2111 636 2114 636 l 2108 636 q 2108 633 2110 635 q 2104 631 2107 631 l 2100 631 q 2103 629 2103 631 l 2101 628 q 2099 626 2101 628 l 2097 626 q 2095 626 2096 626 q 2093 625 2094 625 l 2092 625 q 2089 621 2093 624 l 2092 621 q 2092 619 2094 621 q 2088 618 2089 618 q 2079 617 2082 618 q 2083 615 2082 617 q 2081 613 2083 614 q 2075 609 2078 610 q 2069 606 2072 608 q 2072 603 2072 606 q 2071 599 2076 599 q 2064 596 2065 596 q 2061 593 2064 593 q 2058 592 2058 592 q 2054 590 2057 592 q 2058 588 2057 590 q 2056 585 2058 586 q 2052 584 2053 585 q 2049 583 2051 583 q 2047 581 2049 582 q 2051 581 2050 582 q 2050 578 2053 581 l 2049 578 q 2047 575 2053 578 q 2044 574 2046 574 q 2042 572 2043 574 q 2040 569 2042 571 q 2043 571 2040 569 q 2045 570 2046 572 q 2042 568 2044 568 q 2040 567 2040 567 q 2038 565 2039 567 l 2038 564 l 2039 564 q 2042 563 2042 565 q 2040 560 2043 561 q 2036 557 2040 557 q 2034 556 2035 557 q 2032 556 2033 556 l 2032 554 m 2149 524 q 2143 522 2146 522 q 2142 522 2142 521 l 2142 521 q 2143 522 2143 521 l 2149 522 q 2151 524 2150 522 l 2149 524 m 2136 572 l 2133 572 l 2133 571 q 2136 572 2135 572 m 2097 561 l 2096 561 l 2097 561 m 2079 553 q 2081 554 2081 554 q 2083 556 2082 554 l 2082 556 q 2081 556 2081 554 q 2071 553 2072 553 l 2079 553 m 2071 549 l 2069 549 l 2068 549 l 2069 549 l 2071 549 m 2003 611 q 2000 604 2000 606 l 2003 607 l 2003 611 m 1986 451 q 1983 450 1988 450 q 1999 344 2001 394 q 1983 250 1997 294 q 2010 265 1997 258 q 2036 279 2022 272 q 2083 305 2060 292 q 2128 340 2107 318 q 2166 395 2149 363 q 2196 478 2183 428 l 2194 478 q 2189 476 2190 474 q 2185 478 2186 478 q 2182 481 2185 479 l 2182 482 l 2181 482 q 2174 481 2176 478 q 2169 483 2171 482 q 2165 486 2168 485 q 2167 485 2165 486 q 2165 482 2168 483 q 2160 482 2161 481 l 2153 489 l 2150 489 q 2144 488 2149 488 q 2135 492 2139 490 l 2133 492 q 2135 490 2135 490 q 2138 489 2136 490 q 2136 485 2139 488 q 2131 485 2133 483 l 2122 493 q 2119 489 2122 490 q 2115 489 2117 488 q 2108 494 2114 492 l 2103 494 q 2097 493 2099 490 l 2097 492 q 2095 489 2099 490 q 2090 489 2092 488 q 2083 494 2089 492 l 2082 494 q 2086 493 2085 494 q 2085 492 2089 493 q 2081 490 2082 490 q 2067 494 2072 493 q 2064 493 2065 493 l 2063 493 q 2061 490 2064 492 q 2056 490 2058 488 l 2051 494 l 2044 494 q 2047 493 2044 493 q 2047 489 2050 490 q 2042 489 2044 488 q 2022 493 2036 493 q 2018 490 2022 490 q 2015 489 2017 489 l 2011 489 q 2016 485 2014 486 q 2021 482 2018 485 q 2022 480 2024 481 q 2018 479 2021 479 q 2026 474 2024 476 q 2025 472 2028 472 q 2021 474 2022 472 l 2022 474 l 2035 465 q 2035 463 2036 464 q 2032 464 2033 463 q 2035 460 2033 461 q 2038 457 2036 460 q 2039 456 2039 457 q 2047 446 2042 451 q 2046 446 2047 444 q 2044 443 2046 443 q 2040 444 2042 443 q 2042 443 2040 444 l 2043 443 q 2047 440 2046 440 q 2050 436 2049 439 q 2049 435 2050 435 q 2051 432 2051 435 q 2050 429 2054 429 q 2052 428 2051 428 q 2054 426 2053 428 q 2053 425 2056 425 l 2053 422 q 2060 417 2056 421 q 2056 414 2063 414 q 2058 411 2058 411 l 2058 410 l 2063 406 q 2061 406 2061 406 q 2063 401 2063 403 q 2064 399 2063 400 l 2064 397 q 2065 395 2064 396 q 2065 393 2065 394 l 2063 393 l 2063 392 q 2065 390 2064 390 q 2067 389 2065 390 q 2064 388 2068 388 q 2066 380 2065 383 q 2068 372 2067 376 q 2063 378 2065 375 q 2058 385 2061 382 q 2056 385 2057 385 q 2053 386 2054 386 q 2051 390 2051 389 q 2050 394 2051 392 l 2051 394 q 2050 396 2050 394 q 2047 395 2049 394 q 2044 397 2044 396 q 2043 401 2043 400 q 2040 406 2043 403 l 2040 404 q 2038 403 2042 403 q 2035 406 2035 404 q 2033 410 2033 408 q 2032 414 2033 411 q 2031 417 2032 415 q 2026 418 2026 413 q 2022 425 2022 422 q 2021 426 2021 425 q 2019 426 2021 426 q 2021 422 2021 425 q 2019 420 2022 419 q 2015 422 2017 421 q 2014 427 2014 425 q 2013 432 2014 429 q 2006 433 2010 429 q 2003 440 2006 435 q 2000 443 2000 443 q 1994 444 1994 443 q 1991 442 1994 442 q 1988 446 1988 443 q 1986 453 1988 450 q 1985 453 1985 453 q 1983 454 1985 454 l 1986 451 m 2014 482 l 2015 481 l 2014 482 m 2035 454 q 2036 453 2035 453 q 2035 454 2036 453 m 1958 597 l 1958 596 l 1958 597 m 1869 539 q 1872 540 1871 540 l 1872 542 l 1867 542 q 1862 540 1864 540 q 1857 539 1860 540 l 1869 539 m 1501 544 l 1578 544 l 1578 815 l 1501 815 l 1501 778 l 1501 590 l 1501 544 m 1472 596 l 1483 596 l 1483 772 l 1472 772 l 1472 596 m 1754 438 q 1756 439 1754 439 q 1753 438 1753 439 l 1754 438 m 1758 442 q 1761 443 1760 443 q 1757 442 1758 443 q 1758 442 1758 443 m 1938 624 l 1936 625 l 1938 624 m 1915 449 l 1915 447 l 1915 449 m 1896 594 q 1892 597 1894 594 l 1890 597 q 1896 594 1893 597 m 1867 531 q 1872 529 1871 531 q 1877 528 1875 529 q 1882 528 1879 528 l 1883 528 q 1875 531 1878 531 l 1867 531 m 1844 433 q 1842 417 1842 422 q 1849 436 1843 426 q 1847 435 1847 435 q 1844 433 1846 435 m 1813 371 l 1811 371 l 1932 283 l 1932 250 q 1949 343 1946 294 q 1932 444 1951 392 l 1931 444 q 1929 446 1931 444 l 1929 444 q 1931 442 1931 444 l 1931 439 l 1931 438 q 1932 435 1931 438 q 1933 433 1933 435 q 1931 432 1932 432 l 1931 433 q 1933 429 1931 432 l 1932 426 q 1933 424 1932 425 q 1933 421 1935 422 q 1934 417 1933 418 q 1935 414 1935 417 q 1933 417 1933 415 q 1931 419 1932 418 q 1929 419 1931 419 l 1929 421 l 1929 422 q 1928 421 1929 421 l 1928 422 l 1926 422 q 1925 425 1926 425 l 1925 428 l 1924 428 l 1924 429 q 1922 429 1924 429 q 1921 433 1921 431 l 1921 435 q 1919 433 1921 433 l 1919 436 l 1918 436 l 1918 439 l 1918 438 q 1917 443 1917 439 l 1918 443 l 1918 444 q 1915 443 1915 442 l 1915 442 q 1915 445 1915 444 q 1914 447 1914 446 l 1913 446 q 1908 444 1911 444 q 1906 444 1904 443 q 1909 449 1908 447 q 1913 451 1910 450 l 1913 458 l 1913 460 q 1911 457 1913 458 l 1911 458 q 1903 450 1907 454 q 1894 440 1899 446 q 1891 438 1894 439 q 1889 440 1888 438 q 1897 451 1893 446 q 1907 460 1901 456 q 1902 458 1904 458 q 1897 456 1900 457 q 1886 444 1890 451 q 1879 431 1882 438 q 1874 428 1878 428 q 1874 431 1871 428 l 1874 432 q 1869 433 1868 432 q 1879 447 1874 442 q 1856 411 1863 432 q 1851 408 1854 408 q 1849 411 1847 408 q 1857 429 1851 421 q 1869 446 1863 438 q 1857 440 1865 443 q 1847 411 1850 429 q 1842 410 1847 410 l 1842 407 q 1838 405 1842 406 q 1835 406 1835 404 q 1836 425 1835 419 q 1832 419 1833 422 q 1828 406 1829 413 q 1826 392 1828 399 l 1826 390 l 1826 389 q 1825 383 1825 388 q 1822 381 1825 382 q 1818 382 1818 381 q 1819 385 1818 385 q 1819 389 1819 386 l 1819 397 q 1818 394 1819 397 l 1818 381 q 1815 377 1818 378 q 1813 379 1813 376 l 1813 371 m 1790 465 q 1788 465 1789 465 q 1786 464 1788 464 l 1792 464 q 1794 465 1793 465 q 1797 467 1796 465 l 1796 467 q 1793 465 1796 465 l 1790 465 z "},"a":{"ha":0,"x_min":-419,"x_max":522,"o":"m 513 1696 q 517 1685 515 1690 q 522 1676 519 1681 q 508 1686 514 1683 l 501 1686 q 501 1690 501 1689 q 500 1693 500 1690 q 497 1694 497 1693 q 496 1694 497 1694 q 497 1693 497 1694 l 492 1693 q 489 1699 492 1696 q 488 1700 489 1699 q 483 1700 483 1696 q 482 1701 482 1700 q 479 1704 482 1703 q 477 1703 479 1703 q 475 1704 475 1703 q 474 1706 474 1704 l 474 1708 l 471 1708 l 469 1708 l 471 1708 q 469 1707 471 1707 q 467 1708 467 1707 q 461 1713 461 1708 l 458 1715 l 457 1715 l 456 1715 l 454 1715 q 451 1717 451 1715 l 450 1718 q 447 1719 449 1718 l 443 1719 q 440 1718 440 1719 q 439 1719 439 1717 l 432 1719 l 431 1719 q 426 1722 426 1719 l 424 1719 l 422 1719 l 421 1719 q 420 1718 422 1719 q 417 1717 418 1717 l 417 1718 q 414 1719 417 1718 q 417 1718 415 1719 l 417 1717 l 414 1717 q 413 1717 414 1717 l 408 1717 q 407 1715 408 1715 l 406 1715 q 403 1713 408 1713 q 401 1714 401 1713 q 400 1715 400 1714 q 399 1715 400 1715 q 401 1713 401 1715 q 399 1711 401 1711 l 392 1711 l 392 1707 l 392 1706 q 389 1704 392 1704 l 383 1704 l 383 1703 l 381 1703 l 376 1703 q 379 1701 379 1703 q 376 1700 379 1700 l 371 1700 l 371 1699 l 368 1699 l 371 1699 q 373 1697 372 1699 q 371 1696 374 1696 l 368 1696 q 364 1694 367 1694 l 363 1694 l 364 1694 q 363 1693 368 1693 l 361 1693 l 361 1690 l 358 1690 l 361 1690 q 363 1690 363 1690 q 361 1689 363 1689 q 357 1686 361 1686 l 354 1686 q 353 1685 353 1686 q 351 1685 353 1685 l 350 1685 q 353 1682 353 1682 l 354 1682 q 357 1681 356 1682 q 367 1678 363 1681 q 368 1676 368 1678 l 375 1676 q 375 1672 379 1676 q 380 1671 378 1672 q 385 1668 382 1669 l 383 1668 q 389 1665 386 1665 q 393 1664 392 1665 q 394 1663 394 1664 q 393 1663 394 1663 q 399 1660 394 1660 q 397 1658 400 1658 l 394 1658 q 400 1656 397 1656 q 406 1654 403 1656 q 407 1653 407 1654 q 406 1651 407 1651 q 407 1650 406 1650 l 410 1647 q 418 1642 414 1646 l 417 1642 q 414 1639 418 1639 l 417 1639 q 419 1638 418 1638 q 422 1635 421 1638 l 422 1633 q 424 1631 422 1633 q 425 1629 425 1631 l 424 1629 l 426 1629 q 426 1628 428 1628 l 426 1625 q 432 1621 429 1625 q 433 1620 435 1621 q 431 1619 432 1619 l 432 1618 l 432 1617 q 433 1616 433 1617 q 435 1615 433 1615 l 436 1615 q 438 1613 438 1614 l 436 1613 q 438 1611 436 1611 q 438 1610 438 1610 q 439 1608 439 1610 q 439 1607 440 1608 q 440 1604 440 1607 l 439 1604 q 442 1603 439 1603 l 443 1603 q 440 1600 444 1600 q 447 1590 442 1599 q 442 1594 444 1593 q 439 1599 440 1596 q 435 1598 436 1599 q 432 1599 435 1597 q 431 1601 432 1599 l 431 1603 q 428 1604 431 1604 l 426 1604 q 424 1604 424 1604 q 422 1608 422 1607 q 421 1611 422 1608 l 421 1608 l 417 1608 q 415 1612 417 1611 q 413 1615 414 1613 l 413 1617 l 408 1617 q 406 1621 406 1619 l 403 1621 l 403 1619 l 406 1619 q 403 1617 406 1617 q 399 1619 401 1617 q 394 1625 399 1622 q 393 1624 394 1624 q 392 1625 392 1624 q 390 1628 392 1628 q 388 1629 389 1628 l 385 1631 l 381 1631 q 378 1629 381 1629 q 375 1631 376 1629 q 372 1635 375 1635 l 371 1635 l 371 1638 l 372 1635 q 368 1633 375 1633 l 363 1639 l 358 1639 q 356 1638 358 1638 q 354 1639 354 1638 q 350 1643 353 1642 l 349 1643 q 346 1646 349 1643 l 349 1643 q 348 1640 350 1642 q 344 1642 346 1639 q 338 1646 342 1644 q 332 1650 335 1647 l 331 1649 q 329 1650 329 1649 q 328 1650 328 1647 l 324 1650 q 329 1643 328 1646 q 328 1642 329 1642 q 328 1638 328 1639 q 329 1635 329 1638 q 329 1636 329 1635 q 328 1638 328 1636 q 333 1629 329 1633 q 333 1628 333 1628 q 332 1629 332 1628 q 333 1626 332 1628 q 333 1624 333 1625 l 333 1621 q 336 1617 336 1619 q 338 1613 336 1615 l 336 1613 l 335 1613 q 332 1615 332 1613 l 332 1613 l 333 1613 q 336 1607 336 1611 l 336 1603 q 338 1599 336 1600 l 336 1599 l 336 1597 q 337 1594 336 1594 q 338 1593 338 1594 q 336 1590 338 1592 l 336 1589 q 338 1585 336 1586 l 336 1585 l 336 1581 l 336 1578 l 336 1576 l 333 1576 q 335 1574 333 1574 q 336 1572 336 1574 l 333 1572 q 332 1563 333 1567 q 331 1567 332 1565 q 329 1572 329 1569 q 326 1574 328 1572 q 327 1577 326 1576 q 326 1581 328 1578 l 328 1581 l 326 1581 l 324 1582 l 324 1590 l 324 1589 l 319 1590 l 319 1597 l 319 1599 l 318 1600 q 315 1607 315 1603 l 315 1604 q 313 1603 315 1603 q 311 1607 311 1604 l 311 1613 l 307 1615 l 307 1621 l 307 1622 l 306 1624 l 303 1625 q 301 1624 303 1624 q 299 1628 299 1625 l 299 1631 l 297 1631 q 288 1563 296 1593 q 264 1510 279 1533 l 264 1482 l 289 1468 l 289 1400 l 289 1331 l 289 1321 q 190 1285 235 1317 q 121 1223 153 1260 q 65 1148 89 1186 q 24 1076 40 1110 q -1 1022 7 1042 q -26 1077 -10 1047 q -62 1136 -42 1107 q -103 1191 -82 1165 q -144 1235 -125 1217 q -386 1335 -239 1314 l -419 1339 l -419 1400 l -419 1457 l -419 1510 l -342 1535 l -260 1510 l -260 1475 l -204 1475 l -192 1529 l -217 1529 l -226 1558 l -214 1556 q -292 1615 -257 1576 l -308 1615 l -318 1646 l -317 1643 q -347 1706 -336 1672 q -357 1779 -357 1740 q -337 1874 -357 1829 q -285 1951 -318 1918 q -207 2004 -251 1985 q -112 2024 -162 2024 q -21 2006 -64 2024 q 56 1957 22 1988 q 110 1884 89 1926 q 133 1794 131 1842 l 138 1794 q 135 1796 136 1794 q 136 1799 133 1797 q 146 1801 139 1801 l 144 1801 q 143 1803 142 1801 l 147 1803 l 147 1806 q 156 1807 150 1807 q 160 1808 158 1807 q 164 1810 163 1810 q 161 1810 161 1810 q 164 1811 161 1811 l 169 1811 l 172 1811 q 167 1814 168 1811 q 165 1815 164 1814 q 168 1815 167 1815 q 173 1814 171 1814 q 178 1811 175 1814 l 181 1811 q 179 1815 178 1814 q 182 1815 181 1815 q 188 1813 185 1814 q 197 1810 192 1811 l 199 1810 q 197 1811 199 1810 q 196 1813 194 1811 q 199 1814 197 1815 q 207 1807 203 1811 l 207 1806 l 210 1806 l 211 1806 l 211 1803 l 214 1803 q 215 1802 215 1803 q 218 1801 215 1801 q 215 1803 215 1801 l 219 1803 q 224 1797 224 1800 l 224 1794 l 226 1794 l 226 1797 q 226 1799 224 1799 q 231 1797 228 1799 q 233 1792 232 1794 q 236 1788 233 1790 q 235 1790 236 1789 q 232 1793 233 1790 q 234 1796 232 1794 q 236 1794 236 1797 l 240 1790 l 242 1790 q 249 1776 249 1786 l 250 1776 q 251 1778 250 1778 l 253 1776 q 254 1771 254 1775 l 257 1771 l 254 1772 q 257 1775 254 1776 q 258 1769 258 1772 q 261 1764 258 1767 l 261 1763 q 263 1764 261 1764 q 264 1763 264 1764 q 268 1757 268 1758 q 271 1758 268 1760 l 272 1758 q 271 1760 271 1758 q 267 1763 268 1763 q 264 1766 264 1764 q 267 1767 264 1768 l 267 1771 q 263 1774 264 1772 q 261 1776 263 1775 l 261 1779 q 263 1776 263 1779 l 263 1779 q 258 1781 261 1781 q 257 1782 257 1781 l 257 1785 l 258 1785 q 257 1786 257 1785 l 257 1789 l 257 1790 q 253 1794 253 1794 q 250 1797 250 1794 q 253 1799 250 1799 q 249 1800 250 1799 q 246 1801 249 1801 q 244 1805 244 1803 q 246 1806 244 1807 l 247 1806 q 249 1803 247 1806 l 249 1806 q 244 1810 244 1807 q 242 1814 242 1810 q 236 1815 240 1815 l 236 1819 l 238 1819 q 235 1822 236 1822 q 232 1824 233 1822 l 232 1828 l 231 1828 q 226 1829 231 1829 l 226 1833 l 218 1842 q 223 1840 221 1840 q 228 1838 225 1840 q 231 1836 229 1838 q 232 1838 231 1836 q 233 1836 232 1836 q 236 1835 236 1836 q 238 1833 236 1833 q 242 1829 239 1833 l 244 1828 q 246 1829 244 1832 q 247 1828 246 1828 q 248 1826 247 1826 q 249 1825 249 1826 q 250 1824 249 1825 l 250 1825 q 253 1824 251 1825 l 254 1824 l 257 1822 q 260 1819 258 1819 q 261 1815 261 1818 l 261 1817 q 263 1818 261 1817 l 263 1819 q 265 1815 264 1817 q 268 1811 267 1814 q 272 1806 272 1808 q 275 1807 272 1810 q 279 1799 275 1803 l 279 1797 l 279 1801 l 279 1799 l 279 1803 q 281 1800 281 1801 q 283 1797 281 1799 l 285 1794 l 285 1793 l 288 1794 l 288 1790 q 289 1792 289 1790 q 289 1790 289 1793 l 290 1790 l 292 1789 q 293 1785 293 1789 l 296 1788 l 296 1781 q 297 1779 297 1781 q 298 1781 297 1781 q 299 1779 299 1781 q 300 1776 299 1776 q 301 1775 301 1776 l 301 1772 q 303 1774 303 1772 q 303 1772 303 1775 l 303 1771 l 306 1771 l 306 1767 l 307 1767 l 307 1760 l 307 1758 q 308 1761 307 1760 q 310 1760 310 1763 l 310 1761 q 311 1760 310 1761 q 314 1753 311 1757 l 314 1746 q 315 1747 315 1746 q 315 1746 315 1749 l 315 1736 l 317 1738 q 318 1738 317 1738 l 318 1732 q 319 1733 318 1733 q 319 1732 319 1733 l 319 1722 q 321 1724 319 1722 l 322 1724 l 322 1715 q 323 1717 322 1717 q 324 1715 324 1717 l 324 1713 l 326 1715 q 328 1717 326 1715 l 329 1717 q 336 1722 329 1722 q 339 1726 338 1725 q 340 1729 340 1728 l 344 1729 q 346 1732 346 1729 q 350 1729 350 1732 l 354 1733 l 357 1733 l 358 1736 q 363 1736 358 1740 q 364 1738 363 1738 l 367 1738 q 371 1742 368 1742 q 372 1743 372 1744 q 375 1742 372 1742 l 375 1744 q 379 1742 381 1744 q 385 1746 381 1746 l 388 1746 q 393 1753 388 1749 l 394 1753 l 397 1750 q 401 1753 399 1753 q 406 1757 403 1754 l 407 1757 q 408 1754 408 1757 q 401 1750 403 1754 l 406 1750 q 413 1754 406 1754 q 422 1757 417 1757 q 431 1758 424 1758 l 432 1758 q 426 1754 428 1758 q 431 1757 426 1757 q 435 1758 432 1757 l 436 1758 q 439 1757 436 1758 l 444 1757 q 447 1754 447 1757 l 449 1754 l 450 1754 q 451 1757 450 1754 q 455 1756 453 1757 q 456 1754 457 1754 q 458 1753 457 1754 q 461 1753 458 1753 l 463 1753 q 467 1750 465 1750 q 471 1749 469 1750 q 471 1746 474 1749 q 479 1744 478 1746 l 478 1744 q 481 1742 479 1742 q 483 1740 482 1742 q 485 1739 486 1740 q 482 1738 483 1738 l 479 1738 l 482 1738 l 483 1738 q 489 1736 486 1736 q 488 1732 493 1732 l 486 1732 l 488 1732 l 489 1732 l 493 1728 l 492 1728 q 496 1724 496 1728 l 500 1724 q 501 1722 500 1722 q 502 1721 504 1722 q 497 1719 500 1719 q 496 1722 497 1721 l 496 1719 l 497 1719 l 500 1719 q 500 1717 501 1717 q 501 1715 500 1717 q 504 1714 504 1715 q 506 1713 504 1713 q 506 1712 508 1713 q 501 1713 504 1711 q 503 1711 501 1711 l 504 1711 l 506 1708 l 504 1708 q 506 1704 506 1707 l 508 1704 q 508 1700 510 1703 q 510 1696 510 1700 l 513 1696 m 267 1811 l 267 1810 l 267 1811 m 240 1713 l 244 1713 q 247 1711 244 1713 l 249 1711 q 242 1713 246 1713 l 240 1713 m 64 1833 l 56 1864 l 74 1858 l 74 1881 l 17 1846 q 33 1779 33 1814 l 33 1764 l 99 1757 q 101 1763 99 1760 q 97 1758 97 1758 q 101 1763 97 1763 l 101 1779 q 93 1833 101 1806 l 64 1833 m 74 1719 l 90 1717 q 93 1722 93 1719 q 94 1728 93 1725 l 94 1744 l 32 1753 q -1 1682 25 1711 l 43 1635 q 65 1665 56 1650 q 82 1696 75 1679 l 74 1719 m -62 1646 q -14 1676 -36 1654 l -62 1722 q -72 1717 -68 1719 q -79 1713 -75 1715 l -62 1646 m -71 1538 q -75 1535 -71 1535 l -75 1532 l -69 1533 l -71 1538 m -147 1715 q -174 1736 -161 1721 l -231 1704 q -207 1674 -219 1688 q -175 1651 -194 1661 l -147 1715 m -165 1647 q -162 1646 -164 1647 l -158 1660 l -165 1647 m -44 1811 q -39 1795 -42 1804 q -36 1779 -36 1786 q -37 1776 -36 1776 q -39 1775 -39 1776 l 29 1764 l 29 1779 q 13 1844 29 1815 l -44 1811 m 7 1856 q -47 1906 -12 1886 l -75 1842 q -62 1833 -68 1839 q -51 1822 -56 1828 l 7 1856 m -131 1638 l -112 1638 l -100 1638 l -104 1669 l -112 1704 l -114 1704 l -131 1638 m -118 1776 q -117 1772 -118 1775 l -114 1771 l -112 1771 q -108 1772 -108 1771 l -106 1772 q -105 1775 -106 1775 q -104 1776 -104 1775 l -104 1779 q -108 1785 -104 1782 l -112 1785 l -114 1785 l -117 1785 q -118 1779 -118 1783 l -118 1776 m -89 1840 q -100 1843 -94 1842 q -112 1844 -106 1844 l -117 1844 l -110 1801 l -108 1801 l -89 1840 m -96 1797 l -96 1794 l -58 1818 q -79 1833 -64 1826 l -96 1797 m -89 1767 l -92 1767 l -61 1736 q -47 1764 -49 1750 l -89 1768 l -89 1767 m -47 1776 l -46 1776 q -44 1779 -46 1776 q -47 1793 -44 1786 q -53 1807 -50 1800 l -89 1785 q -87 1781 -87 1785 l -47 1776 m -57 1911 q -112 1921 -81 1921 q -128 1919 -122 1921 l -118 1853 l -112 1853 q -98 1851 -104 1853 q -86 1849 -92 1850 l -57 1911 m -128 1842 q -154 1828 -144 1835 l -124 1799 l -122 1799 l -128 1842 m -162 1818 q -175 1793 -174 1807 l -132 1789 l -162 1818 m -135 1776 l -178 1781 l -178 1779 q -171 1753 -178 1764 l -135 1772 l -135 1776 m -183 1794 q -178 1810 -182 1803 q -169 1824 -174 1817 l -217 1872 q -251 1806 -242 1844 l -183 1794 m -251 1793 q -253 1779 -253 1788 q -237 1715 -253 1742 l -179 1749 q -185 1779 -185 1760 l -185 1783 l -251 1793 m -165 1740 q -144 1722 -154 1728 l -143 1724 l -135 1758 l -165 1740 m -147 1569 q -129 1567 -137 1568 q -112 1567 -121 1567 q -100 1567 -106 1567 q -89 1568 -94 1567 l -97 1633 l -112 1633 l -131 1633 l -147 1569 m -93 1533 l -87 1532 l -87 1533 l -93 1533 m -82 1719 q -76 1724 -79 1722 q -69 1728 -72 1725 l -89 1746 l -82 1719 m -6 1685 q 28 1753 22 1717 l -39 1763 q -44 1746 -40 1753 q -54 1732 -49 1739 l -6 1685 m -6 1940 l 13 1944 l 3 1915 l -28 1915 l -35 1932 l -44 1910 q -13 1887 -28 1900 q 11 1858 1 1874 l 68 1890 q 35 1931 54 1914 q -6 1963 17 1949 l -6 1940 m -18 1965 l -28 1943 l -18 1940 l -18 1965 m -139 1989 l -132 1958 l -118 1963 l -128 1932 l -131 1932 l -128 1922 q -112 1924 -122 1924 q -57 1915 -82 1924 l -28 1974 q -112 1989 -69 1989 l -139 1989 m -140 1918 q -178 1905 -160 1915 q -208 1881 -196 1894 l -161 1833 q -146 1843 -154 1839 q -131 1850 -137 1847 l -140 1918 m -151 1985 q -210 1965 -183 1981 q -260 1928 -237 1950 l -212 1885 q -180 1908 -197 1899 q -140 1921 -162 1918 l -143 1932 l -161 1932 l -171 1963 l -151 1958 l -151 1985 m -261 1893 l -243 1897 l -261 1914 l -261 1893 m -274 1915 q -281 1906 -276 1911 q -287 1897 -285 1901 l -274 1893 l -274 1915 m -290 1890 q -308 1854 -301 1874 q -321 1814 -315 1835 l -256 1806 q -221 1875 -244 1847 l -242 1894 l -251 1867 l -282 1867 l -290 1890 m -242 1713 q -257 1779 -257 1743 l -257 1793 l -312 1801 l -312 1775 l -292 1781 l -303 1750 l -321 1750 q -299 1681 -317 1713 l -242 1713 m -269 1638 q -204 1589 -242 1606 l -178 1647 q -209 1670 -194 1657 q -235 1703 -224 1683 l -286 1672 l -286 1660 q -280 1652 -283 1656 q -274 1643 -276 1649 l -268 1646 l -269 1638 m -193 1582 q -186 1579 -190 1581 q -179 1578 -182 1578 l -162 1642 q -165 1642 -165 1642 q -167 1643 -165 1643 l -193 1582 m -54 1478 l -62 1510 l -65 1508 l -96 1508 l -106 1533 l -112 1533 q -154 1538 -133 1533 l -171 1478 l -78 1479 l -54 1478 m -47 1576 q -2 1597 -22 1583 q 36 1628 18 1610 l -10 1672 q -35 1653 -22 1661 q -62 1642 -47 1646 l -47 1576 m 101 1646 q 103 1649 103 1647 q 107 1651 104 1651 q 111 1656 107 1656 q 112 1658 111 1658 q 113 1660 113 1658 q 119 1664 117 1664 q 125 1668 124 1668 q 125 1669 125 1668 q 136 1674 131 1678 l 138 1674 q 138 1676 138 1676 q 143 1678 139 1678 l 142 1678 q 140 1681 139 1681 q 143 1682 142 1681 l 158 1682 q 153 1683 156 1682 q 147 1682 150 1685 q 144 1683 146 1682 q 146 1685 143 1685 q 160 1685 154 1686 l 163 1685 q 172 1685 167 1686 q 174 1686 172 1685 l 167 1686 q 163 1688 164 1686 q 164 1689 163 1689 q 172 1689 168 1690 l 172 1690 l 168 1690 l 167 1690 q 171 1692 169 1693 q 174 1690 172 1690 q 193 1689 186 1690 l 199 1694 q 197 1694 199 1693 q 197 1694 194 1694 q 201 1696 197 1696 l 201 1699 q 210 1702 206 1700 q 222 1707 215 1704 l 218 1707 q 219 1708 214 1708 q 226 1708 222 1708 q 233 1707 231 1707 l 238 1707 l 233 1707 q 233 1709 232 1707 q 236 1711 233 1711 l 236 1710 q 238 1708 236 1708 l 236 1711 l 233 1711 l 233 1713 l 233 1715 q 229 1713 231 1713 q 226 1711 228 1713 q 222 1713 222 1711 l 224 1713 l 219 1713 l 219 1711 q 217 1710 218 1710 q 215 1711 215 1710 l 214 1711 q 210 1710 211 1711 q 207 1708 210 1708 l 206 1708 q 204 1707 206 1708 l 203 1707 q 203 1708 203 1707 l 199 1708 l 197 1708 q 196 1707 197 1707 q 194 1704 194 1707 l 192 1704 q 190 1707 190 1704 q 190 1704 190 1704 q 189 1703 189 1704 l 185 1703 l 186 1704 q 185 1703 185 1704 q 183 1703 185 1703 l 182 1703 l 181 1703 l 178 1703 q 176 1699 176 1700 q 172 1700 172 1699 l 171 1699 q 169 1696 169 1697 q 167 1699 167 1696 l 167 1696 q 164 1694 165 1696 l 160 1694 q 157 1693 158 1693 q 154 1690 156 1693 q 158 1696 157 1694 q 157 1697 157 1696 q 158 1699 157 1697 l 160 1699 q 160 1700 160 1699 l 160 1703 q 164 1704 163 1703 l 163 1704 q 167 1707 164 1704 l 168 1707 l 167 1708 q 168 1711 167 1710 l 169 1711 l 172 1711 l 169 1713 l 172 1713 l 172 1715 l 174 1715 l 174 1717 l 181 1717 l 178 1719 q 185 1722 182 1719 l 188 1722 q 189 1724 189 1722 q 194 1726 190 1726 l 197 1726 q 193 1728 193 1726 l 199 1728 q 197 1728 197 1728 q 199 1729 197 1729 q 204 1732 203 1729 l 210 1732 q 210 1736 207 1733 q 213 1735 210 1736 l 214 1733 q 215 1736 214 1736 l 211 1736 q 210 1738 210 1736 l 210 1740 l 208 1740 q 206 1742 206 1740 l 203 1742 l 201 1742 q 199 1744 201 1744 l 190 1744 l 189 1746 q 156 1742 169 1750 q 171 1749 164 1747 q 185 1753 178 1750 q 182 1756 182 1754 q 185 1757 182 1757 l 190 1757 l 193 1757 l 199 1757 l 206 1757 q 207 1758 206 1758 q 208 1760 207 1758 l 210 1760 q 218 1758 211 1758 l 215 1758 q 214 1760 214 1758 q 206 1763 210 1763 q 204 1764 204 1763 q 201 1767 199 1764 l 203 1767 q 190 1768 199 1768 q 186 1771 186 1768 l 185 1771 l 182 1771 q 181 1775 181 1771 l 178 1775 l 174 1775 l 172 1775 q 169 1776 169 1775 q 169 1775 169 1775 q 168 1772 168 1775 q 163 1775 163 1772 q 167 1776 164 1775 l 164 1776 q 161 1776 163 1776 q 158 1775 160 1775 l 156 1772 q 153 1774 154 1772 q 151 1775 151 1774 q 150 1774 150 1775 q 147 1772 150 1772 q 144 1772 147 1771 q 143 1772 142 1772 q 144 1775 143 1775 l 146 1775 l 146 1776 l 144 1776 q 143 1775 143 1776 l 142 1775 l 139 1775 q 133 1771 138 1774 q 128 1719 133 1742 l 125 1713 l 119 1694 l 117 1690 q 56 1599 96 1639 l 68 1603 l 58 1572 l 25 1572 l 25 1574 q -5 1558 10 1565 q -39 1543 -19 1550 l -22 1478 l 11 1478 l 11 1533 l 82 1556 q 83 1561 82 1558 q 85 1567 85 1564 q 83 1565 85 1564 q 81 1568 81 1567 l 82 1569 q 78 1572 78 1569 q 81 1579 81 1575 q 85 1586 82 1583 q 81 1589 81 1586 q 83 1596 82 1592 q 86 1603 85 1600 q 85 1604 85 1603 q 88 1610 86 1607 q 90 1619 89 1614 q 93 1625 90 1624 q 90 1628 89 1625 q 97 1635 90 1631 q 94 1636 94 1635 l 94 1638 q 98 1640 97 1639 q 101 1643 99 1642 l 101 1646 m 207 1711 l 206 1711 l 207 1711 m 139 1574 l 142 1572 l 142 1599 q 138 1600 138 1596 q 138 1603 138 1603 q 139 1607 139 1604 q 143 1615 140 1608 q 144 1619 143 1617 q 146 1625 146 1622 l 144 1625 q 143 1628 143 1625 q 147 1633 146 1631 q 151 1639 149 1636 q 154 1643 151 1642 l 151 1643 q 144 1634 147 1639 q 138 1625 140 1629 q 135 1624 138 1624 q 133 1625 133 1624 q 138 1631 136 1628 q 142 1638 139 1635 q 138 1633 138 1633 l 136 1633 q 133 1626 133 1629 q 129 1617 132 1622 l 125 1617 q 124 1610 124 1614 q 121 1603 124 1606 q 118 1600 119 1600 q 117 1603 117 1600 q 115 1594 115 1600 q 111 1593 115 1593 q 110 1590 111 1590 q 108 1586 108 1589 l 108 1578 l 107 1578 q 104 1575 104 1575 l 104 1574 l 104 1572 l 104 1567 l 103 1567 l 103 1564 l 103 1563 l 139 1574 m 238 1547 q 256 1590 249 1567 q 263 1642 263 1614 l 263 1639 q 261 1638 263 1638 q 263 1633 261 1635 l 261 1633 l 261 1631 q 258 1629 261 1629 q 260 1628 258 1628 l 261 1628 q 260 1625 261 1626 l 258 1625 l 258 1619 q 258 1622 258 1621 q 257 1625 257 1624 l 257 1628 l 254 1628 l 254 1629 l 254 1631 l 254 1633 l 254 1635 l 254 1638 l 253 1636 l 253 1638 l 254 1638 l 253 1638 l 253 1639 q 254 1643 253 1642 q 253 1643 254 1643 l 253 1647 q 250 1646 253 1646 l 247 1646 q 246 1647 246 1646 q 249 1649 249 1647 q 253 1650 250 1650 l 253 1653 q 254 1654 253 1654 q 247 1651 250 1651 q 240 1647 243 1650 q 235 1647 238 1646 q 236 1647 233 1647 q 253 1656 242 1653 l 244 1656 q 228 1643 233 1653 q 222 1646 222 1643 l 224 1646 q 221 1647 222 1647 q 222 1647 219 1647 q 231 1656 224 1653 q 207 1638 215 1649 q 204 1636 206 1635 q 204 1639 203 1638 q 224 1656 211 1649 l 215 1656 q 203 1639 207 1649 l 199 1639 q 197 1638 199 1638 q 194 1639 194 1638 q 196 1645 194 1642 q 199 1651 197 1649 q 197 1650 199 1650 q 190 1640 192 1644 q 185 1631 188 1636 q 183 1629 185 1629 q 182 1628 182 1629 l 178 1628 q 181 1631 178 1631 q 181 1634 181 1633 q 182 1638 182 1635 l 181 1638 l 181 1635 q 179 1631 181 1633 q 178 1628 178 1629 q 175 1626 176 1626 q 172 1628 174 1626 q 169 1624 172 1625 q 167 1624 169 1618 q 165 1620 167 1621 q 163 1617 164 1619 l 163 1615 q 158 1613 160 1613 l 158 1611 q 156 1606 156 1608 q 154 1603 156 1604 q 153 1600 154 1601 l 151 1600 q 145 1587 147 1594 q 142 1572 143 1579 l 160 1568 l 160 1581 l 174 1585 l 174 1607 l 199 1615 l 224 1607 l 224 1585 l 238 1581 l 238 1547 m 275 1749 q 271 1754 275 1750 q 272 1751 271 1753 q 272 1749 272 1750 l 275 1749 m 299 1633 l 299 1631 l 299 1633 z "},"b":{"ha":0,"x_min":-707,"x_max":503,"o":"m 497 1658 q 500 1649 499 1654 q 503 1639 501 1644 q 498 1646 500 1642 q 492 1653 496 1650 q 489 1651 492 1651 q 488 1653 488 1651 q 487 1656 488 1654 q 486 1658 486 1657 l 485 1658 q 483 1661 483 1658 l 483 1658 l 481 1658 q 479 1661 479 1658 l 479 1665 q 476 1668 476 1665 l 472 1668 q 472 1669 472 1669 q 471 1672 471 1669 l 468 1672 q 465 1675 465 1672 l 465 1676 q 464 1678 464 1676 l 464 1679 q 462 1676 464 1676 q 460 1679 460 1676 q 454 1686 454 1682 l 453 1688 l 450 1688 l 449 1688 l 449 1690 q 446 1691 446 1690 q 444 1692 446 1692 l 444 1694 q 444 1692 446 1692 q 439 1694 442 1692 q 435 1694 439 1690 l 433 1694 q 432 1695 432 1694 q 431 1696 432 1696 l 428 1696 q 426 1699 428 1697 l 424 1699 q 425 1697 426 1699 q 422 1696 424 1696 l 422 1697 q 419 1699 422 1697 q 419 1696 422 1696 l 417 1696 q 415 1697 415 1696 l 415 1699 l 415 1696 l 413 1696 l 411 1696 l 410 1696 q 408 1699 408 1696 q 407 1696 408 1697 q 406 1694 408 1694 q 404 1696 404 1694 q 401 1697 401 1696 q 400 1699 400 1697 l 397 1699 q 400 1697 400 1699 q 397 1696 400 1696 l 390 1696 l 390 1694 q 389 1692 390 1690 l 385 1692 l 382 1692 l 378 1692 l 378 1690 l 375 1690 q 371 1692 374 1690 q 369 1690 371 1690 q 372 1689 371 1690 q 371 1688 374 1688 l 369 1688 l 364 1688 l 363 1688 l 364 1688 q 363 1686 367 1686 l 360 1686 l 358 1686 l 360 1686 q 363 1682 363 1683 q 360 1683 363 1681 l 358 1683 q 356 1681 358 1681 l 353 1683 l 353 1681 l 349 1681 q 353 1679 351 1679 q 354 1676 354 1678 l 353 1676 q 363 1672 358 1676 q 364 1669 364 1672 l 369 1669 q 369 1665 374 1665 q 373 1664 371 1664 q 378 1661 375 1664 q 376 1658 378 1658 q 375 1661 375 1658 q 380 1658 378 1658 q 385 1654 382 1657 q 382 1653 386 1653 q 389 1649 383 1651 l 385 1649 q 389 1644 388 1646 q 393 1642 390 1643 l 390 1642 q 396 1638 396 1636 q 397 1635 397 1638 q 401 1628 399 1633 l 397 1628 l 400 1626 q 404 1621 404 1626 l 407 1619 l 407 1617 q 408 1615 407 1617 l 407 1615 l 407 1614 q 408 1613 407 1613 q 410 1611 408 1611 q 411 1608 411 1611 q 408 1606 413 1606 q 411 1604 411 1606 q 413 1603 413 1604 q 415 1601 413 1601 q 414 1600 415 1600 l 413 1600 l 414 1599 q 415 1597 414 1597 q 415 1594 415 1596 l 415 1593 q 413 1590 415 1590 l 415 1590 l 417 1589 l 415 1589 q 419 1578 418 1579 q 411 1586 414 1579 l 408 1586 q 407 1593 407 1589 l 404 1593 l 403 1593 q 401 1594 401 1593 q 397 1601 399 1601 q 400 1600 397 1600 l 397 1600 q 396 1601 396 1600 q 393 1606 393 1601 l 390 1608 l 389 1608 q 386 1612 386 1611 q 385 1615 386 1613 l 385 1613 q 384 1611 386 1611 q 379 1613 382 1611 q 378 1619 379 1617 q 375 1618 378 1618 q 374 1619 374 1618 q 371 1624 374 1624 q 369 1626 371 1626 l 368 1626 q 364 1628 365 1626 q 362 1626 364 1626 q 360 1628 360 1626 q 361 1631 361 1629 l 360 1632 q 358 1635 360 1633 l 358 1632 l 360 1632 q 356 1632 360 1629 q 353 1636 353 1635 q 351 1639 353 1638 l 349 1639 l 347 1639 l 346 1639 q 342 1642 344 1639 l 342 1643 q 338 1646 340 1646 l 340 1646 q 338 1643 340 1643 l 336 1643 q 331 1649 333 1647 q 326 1654 329 1651 q 322 1654 326 1651 l 321 1654 q 322 1649 321 1650 q 322 1646 322 1646 q 321 1649 321 1646 q 322 1644 321 1646 q 322 1642 322 1643 l 321 1643 q 322 1640 321 1642 q 322 1635 322 1638 q 324 1633 325 1632 q 321 1635 322 1635 q 322 1631 322 1632 l 322 1628 l 322 1619 l 322 1621 q 321 1621 322 1619 q 321 1615 321 1615 l 321 1611 l 321 1608 q 321 1607 321 1606 q 318 1608 321 1608 l 318 1606 q 319 1604 318 1604 q 321 1601 321 1604 q 319 1600 321 1600 q 318 1601 318 1600 q 315 1597 318 1600 q 318 1596 317 1597 l 318 1594 q 315 1594 318 1594 l 315 1590 l 315 1589 l 314 1586 l 314 1589 l 314 1586 l 314 1583 l 311 1583 q 310 1580 311 1582 q 310 1575 310 1578 l 310 1586 q 307 1589 306 1586 l 307 1593 q 306 1594 306 1593 l 306 1597 l 306 1599 q 306 1600 306 1600 q 307 1601 307 1600 l 306 1601 q 305 1601 306 1600 q 304 1603 304 1601 l 303 1604 q 304 1607 303 1604 q 306 1608 304 1608 l 306 1611 l 303 1611 l 303 1613 l 303 1619 l 303 1617 q 299 1619 299 1614 q 299 1622 299 1621 q 300 1626 300 1624 q 298 1625 300 1624 q 299 1628 296 1626 l 299 1632 l 299 1635 q 296 1639 296 1635 l 296 1638 q 292 1642 292 1638 l 294 1642 l 294 1643 l 293 1643 q 292 1646 292 1643 q 276 1601 285 1621 q 257 1567 267 1582 l 292 1556 l 292 1414 l 292 1335 q 218 1313 253 1332 q 153 1267 183 1294 q 99 1207 124 1240 q 55 1141 74 1174 q 22 1081 36 1108 q 0 1038 8 1054 q -29 1098 -15 1068 q -63 1154 -43 1128 q -114 1203 -83 1181 q -191 1244 -144 1226 q -306 1272 -237 1261 q -469 1286 -374 1283 l -469 1360 l -469 1414 l -469 1478 l -387 1504 l -387 1531 l -354 1542 q -393 1596 -376 1564 q -421 1676 -410 1628 l -422 1675 l -422 1672 q -422 1667 -422 1669 q -421 1661 -421 1664 l -422 1657 l -422 1658 l -422 1649 q -422 1646 -421 1649 q -425 1646 -422 1643 l -425 1643 l -422 1643 l -422 1635 q -425 1631 -422 1631 l -425 1613 q -426 1620 -425 1615 q -429 1628 -428 1625 l -431 1628 q -432 1628 -432 1628 q -431 1631 -432 1631 q -429 1635 -429 1632 q -432 1633 -432 1635 q -432 1635 -432 1632 q -433 1639 -433 1635 q -436 1649 -433 1646 l -436 1654 l -436 1658 q -440 1658 -440 1656 q -439 1668 -440 1665 q -440 1669 -439 1669 q -440 1672 -440 1669 q -442 1669 -440 1669 q -440 1672 -443 1669 l -440 1676 q -442 1676 -440 1675 l -443 1676 l -443 1683 q -444 1689 -444 1686 q -443 1694 -443 1692 l -443 1696 q -444 1693 -443 1694 q -444 1694 -444 1692 l -446 1693 q -447 1694 -447 1693 q -446 1701 -444 1697 q -444 1707 -447 1704 q -469 1688 -458 1701 l -474 1690 q -454 1707 -465 1701 q -462 1706 -460 1707 q -474 1695 -468 1700 q -485 1686 -479 1690 q -487 1685 -485 1685 q -489 1686 -489 1685 q -474 1701 -483 1693 l -478 1701 q -497 1676 -490 1693 q -501 1676 -497 1675 q -503 1679 -504 1676 q -504 1681 -507 1679 q -500 1688 -504 1685 q -519 1658 -512 1678 q -522 1658 -519 1657 q -525 1661 -525 1658 q -517 1676 -521 1669 q -507 1690 -512 1683 q -511 1688 -508 1688 q -515 1686 -514 1688 q -526 1658 -524 1678 l -531 1658 l -531 1657 q -533 1656 -531 1656 q -535 1657 -535 1656 l -535 1675 q -536 1671 -535 1672 q -537 1668 -537 1669 q -544 1642 -544 1651 q -546 1635 -546 1639 l -549 1635 q -551 1638 -551 1635 l -551 1643 l -551 1650 q -553 1646 -551 1649 l -553 1635 q -555 1632 -553 1632 q -557 1635 -557 1632 l -557 1624 l -558 1624 q -562 1626 -560 1624 q -567 1615 -564 1618 l -567 1611 l -567 1610 q -568 1608 -567 1608 l -568 1604 l -568 1593 q -569 1592 -568 1592 q -572 1593 -572 1592 q -574 1567 -575 1579 q -567 1544 -574 1556 q -576 1564 -574 1554 q -582 1583 -579 1574 q -586 1583 -582 1583 l -589 1583 l -589 1594 l -586 1594 l -589 1594 q -587 1600 -589 1599 q -586 1604 -586 1601 q -589 1619 -589 1608 l -590 1619 q -587 1631 -590 1622 q -583 1638 -586 1635 l -582 1649 l -582 1654 l -586 1653 l -579 1665 l -586 1664 l -572 1681 l -578 1679 l -572 1690 l -578 1686 l -571 1699 l -562 1714 l -560 1714 q -558 1719 -560 1717 q -556 1724 -557 1721 l -560 1725 q -553 1729 -556 1729 l -553 1732 q -543 1742 -547 1738 q -533 1750 -539 1746 q -537 1747 -535 1747 q -542 1744 -540 1744 q -542 1747 -544 1744 q -546 1750 -546 1747 l -553 1750 q -556 1747 -556 1747 q -560 1744 -557 1747 q -565 1744 -562 1743 q -564 1747 -567 1744 q -569 1744 -567 1744 q -575 1740 -572 1743 q -579 1743 -582 1740 q -576 1744 -578 1743 q -572 1744 -575 1744 l -578 1744 q -581 1743 -579 1743 q -586 1740 -583 1743 l -589 1743 l -593 1743 q -596 1740 -594 1740 q -600 1736 -597 1739 q -603 1738 -601 1736 q -606 1739 -604 1738 l -604 1739 q -612 1733 -607 1739 q -617 1736 -617 1733 q -619 1735 -618 1736 l -619 1733 q -628 1729 -622 1733 l -629 1729 q -632 1732 -632 1729 q -640 1728 -636 1729 q -650 1725 -644 1728 q -635 1736 -640 1731 q -631 1739 -632 1739 l -628 1739 q -631 1740 -631 1739 l -626 1740 l -626 1743 q -619 1747 -619 1746 q -612 1750 -617 1750 l -610 1750 l -608 1751 q -610 1753 -610 1751 q -608 1754 -610 1754 q -600 1756 -606 1756 l -597 1758 l -599 1758 q -597 1761 -599 1758 l -593 1761 l -590 1763 l -586 1763 q -587 1765 -586 1765 q -586 1765 -589 1765 q -578 1767 -583 1767 l -575 1767 l -572 1767 q -576 1768 -575 1767 q -575 1769 -578 1769 q -578 1771 -578 1769 q -570 1772 -574 1771 q -564 1774 -567 1774 q -562 1776 -564 1774 q -553 1778 -556 1776 q -553 1781 -556 1778 l -537 1781 q -542 1781 -540 1781 q -542 1782 -544 1782 l -531 1782 q -531 1788 -536 1788 l -515 1788 l -518 1788 q -535 1790 -526 1789 q -551 1792 -543 1792 q -554 1792 -553 1792 q -553 1793 -556 1793 q -545 1793 -550 1793 q -535 1792 -540 1793 q -536 1793 -536 1792 l -535 1793 l -535 1794 q -533 1796 -535 1794 l -526 1796 l -529 1796 q -542 1799 -536 1799 q -556 1799 -549 1799 l -557 1799 q -558 1799 -558 1799 q -557 1800 -558 1800 q -544 1800 -550 1800 q -531 1799 -537 1800 q -540 1803 -539 1801 l -560 1803 q -564 1803 -562 1803 q -562 1804 -565 1804 l -544 1804 l -564 1804 q -567 1806 -567 1804 q -564 1808 -567 1808 l -567 1808 q -570 1810 -568 1808 q -571 1811 -572 1811 l -560 1811 q -556 1810 -557 1811 q -557 1808 -554 1808 l -564 1808 l -553 1808 q -564 1814 -561 1814 l -572 1814 q -576 1813 -574 1813 q -578 1814 -578 1813 l -579 1814 q -583 1813 -579 1811 q -583 1815 -586 1814 q -597 1811 -592 1815 q -600 1813 -600 1811 q -601 1814 -600 1814 q -606 1813 -604 1811 q -606 1815 -608 1815 q -598 1818 -603 1818 q -590 1819 -593 1818 l -601 1819 q -605 1817 -604 1818 q -608 1815 -606 1815 q -611 1815 -608 1815 l -612 1815 q -619 1811 -615 1815 q -624 1814 -624 1811 q -626 1810 -626 1811 q -628 1807 -626 1808 q -631 1806 -628 1804 q -632 1808 -635 1807 l -632 1810 q -631 1814 -632 1813 q -632 1813 -632 1814 q -635 1811 -632 1811 q -638 1806 -637 1808 q -642 1803 -639 1804 q -646 1804 -646 1803 q -650 1799 -650 1800 q -654 1797 -651 1797 q -657 1799 -656 1797 q -654 1801 -654 1799 l -654 1803 q -658 1801 -657 1803 q -661 1800 -658 1800 q -665 1794 -664 1797 q -668 1788 -665 1790 l -672 1788 l -676 1788 l -676 1782 q -680 1781 -676 1781 q -681 1785 -683 1782 l -681 1788 q -685 1776 -685 1783 q -692 1778 -692 1776 q -707 1761 -704 1769 q -703 1769 -706 1765 q -699 1778 -701 1772 q -701 1779 -701 1778 l -701 1781 q -700 1782 -701 1782 q -699 1785 -699 1782 q -694 1793 -694 1789 q -696 1794 -696 1793 l -696 1796 q -690 1799 -694 1799 l -692 1800 q -689 1801 -692 1800 q -687 1803 -687 1801 l -685 1803 l -687 1804 l -685 1807 l -685 1808 q -683 1811 -685 1811 l -681 1811 l -681 1813 q -679 1814 -681 1813 q -683 1818 -683 1814 q -678 1821 -681 1819 q -675 1822 -676 1822 l -672 1822 q -677 1824 -675 1822 q -676 1825 -679 1825 q -672 1829 -675 1828 q -668 1831 -669 1831 q -669 1833 -668 1832 q -664 1838 -668 1838 l -665 1838 q -657 1844 -662 1844 q -647 1851 -653 1846 l -651 1851 q -653 1853 -653 1851 q -642 1853 -646 1856 q -640 1856 -642 1856 l -639 1856 l -643 1856 q -648 1856 -646 1856 q -647 1857 -650 1857 q -632 1860 -642 1860 q -628 1863 -631 1860 q -631 1863 -631 1863 q -631 1864 -632 1864 l -612 1864 l -606 1864 l -606 1867 l -608 1867 q -610 1869 -610 1867 q -608 1871 -611 1871 q -602 1869 -606 1871 q -593 1867 -599 1868 l -590 1867 l -589 1867 q -586 1864 -589 1864 q -583 1867 -586 1867 q -579 1864 -582 1864 q -575 1863 -575 1864 q -576 1864 -575 1864 q -579 1867 -578 1864 q -581 1867 -582 1867 q -578 1868 -581 1868 q -573 1865 -575 1867 q -568 1863 -571 1864 q -565 1861 -567 1863 q -562 1860 -564 1860 q -564 1861 -564 1860 q -567 1863 -564 1863 q -566 1865 -568 1864 q -562 1864 -564 1867 q -556 1860 -558 1863 q -551 1856 -554 1857 q -544 1853 -546 1856 q -549 1858 -546 1856 q -556 1863 -553 1860 q -555 1865 -557 1864 q -551 1864 -553 1867 q -550 1863 -551 1863 l -546 1863 l -542 1863 q -529 1849 -537 1857 q -526 1846 -529 1846 q -529 1847 -529 1846 l -529 1849 l -525 1849 q -515 1842 -524 1847 q -504 1836 -512 1839 l -507 1836 q -508 1839 -510 1838 q -504 1838 -507 1840 q -495 1832 -499 1836 q -487 1825 -492 1828 q -478 1818 -483 1821 q -481 1821 -481 1819 q -485 1825 -482 1822 q -482 1826 -489 1826 l -478 1822 q -483 1828 -481 1825 q -487 1836 -485 1832 q -488 1841 -489 1838 q -485 1842 -487 1844 q -483 1839 -485 1840 q -482 1836 -482 1838 l -482 1838 q -492 1846 -486 1843 q -494 1852 -494 1849 q -492 1853 -493 1856 l -492 1854 q -492 1856 -492 1856 q -493 1857 -493 1856 l -492 1857 q -493 1864 -492 1863 q -495 1867 -493 1867 q -500 1871 -497 1868 q -500 1878 -507 1878 q -511 1889 -504 1881 q -512 1892 -514 1890 q -508 1893 -511 1894 q -504 1889 -507 1890 l -504 1890 q -509 1895 -507 1893 q -514 1900 -511 1897 l -514 1906 l -514 1907 l -515 1908 q -521 1913 -518 1910 q -526 1917 -524 1915 q -525 1924 -526 1924 q -522 1921 -525 1921 q -528 1927 -525 1925 q -533 1932 -531 1929 q -533 1935 -533 1932 l -533 1938 l -533 1939 l -535 1939 q -540 1943 -537 1942 q -544 1947 -542 1944 l -544 1953 q -551 1962 -547 1957 q -557 1972 -554 1967 q -548 1965 -553 1969 q -537 1954 -543 1960 q -536 1958 -537 1957 q -535 1957 -535 1958 q -533 1950 -533 1954 l -531 1950 q -529 1953 -531 1953 q -526 1949 -526 1950 l -526 1947 q -522 1946 -525 1947 l -515 1939 l -515 1940 q -514 1939 -515 1940 q -511 1936 -511 1938 q -508 1932 -511 1935 q -507 1929 -507 1931 q -504 1928 -507 1928 q -503 1929 -504 1929 q -500 1928 -503 1929 q -496 1919 -496 1921 l -492 1915 q -490 1917 -492 1917 q -489 1915 -489 1917 q -487 1910 -487 1913 l -482 1910 q -481 1907 -481 1908 q -478 1904 -481 1906 q -474 1899 -475 1901 q -471 1893 -474 1896 l -471 1890 l -469 1890 q -467 1893 -472 1896 q -465 1893 -467 1893 q -460 1886 -462 1890 q -456 1879 -458 1882 l -456 1878 l -454 1878 q -451 1872 -451 1875 q -447 1867 -450 1869 q -446 1869 -447 1868 q -444 1868 -444 1871 q -442 1860 -443 1864 q -440 1853 -440 1856 l -439 1853 l -436 1856 q -434 1857 -436 1857 q -432 1856 -432 1857 q -428 1862 -429 1858 q -425 1868 -428 1865 q -422 1867 -424 1868 q -419 1873 -421 1869 q -417 1879 -418 1876 q -412 1878 -412 1883 q -408 1882 -410 1881 q -406 1886 -407 1883 q -404 1886 -406 1889 q -406 1882 -403 1883 q -401 1891 -403 1888 q -396 1897 -399 1894 q -395 1899 -396 1900 q -394 1894 -394 1897 q -391 1899 -392 1897 q -387 1901 -390 1900 l -385 1901 l -385 1904 q -381 1908 -383 1906 q -375 1913 -378 1910 q -372 1908 -372 1913 l -369 1910 q -364 1919 -369 1915 q -361 1920 -361 1919 q -358 1921 -361 1921 q -354 1921 -357 1924 q -353 1926 -354 1924 q -350 1924 -353 1926 q -349 1926 -350 1926 q -349 1928 -349 1926 q -342 1932 -344 1932 q -337 1932 -339 1935 l -335 1935 l -332 1935 q -328 1942 -332 1938 l -328 1939 q -319 1943 -322 1943 l -317 1943 l -317 1946 l -315 1946 l -312 1946 l -311 1946 l -310 1947 q -308 1950 -310 1947 q -306 1947 -306 1950 q -297 1952 -301 1950 q -286 1957 -292 1954 q -295 1950 -292 1954 q -301 1943 -299 1946 l -301 1939 q -306 1938 -304 1938 q -311 1935 -308 1938 l -312 1935 l -312 1932 l -312 1928 q -318 1926 -315 1926 q -324 1921 -321 1925 q -321 1924 -324 1924 l -321 1917 q -332 1913 -331 1917 l -335 1910 l -335 1906 q -343 1900 -340 1903 l -346 1897 q -342 1900 -343 1900 q -339 1901 -342 1900 q -339 1894 -336 1901 q -344 1893 -342 1893 q -350 1890 -347 1893 q -350 1883 -347 1890 q -358 1879 -357 1883 q -360 1878 -358 1878 q -361 1875 -361 1878 l -361 1871 q -358 1869 -358 1871 q -361 1867 -358 1867 q -369 1863 -368 1863 q -372 1860 -369 1860 q -369 1861 -369 1860 q -368 1863 -369 1863 q -367 1863 -368 1864 q -365 1860 -365 1863 q -364 1863 -365 1863 l -361 1864 q -360 1865 -361 1867 q -357 1864 -358 1864 q -354 1867 -354 1867 q -353 1871 -354 1868 q -351 1874 -353 1874 l -350 1874 q -348 1877 -349 1875 q -343 1882 -347 1879 l -342 1882 l -339 1879 q -331 1893 -337 1889 l -324 1893 l -321 1893 l -319 1893 q -311 1900 -319 1900 q -306 1904 -308 1903 q -300 1908 -303 1906 l -299 1908 q -297 1906 -299 1908 q -294 1907 -294 1906 l -294 1908 l -293 1908 q -287 1909 -290 1908 q -282 1910 -285 1910 l -281 1910 q -279 1909 -279 1910 q -278 1908 -279 1908 q -276 1910 -278 1910 q -274 1913 -275 1910 l -272 1913 q -268 1910 -271 1913 q -262 1913 -267 1913 q -257 1910 -260 1913 l -249 1910 l -244 1910 l -237 1910 l -236 1908 l -229 1908 q -226 1906 -226 1908 q -229 1904 -226 1904 l -233 1904 q -231 1901 -231 1904 l -229 1901 l -219 1901 q -217 1901 -218 1901 q -219 1900 -217 1900 l -222 1900 l -219 1897 l -219 1900 q -216 1899 -218 1900 q -211 1897 -214 1897 q -211 1894 -208 1894 q -215 1894 -214 1894 l -215 1896 q -218 1897 -215 1896 q -217 1894 -218 1894 l -215 1894 l -214 1894 q -210 1894 -211 1894 q -207 1893 -208 1893 q -206 1894 -207 1893 l -204 1894 q -203 1894 -203 1894 q -200 1893 -203 1893 q -198 1891 -199 1893 q -200 1889 -197 1889 l -207 1889 q -203 1888 -204 1889 q -200 1886 -203 1886 q -196 1882 -196 1886 l -192 1882 q -190 1881 -192 1881 l -189 1879 l -192 1879 l -192 1878 l -189 1878 q -187 1876 -189 1876 q -187 1875 -187 1875 l -185 1874 l -182 1874 q -179 1872 -181 1874 q -181 1868 -178 1871 q -166 1856 -172 1861 q -154 1844 -160 1850 q -178 1853 -164 1850 q -176 1851 -178 1851 q -178 1850 -175 1850 q -181 1851 -179 1850 q -182 1852 -182 1851 q -185 1853 -182 1853 q -193 1856 -187 1856 l -192 1853 l -196 1853 q -199 1857 -199 1856 l -204 1857 l -206 1857 q -208 1857 -208 1857 q -212 1858 -211 1857 q -215 1860 -214 1860 l -218 1860 q -217 1857 -215 1857 q -222 1860 -219 1857 l -224 1860 q -225 1863 -225 1860 l -236 1863 l -231 1863 q -229 1858 -228 1860 q -233 1860 -231 1857 q -242 1864 -237 1860 l -246 1864 l -249 1864 l -253 1864 l -251 1864 q -256 1863 -249 1863 q -260 1864 -256 1864 l -267 1864 q -262 1863 -264 1864 q -264 1863 -261 1863 l -271 1863 q -268 1861 -268 1863 q -271 1860 -268 1860 l -279 1860 l -279 1858 q -282 1857 -279 1857 l -289 1857 l -290 1857 q -289 1855 -289 1857 q -290 1853 -289 1853 l -294 1853 l -297 1853 q -294 1850 -294 1851 q -294 1849 -293 1849 l -301 1849 l -304 1851 q -306 1849 -304 1849 l -304 1849 q -303 1848 -303 1849 q -301 1847 -303 1847 q -300 1846 -301 1846 l -300 1844 l -304 1844 l -306 1844 l -304 1844 q -311 1842 -308 1844 q -308 1841 -308 1842 q -311 1840 -308 1840 l -315 1840 l -312 1840 q -309 1839 -311 1840 q -311 1838 -307 1838 q -321 1836 -317 1838 q -318 1835 -319 1836 q -319 1833 -317 1833 q -324 1830 -321 1831 q -328 1826 -326 1829 q -326 1825 -326 1826 q -328 1819 -326 1822 q -335 1818 -332 1819 l -335 1815 q -338 1815 -337 1815 q -342 1814 -339 1814 l -343 1814 q -340 1813 -342 1814 q -342 1808 -339 1811 q -349 1807 -346 1808 q -346 1803 -344 1803 l -349 1803 q -346 1801 -346 1803 q -349 1800 -346 1800 q -351 1799 -350 1800 q -354 1799 -353 1799 l -354 1796 q -351 1794 -354 1796 l -350 1793 q -357 1792 -354 1793 q -353 1790 -354 1792 q -354 1788 -351 1789 l -357 1788 q -354 1786 -354 1788 q -357 1785 -354 1785 q -361 1782 -361 1785 l -364 1782 q -365 1781 -364 1781 q -365 1778 -365 1781 l -361 1778 q -357 1776 -358 1778 q -351 1778 -354 1778 q -346 1781 -349 1778 q -344 1780 -344 1781 q -343 1779 -344 1779 q -342 1778 -343 1778 q -338 1779 -339 1778 q -335 1781 -337 1781 q -331 1778 -332 1781 q -332 1776 -329 1776 l -321 1776 q -318 1775 -321 1776 l -317 1774 l -306 1774 q -304 1771 -306 1774 l -304 1774 l -289 1774 l -289 1793 l -246 1804 l -237 1803 l -237 1807 l -229 1807 l -229 1811 l -229 1818 q -228 1821 -229 1819 q -225 1825 -226 1822 q -224 1821 -225 1822 q -222 1818 -222 1819 l -222 1815 l -219 1818 q -215 1814 -218 1815 l -215 1807 l -214 1807 l -214 1796 l -207 1793 l -207 1774 l -189 1774 l -189 1650 l -176 1654 l -144 1646 l -140 1646 l -140 1710 l -121 1717 l -121 1846 l -79 1846 l -79 1867 l -107 1867 l -107 1964 l 93 1964 l 93 1867 l 64 1867 l 64 1846 l 108 1846 l 108 1718 l 135 1710 l 138 1710 q 144 1713 139 1713 q 143 1714 144 1714 q 144 1714 142 1714 q 156 1717 147 1719 l 157 1717 q 156 1717 156 1717 q 157 1718 156 1718 l 161 1718 q 160 1719 160 1718 q 161 1721 160 1721 l 164 1721 l 168 1721 q 172 1719 171 1721 q 175 1718 172 1718 q 172 1719 172 1718 q 168 1721 171 1721 l 165 1721 q 164 1722 164 1721 q 165 1724 164 1724 q 179 1721 175 1724 q 185 1719 182 1721 q 190 1718 188 1718 q 187 1719 188 1718 q 183 1721 186 1721 q 181 1722 182 1721 q 182 1724 179 1724 q 190 1721 188 1724 l 190 1724 l 186 1724 l 185 1724 q 186 1725 185 1724 q 189 1724 188 1725 q 193 1724 190 1724 q 200 1720 196 1721 q 208 1717 204 1719 q 211 1718 210 1718 q 214 1721 213 1718 l 213 1721 q 213 1724 210 1721 l 217 1724 q 228 1726 222 1725 q 239 1728 233 1728 l 235 1728 q 239 1729 232 1729 q 244 1728 240 1728 q 250 1725 247 1728 l 251 1725 q 249 1726 249 1725 q 251 1728 250 1728 l 254 1728 l 251 1728 q 251 1732 247 1732 q 254 1729 254 1732 l 257 1729 q 258 1728 258 1729 q 261 1728 258 1728 q 263 1726 261 1726 q 265 1725 263 1725 q 260 1728 263 1728 q 254 1732 257 1729 q 251 1736 251 1732 q 251 1738 251 1736 l 251 1740 q 257 1739 254 1739 q 263 1736 260 1739 q 261 1738 261 1736 q 258 1739 261 1739 q 252 1743 256 1742 q 246 1747 249 1744 l 243 1747 l 240 1747 l 240 1751 q 246 1750 243 1751 l 250 1750 l 247 1750 q 240 1751 246 1751 q 239 1753 239 1751 q 240 1756 239 1756 l 236 1756 q 236 1761 233 1756 l 233 1761 q 232 1763 232 1761 l 228 1763 l 228 1765 l 225 1765 l 225 1767 l 219 1767 q 217 1771 217 1769 q 202 1775 210 1774 q 188 1774 194 1776 q 214 1778 201 1778 q 213 1780 213 1778 q 214 1781 213 1782 l 221 1781 q 224 1778 224 1778 l 225 1778 q 236 1776 232 1778 l 236 1778 l 239 1778 q 242 1777 240 1778 q 246 1776 243 1776 l 243 1778 q 235 1782 240 1779 l 235 1785 q 232 1788 231 1785 q 227 1789 231 1789 q 221 1792 224 1789 l 219 1792 l 218 1793 l 217 1793 l 217 1794 q 214 1796 217 1794 l 214 1799 l 213 1799 l 208 1799 l 208 1800 l 206 1800 l 203 1800 q 200 1800 203 1800 l 199 1800 q 200 1803 199 1803 l 201 1803 l 194 1803 l 193 1803 q 189 1801 190 1800 q 190 1804 188 1803 q 188 1803 189 1804 l 186 1803 q 181 1801 183 1800 q 182 1804 179 1803 l 183 1804 l 183 1807 l 182 1807 l 179 1807 q 174 1804 176 1804 q 171 1803 172 1804 l 169 1803 q 168 1804 168 1803 l 165 1804 q 164 1803 164 1804 l 160 1804 q 161 1806 160 1804 l 161 1807 q 156 1803 160 1807 l 153 1803 q 151 1803 151 1803 q 153 1804 151 1804 l 153 1807 q 143 1803 147 1804 q 138 1800 139 1803 q 149 1808 140 1806 q 149 1811 146 1808 l 150 1811 q 154 1814 153 1814 q 157 1815 156 1814 q 156 1817 156 1815 q 157 1818 156 1818 l 161 1818 l 164 1818 l 165 1818 q 165 1819 164 1819 l 168 1819 q 169 1822 168 1822 l 171 1822 l 172 1822 l 175 1822 q 172 1824 172 1822 q 172 1825 171 1825 q 179 1825 175 1826 q 182 1826 182 1825 q 179 1829 176 1826 l 188 1829 l 190 1829 q 188 1831 186 1829 l 193 1831 q 196 1832 194 1833 q 199 1831 197 1831 q 206 1831 203 1833 l 208 1831 q 206 1833 208 1833 q 203 1835 203 1833 q 208 1836 204 1836 q 213 1833 208 1833 l 214 1833 q 210 1836 213 1833 q 209 1837 208 1836 q 213 1836 210 1838 q 221 1831 213 1836 q 225 1833 219 1833 q 231 1830 228 1831 q 236 1826 233 1829 l 236 1825 l 239 1825 l 236 1825 l 236 1826 q 239 1829 233 1832 q 247 1822 240 1826 l 247 1819 q 249 1818 247 1818 l 250 1818 q 251 1815 250 1818 l 253 1815 l 254 1814 q 251 1815 254 1814 q 254 1817 251 1817 q 257 1815 256 1817 q 258 1813 258 1814 q 261 1808 258 1811 l 261 1807 l 258 1807 l 261 1807 q 265 1808 258 1808 q 269 1799 265 1803 q 268 1804 268 1800 q 267 1807 265 1807 q 269 1804 269 1807 q 272 1800 272 1803 l 276 1800 q 278 1785 276 1789 q 279 1788 278 1788 q 281 1785 281 1788 q 282 1782 281 1782 q 283 1781 282 1781 l 283 1778 l 283 1781 q 282 1783 281 1782 q 285 1782 283 1785 l 285 1771 l 286 1771 q 289 1769 288 1771 q 292 1763 292 1767 q 294 1756 292 1760 l 296 1756 q 299 1754 296 1756 q 300 1747 300 1751 q 303 1740 300 1743 l 306 1740 l 306 1739 q 307 1740 306 1739 l 307 1744 l 307 1746 l 306 1747 l 306 1750 l 307 1751 q 306 1758 307 1756 l 307 1761 l 310 1758 l 310 1765 l 310 1767 q 307 1774 310 1771 l 310 1776 l 310 1781 q 308 1783 307 1782 q 311 1785 310 1785 l 310 1785 l 310 1789 l 310 1792 l 310 1803 q 311 1798 311 1800 q 314 1793 311 1796 l 314 1794 q 315 1793 314 1794 l 315 1792 q 318 1790 317 1792 l 318 1789 q 321 1785 318 1785 l 321 1781 l 321 1778 q 322 1779 322 1778 q 325 1778 322 1781 q 324 1776 325 1776 q 324 1775 324 1776 l 322 1774 q 324 1771 322 1771 l 325 1771 l 325 1769 q 326 1767 325 1769 l 326 1765 l 326 1758 q 328 1760 326 1760 q 329 1758 328 1760 l 329 1754 q 332 1753 331 1754 l 332 1751 q 336 1758 335 1757 q 338 1756 336 1758 l 338 1754 q 341 1760 340 1757 q 344 1765 342 1763 q 347 1763 347 1767 q 353 1767 349 1767 q 354 1769 353 1769 l 356 1769 q 364 1776 363 1772 q 367 1774 367 1776 q 369 1775 369 1776 q 367 1771 369 1774 l 369 1771 l 369 1774 q 375 1781 372 1778 l 376 1781 q 378 1778 376 1781 q 378 1781 378 1781 q 379 1782 379 1781 q 385 1781 382 1782 q 386 1785 385 1782 l 386 1782 q 390 1785 389 1782 l 392 1786 q 394 1788 393 1788 q 396 1789 394 1788 q 400 1788 400 1789 l 401 1789 l 404 1789 q 406 1792 404 1792 q 408 1793 407 1792 l 408 1792 q 415 1793 411 1793 q 417 1793 417 1796 q 418 1796 417 1796 l 419 1796 q 422 1793 422 1796 l 422 1796 q 426 1799 424 1796 q 427 1799 426 1800 q 426 1796 428 1799 q 436 1799 432 1799 q 444 1803 440 1800 q 431 1793 439 1799 q 428 1789 431 1789 q 425 1788 426 1788 q 422 1785 424 1788 l 422 1788 l 419 1785 l 419 1781 q 414 1779 417 1781 q 408 1778 411 1778 l 411 1778 l 411 1775 l 411 1774 q 406 1771 408 1771 q 401 1769 404 1771 l 400 1769 q 397 1765 400 1765 q 390 1761 397 1764 l 389 1761 l 393 1761 q 396 1760 396 1763 q 393 1756 396 1758 q 388 1755 390 1756 q 385 1754 386 1754 q 385 1752 386 1754 q 382 1750 385 1750 q 378 1747 379 1747 q 375 1744 378 1747 l 374 1743 l 374 1740 q 371 1739 374 1739 l 374 1739 q 374 1736 375 1739 q 371 1733 374 1733 q 363 1732 367 1733 l 363 1729 l 363 1732 l 364 1732 q 367 1731 367 1732 l 367 1729 q 363 1726 364 1728 q 360 1724 363 1725 q 361 1725 360 1724 l 363 1725 l 364 1725 l 367 1728 l 371 1728 l 374 1728 l 375 1728 q 379 1729 375 1729 q 381 1731 379 1731 l 382 1729 l 385 1729 q 387 1731 385 1732 q 386 1728 389 1729 q 393 1732 392 1731 l 396 1732 l 397 1732 q 399 1733 399 1732 q 401 1733 399 1733 l 403 1733 l 404 1732 q 410 1733 407 1733 q 415 1736 413 1733 q 417 1735 415 1735 q 417 1733 417 1733 q 413 1733 415 1733 q 408 1732 411 1732 l 411 1732 q 415 1733 413 1732 q 419 1732 417 1733 l 422 1732 q 431 1732 424 1733 q 439 1732 433 1733 q 433 1729 435 1732 l 438 1729 l 439 1731 q 442 1732 439 1731 l 444 1729 q 450 1728 449 1729 q 453 1725 453 1728 l 454 1725 q 460 1724 460 1725 q 461 1722 461 1724 q 464 1721 461 1721 q 465 1718 465 1721 q 469 1717 468 1718 q 472 1717 471 1717 l 472 1714 q 476 1710 476 1711 q 482 1706 479 1707 q 479 1703 483 1703 l 476 1706 l 479 1703 q 483 1701 482 1701 q 486 1699 483 1701 q 485 1697 486 1699 l 483 1696 l 482 1699 q 483 1696 482 1696 l 486 1696 q 487 1694 486 1694 q 488 1692 488 1694 l 486 1692 q 488 1691 488 1692 q 490 1690 488 1690 q 492 1688 490 1688 l 492 1686 q 492 1683 494 1683 q 490 1686 490 1683 l 488 1686 l 488 1685 q 490 1683 488 1683 l 490 1681 q 492 1680 492 1681 q 490 1679 492 1679 l 492 1679 l 492 1676 l 493 1676 l 494 1675 l 492 1675 l 492 1672 l 494 1672 q 496 1669 496 1671 l 494 1669 l 494 1668 l 496 1668 q 497 1665 496 1668 q 494 1664 497 1665 q 497 1663 496 1664 l 497 1661 l 497 1658 m -244 1908 q -243 1906 -244 1906 l -242 1906 q -240 1908 -242 1906 l -244 1908 m -300 1904 q -301 1903 -301 1904 q -304 1900 -301 1901 q -297 1904 -299 1903 l -300 1904 m -331 1886 l -331 1883 l -332 1883 q -331 1885 -331 1883 l -331 1886 m -342 1878 l -342 1875 l -342 1878 m -590 1819 l -589 1819 l -590 1819 l -590 1819 m -578 1815 l -575 1815 l -572 1815 l -571 1815 l -578 1815 m -540 1851 l -537 1851 l -537 1853 l -537 1851 l -540 1851 m -564 1771 l -562 1771 l -564 1771 m 135 1665 l 135 1649 l 142 1646 q 140 1649 142 1649 q 142 1649 139 1649 l 142 1653 l 142 1658 l 142 1664 q 146 1669 146 1665 q 149 1667 149 1668 q 150 1664 149 1665 q 151 1667 150 1665 q 153 1669 153 1668 l 153 1672 q 157 1677 156 1675 q 161 1681 158 1679 q 163 1683 161 1683 q 164 1686 164 1683 l 161 1686 q 153 1678 157 1682 q 146 1669 149 1675 l 142 1672 q 147 1677 144 1675 q 150 1681 149 1679 l 149 1679 l 146 1679 q 142 1672 144 1676 q 138 1665 139 1668 l 135 1665 m 78 1882 l 78 1947 l -90 1947 l -90 1882 l 78 1882 m 53 1876 l 51 1878 l 36 1878 l 33 1875 q 35 1874 33 1874 l 36 1874 l 51 1874 q 53 1875 53 1874 l 53 1876 m 21 1878 l 3 1878 l 0 1875 q 1 1874 0 1874 l 3 1874 l 21 1874 l 21 1875 l 21 1878 m -12 1878 l -31 1878 l -32 1875 q -31 1874 -32 1874 l -12 1874 q -11 1875 -12 1874 l -12 1878 m -46 1878 l -64 1878 l -65 1875 q -64 1874 -65 1874 l -46 1874 l -44 1874 q -43 1875 -44 1874 l -46 1878 m 82 1931 q 83 1928 82 1928 l 85 1928 q 86 1931 86 1928 l 86 1946 q 85 1947 86 1947 l 83 1947 q 82 1946 82 1947 l 82 1931 m 82 1897 q 83 1894 82 1894 l 85 1894 q 86 1897 86 1894 l 86 1913 q 85 1915 86 1915 l 83 1915 q 82 1913 82 1915 l 82 1897 m 82 1878 l 69 1878 q 67 1876 68 1878 l 67 1875 q 69 1874 67 1874 l 85 1874 q 86 1875 86 1874 l 86 1879 q 85 1882 86 1882 l 83 1882 q 82 1879 82 1882 l 82 1878 m 60 1957 q 61 1954 60 1954 l 63 1954 l 81 1954 q 82 1957 81 1954 l 81 1958 l 63 1958 l 60 1957 m 26 1957 q 28 1954 26 1954 l 29 1954 l 47 1954 q 49 1957 47 1954 l 47 1958 l 29 1958 l 26 1957 m -6 1957 l -6 1954 l -4 1954 l 14 1954 q 15 1957 14 1954 l 14 1958 l -4 1958 l -6 1957 m -39 1957 l -39 1954 l -37 1954 l -19 1954 l -18 1954 q -17 1957 -18 1954 l -19 1958 l -37 1958 l -39 1957 m -69 1957 l -69 1954 l -53 1954 l -51 1954 q -50 1957 -51 1954 l -53 1958 l -69 1958 l -69 1957 m -101 1953 l -99 1953 l -96 1953 l -96 1954 l -86 1954 q -83 1957 -83 1954 q -86 1958 -83 1957 l -99 1958 q -101 1957 -100 1958 l -101 1953 m -101 1921 q -99 1919 -101 1919 l -97 1919 q -96 1921 -97 1919 l -96 1938 l -97 1939 l -99 1939 q -101 1938 -101 1939 l -101 1921 m -101 1889 q -99 1886 -101 1886 l -97 1886 q -96 1889 -97 1886 l -96 1904 l -97 1906 l -99 1906 q -101 1904 -101 1906 l -101 1889 m -78 1874 q -76 1875 -78 1874 l -79 1878 l -96 1878 l -99 1875 q -97 1874 -99 1874 l -96 1874 l -79 1874 l -78 1874 m -65 1846 l 53 1846 l 53 1867 l -65 1867 l -65 1846 m -304 1769 l -311 1769 l -304 1769 m -324 1774 l -326 1774 l -324 1774 m -372 1853 l -369 1853 l -369 1856 l -372 1853 m -375 1851 q -376 1849 -375 1850 q -375 1851 -376 1849 m -381 1901 l -383 1901 l -381 1901 m -412 1875 l -414 1875 l -412 1875 m -460 1879 l -460 1878 l -460 1879 m -526 1782 l -529 1782 l -526 1782 l -526 1782 m -531 1665 q -528 1674 -529 1671 q -525 1681 -526 1678 l -529 1681 q -530 1672 -529 1676 q -531 1665 -531 1668 m -443 1706 l -443 1707 l -443 1706 m -385 1718 q -373 1663 -381 1686 q -354 1621 -365 1640 l -354 1690 l -304 1703 l -304 1728 q -306 1729 -304 1728 l -308 1729 l -311 1729 q -308 1728 -308 1729 q -306 1728 -308 1728 q -308 1725 -306 1725 l -311 1725 q -317 1729 -314 1729 l -324 1729 l -317 1729 q -316 1726 -315 1728 q -319 1728 -317 1725 q -326 1728 -322 1728 q -332 1729 -329 1729 q -332 1729 -332 1729 l -337 1729 l -339 1729 l -337 1728 q -338 1725 -335 1725 q -342 1728 -342 1725 q -343 1728 -343 1728 q -346 1729 -343 1729 l -350 1729 l -353 1729 q -354 1731 -354 1729 l -354 1732 l -357 1732 q -350 1728 -356 1731 q -354 1725 -349 1725 q -372 1729 -358 1729 l -369 1728 q -372 1725 -368 1722 q -371 1722 -372 1724 q -369 1721 -371 1721 l -369 1718 l -369 1717 q -369 1715 -369 1715 q -368 1714 -368 1715 q -367 1713 -365 1713 q -368 1714 -368 1713 q -365 1706 -368 1707 l -365 1703 l -365 1701 q -368 1701 -365 1699 l -368 1699 q -365 1697 -365 1699 q -364 1694 -365 1696 q -365 1693 -364 1693 l -365 1694 q -365 1685 -365 1689 q -364 1676 -364 1682 q -367 1684 -365 1679 q -369 1692 -368 1689 q -375 1696 -375 1692 q -376 1706 -375 1701 q -379 1707 -378 1706 q -381 1710 -381 1707 q -382 1715 -383 1713 q -383 1718 -381 1717 q -385 1718 -383 1717 m 228 1589 q 249 1621 239 1604 q 263 1658 258 1638 l 263 1661 l 261 1658 l 261 1657 l 261 1654 l 260 1654 q 258 1654 258 1654 l 258 1650 l 257 1650 l 257 1649 l 257 1646 q 254 1642 254 1646 l 254 1649 q 253 1646 254 1646 q 251 1649 251 1646 l 254 1649 l 251 1649 q 254 1650 251 1649 l 251 1650 l 251 1653 l 254 1654 l 251 1654 q 253 1657 251 1657 l 254 1657 l 254 1658 l 253 1658 q 251 1658 251 1658 l 254 1658 l 254 1661 l 254 1664 l 254 1668 l 251 1668 q 249 1667 251 1665 q 250 1668 247 1668 q 253 1669 250 1668 l 254 1669 q 258 1675 257 1672 l 257 1672 l 257 1675 q 249 1672 253 1672 q 243 1669 246 1672 q 240 1671 240 1669 q 239 1672 239 1671 q 248 1675 244 1675 q 257 1676 251 1675 l 250 1676 q 240 1674 244 1676 q 231 1669 235 1672 q 228 1671 229 1669 q 226 1672 226 1671 q 228 1672 226 1672 q 226 1675 228 1675 q 228 1675 225 1675 q 232 1678 231 1676 q 236 1679 233 1679 q 224 1675 229 1676 q 213 1668 218 1674 q 208 1669 210 1668 q 208 1669 206 1669 q 219 1677 213 1675 q 231 1681 225 1679 q 226 1682 228 1681 q 224 1683 225 1683 q 208 1672 217 1681 q 207 1671 208 1669 q 203 1672 206 1672 q 200 1671 203 1671 q 199 1672 199 1671 q 202 1678 201 1675 q 206 1683 203 1681 q 204 1681 206 1682 l 203 1681 q 196 1674 199 1678 q 190 1668 193 1671 l 188 1668 q 186 1665 188 1665 q 183 1665 186 1665 l 182 1665 q 186 1669 183 1668 l 186 1671 q 187 1673 186 1672 q 188 1675 188 1674 l 188 1674 q 186 1672 188 1672 q 185 1669 186 1669 q 182 1665 183 1668 q 179 1665 182 1664 q 176 1668 176 1665 q 175 1664 176 1664 q 174 1663 175 1661 q 171 1664 172 1664 q 169 1661 171 1661 q 165 1658 168 1661 q 164 1657 165 1658 l 161 1657 l 161 1656 q 160 1654 161 1654 q 158 1651 160 1653 q 157 1649 157 1650 l 157 1643 l 157 1642 l 228 1617 l 228 1589 m 294 1643 l 294 1646 l 294 1643 m 360 1767 l 358 1767 l 360 1767 z "},"_":{"ha":607,"x_min":7,"x_max":765,"o":"m 538 475 q 626 457 585 475 q 698 408 667 439 q 747 336 729 378 q 765 247 765 294 q 747 158 765 200 q 698 86 729 117 q 626 38 667 56 q 538 19 585 19 l 235 19 q 147 38 188 19 q 74 86 106 56 q 25 158 43 117 q 7 247 7 200 q 25 336 7 294 q 74 408 43 378 q 147 457 106 439 q 235 475 188 475 l 538 475 m 538 249 q 584 267 565 249 q 603 314 603 286 q 584 360 603 342 q 538 379 565 379 l 235 379 q 188 360 207 379 q 169 314 169 342 q 188 267 169 286 q 235 249 207 249 l 538 249 z "},"h":{"ha":0,"x_min":-469,"x_max":296,"o":"m 226 1447 l 296 1447 l 296 1369 q 188 1327 236 1365 q 102 1240 139 1289 q 40 1143 65 1192 q 3 1069 15 1094 q -26 1131 -12 1101 q -60 1188 -40 1161 q -111 1238 -81 1215 q -189 1278 -142 1261 q -304 1307 -236 1296 q -469 1321 -372 1318 l -469 1447 l -451 1447 l -451 1544 l -418 1574 l -418 1604 l -451 1604 l -274 1682 l -131 1617 l -131 1690 l -96 1701 l -96 1792 l -75 1835 l -75 1943 l -21 2065 l -21 2075 l -21 2108 l -21 2124 q -15 2139 -21 2133 q -15 2133 -15 2136 q -12 2124 -14 2129 l -12 2108 l -12 2075 l -12 2065 l 42 1943 l 42 1835 l 63 1792 l 63 1701 l 89 1692 l 89 1722 l 129 1796 q 128 1809 126 1799 q 150 1839 131 1819 q 167 1809 165 1819 q 167 1796 169 1799 l 207 1722 l 207 1647 l 226 1604 l 226 1447 z "},"i":{"ha":0,"x_min":-172,"x_max":276,"o":"m 111 2051 q 185 2019 153 2043 q 240 1963 218 1996 q 269 1890 261 1931 q 268 1808 276 1850 q 245 1747 261 1776 q 206 1690 229 1717 q 153 1644 182 1664 q 93 1617 125 1625 q 75 1597 81 1610 q 58 1576 69 1585 l 28 1508 l 28 1501 l 21 1471 q 13 1455 18 1461 q -1 1451 7 1449 l -35 1460 q -46 1468 -42 1460 q -47 1485 -50 1476 l -42 1515 q -36 1522 -37 1522 l -39 1599 q -45 1624 -46 1610 q -54 1647 -44 1638 q -96 1698 -78 1668 q -124 1761 -114 1728 q -137 1828 -135 1794 q -133 1894 -140 1863 q -101 1969 -125 1936 q -44 2023 -78 2001 q 29 2052 -11 2044 q 111 2051 69 2060 m -31 1522 l -26 1583 q -29 1587 -28 1586 q -32 1590 -31 1588 l -32 1522 l -31 1522 m -15 1579 q -19 1581 -17 1579 q -24 1582 -21 1582 l -26 1522 q -25 1519 -26 1519 l -24 1519 l -19 1519 l -15 1579 m 6 1572 q -2 1575 3 1575 q -10 1576 -7 1575 l -12 1518 l -8 1518 q -10 1519 -10 1518 l -10 1522 q -8 1526 -10 1525 q -4 1531 -6 1528 l 6 1572 m 1 1531 q 7 1528 6 1531 l 22 1571 q 10 1572 14 1571 l 1 1531 m 11 1513 q 14 1512 14 1513 q 17 1511 14 1511 l 39 1571 q 28 1568 33 1568 l 10 1522 q 7 1515 10 1515 l 7 1513 l 11 1513 m 51 1572 q 43 1571 47 1571 l 21 1511 l 51 1572 m -85 2007 q -132 1929 -110 1976 q -149 1819 -154 1882 q -156 1850 -154 1833 q -156 1885 -157 1865 q -143 1928 -154 1904 q -122 1969 -132 1953 q -103 1993 -111 1985 q -85 2007 -93 2003 m -117 1992 q -153 1931 -136 1968 q -165 1844 -169 1893 q -171 1868 -169 1854 q -170 1894 -172 1879 q -160 1929 -168 1910 q -145 1961 -153 1949 q -131 1981 -137 1974 q -117 1992 -124 1988 m 32 1471 q 26 1455 31 1460 q 18 1447 22 1450 q 7 1444 13 1444 q 17 1451 13 1446 q 25 1460 22 1456 q 32 1471 29 1465 z "},"j":{"ha":0,"x_min":-110,"x_max":225,"o":"m 214 1564 q 221 1575 221 1567 l 225 1575 q 217 1558 225 1567 q 199 1553 211 1556 q 163 1557 186 1551 q 161 1558 163 1558 q 153 1547 158 1551 q 146 1542 149 1542 l 143 1542 q 135 1550 138 1542 q 135 1561 131 1557 q 157 1564 140 1567 q 154 1596 164 1583 q 140 1605 146 1603 q 124 1610 133 1607 q 113 1611 118 1610 q 99 1614 107 1613 q 81 1626 83 1617 q 79 1647 79 1636 q 79 1661 83 1653 q 74 1658 76 1661 q 71 1658 72 1656 q 72 1665 71 1663 q 33 1690 51 1667 q 8 1749 14 1713 q 18 1792 4 1772 q 56 1815 32 1811 q 99 1806 79 1819 q 121 1768 118 1792 q 119 1703 128 1731 q 88 1667 110 1675 q 93 1663 89 1667 q 90 1660 93 1660 q 83 1661 86 1661 q 83 1644 88 1654 q 85 1629 83 1636 q 101 1618 86 1622 q 115 1615 108 1617 q 124 1614 121 1614 q 142 1610 135 1613 q 157 1599 149 1607 q 164 1582 164 1592 q 161 1564 164 1572 q 165 1561 163 1564 q 198 1558 188 1556 q 214 1564 208 1560 m 93 1793 q 90 1789 90 1793 q 94 1783 90 1783 q 99 1789 99 1783 q 93 1793 94 1793 m 79 1786 q 86 1790 85 1786 q 88 1797 88 1794 q 78 1806 88 1806 q 68 1794 65 1806 q 72 1787 68 1790 q 79 1786 76 1783 m 146 1546 q 157 1558 150 1546 q 150 1561 153 1561 q 145 1560 147 1561 q 142 1560 143 1560 q 139 1558 140 1558 q 139 1550 133 1556 q 146 1546 139 1546 m 83 1607 q 93 1588 93 1606 l 88 1588 q 82 1606 88 1600 q 57 1603 76 1607 q 31 1598 46 1600 q -3 1601 17 1596 q -18 1607 -12 1603 q -26 1617 -24 1611 q -24 1639 -29 1626 q -11 1665 -18 1651 q -1 1681 -6 1674 q 4 1696 3 1689 q 0 1715 7 1710 q -15 1722 -7 1719 q -24 1726 -21 1725 q -31 1729 -28 1726 q -35 1725 -35 1724 l -35 1731 q -71 1736 -51 1724 q -101 1775 -90 1749 q -104 1807 -110 1790 q -83 1832 -99 1824 q -50 1833 -67 1839 q -26 1813 -33 1828 q -15 1769 -15 1789 q -24 1738 -14 1749 q -21 1735 -22 1735 q -19 1733 -19 1735 q -26 1731 -18 1731 q -21 1728 -24 1729 q -15 1726 -18 1726 q 3 1718 -6 1724 q 8 1696 13 1713 q 3 1679 7 1688 q -7 1663 -1 1671 q -19 1639 -14 1651 q -22 1618 -25 1626 q -3 1606 -17 1607 q 31 1602 17 1600 q 56 1607 44 1604 q 72 1610 65 1610 q 83 1607 79 1611 m -61 1819 q -56 1824 -58 1819 q -67 1831 -56 1831 q -71 1824 -74 1831 q -61 1819 -68 1819 m -46 1817 q -39 1815 -39 1811 q -44 1821 -39 1818 q -47 1822 -46 1821 q -51 1824 -49 1824 q -53 1819 -53 1824 q -50 1818 -51 1817 q -46 1817 -49 1819 z "},"c":{"ha":0,"x_min":-468,"x_max":217,"o":"m 190 1510 l 217 1501 l 217 1442 l 217 1419 l 217 1358 l 217 1317 q 140 1255 175 1293 q 78 1176 106 1217 q 33 1099 51 1135 q 6 1042 15 1063 q -35 1122 -15 1083 q -92 1193 -56 1161 q -188 1249 -128 1225 q -353 1285 -249 1274 q -407 1289 -378 1288 q -468 1292 -436 1290 l -468 1307 l -468 1308 l -468 1419 l -467 1419 l -467 1424 l -467 1476 l -386 1503 l -308 1476 l -308 1564 l -262 1579 l -262 1629 l -228 1639 l -228 1682 l -168 1700 l -108 1682 l -108 1639 l -76 1629 l -76 1579 l -31 1564 l -31 1503 l 90 1540 l 111 1533 l 111 1547 l 126 1550 l 126 1572 l 151 1581 l 176 1572 l 176 1550 l 190 1547 l 190 1510 z "},"d":{"ha":0,"x_min":-454,"x_max":256,"o":"m 231 1519 l 256 1511 l 256 1451 l 256 1368 l 256 1346 l 256 1307 l 232 1296 q 142 1244 171 1274 q 93 1175 114 1214 q 46 1062 65 1117 q 11 976 26 1007 q 7 968 11 972 q 4 976 6 974 q 1 983 3 979 q -28 1041 -14 1013 q -62 1093 -42 1069 q -101 1156 -79 1126 q -153 1211 -124 1186 q -258 1276 -199 1251 q -392 1311 -318 1300 l -426 1317 l -454 1317 l -454 1346 l -454 1396 l -426 1415 l -426 1435 l -426 1478 l -443 1482 l -347 1511 l -268 1486 l -268 1575 l -222 1590 l -222 1638 l -189 1647 l -189 1692 l -144 1706 l -144 1717 l -142 1717 l -142 1725 l -135 1725 l -129 1917 l -124 1725 l -118 1725 l -118 1717 l -114 1717 l -114 1706 l -69 1692 l -69 1647 l -37 1638 l -37 1590 l 10 1575 l 10 1511 l 131 1551 l 150 1544 l 150 1557 l 165 1561 l 165 1582 l 190 1590 l 200 1588 l 206 1586 l 215 1582 l 215 1561 l 231 1557 l 231 1519 z "},"e":{"ha":0,"x_min":-461,"x_max":522,"o":"m 515 1679 q 522 1665 518 1668 q 517 1672 519 1668 q 508 1679 514 1675 q 506 1676 508 1676 q 504 1676 504 1675 q 501 1682 501 1681 q 500 1686 501 1683 l 500 1683 q 497 1682 500 1682 l 496 1682 l 496 1686 l 493 1686 q 489 1688 492 1686 q 488 1692 488 1690 q 485 1696 488 1694 q 479 1699 482 1699 q 481 1696 479 1699 q 478 1694 481 1694 q 475 1696 475 1694 q 472 1701 475 1696 q 471 1700 472 1700 q 467 1701 468 1700 q 464 1708 465 1701 l 461 1708 l 461 1710 l 461 1704 q 460 1703 464 1704 q 457 1704 457 1703 l 457 1707 q 456 1708 457 1708 q 456 1710 456 1708 l 454 1710 q 450 1710 450 1710 l 449 1710 q 447 1710 447 1710 q 446 1711 447 1711 l 442 1711 q 438 1715 438 1713 l 436 1715 l 429 1715 q 433 1713 431 1713 q 439 1711 436 1713 q 440 1710 442 1711 q 436 1710 438 1710 l 432 1710 q 426 1711 429 1711 q 422 1713 424 1711 l 422 1711 l 421 1711 q 419 1711 419 1711 q 417 1710 417 1711 q 415 1710 417 1710 l 414 1710 q 407 1711 413 1711 q 401 1710 404 1711 q 396 1710 399 1710 q 406 1708 399 1708 l 401 1708 q 399 1710 397 1710 q 403 1710 401 1710 l 413 1710 q 411 1708 413 1708 l 407 1708 l 406 1708 q 408 1706 408 1708 q 406 1704 407 1704 l 390 1704 l 406 1704 q 404 1703 406 1704 l 403 1703 l 386 1703 q 383 1702 385 1703 q 379 1701 381 1701 q 390 1702 385 1703 q 401 1701 394 1701 q 401 1700 403 1701 q 396 1699 399 1699 q 388 1700 392 1699 q 378 1699 383 1701 l 376 1699 l 372 1699 q 379 1696 378 1699 l 381 1696 l 396 1696 q 397 1695 399 1696 q 394 1694 396 1694 q 378 1693 388 1694 q 363 1692 369 1692 q 359 1690 360 1690 q 356 1688 358 1690 l 358 1688 q 365 1690 361 1690 q 372 1690 369 1690 l 371 1690 q 367 1688 369 1688 q 363 1688 364 1688 l 360 1686 l 356 1686 q 353 1685 354 1686 q 350 1683 351 1683 l 360 1683 q 361 1683 363 1683 q 358 1682 360 1682 l 347 1682 l 344 1682 l 354 1682 q 356 1681 357 1682 q 351 1679 354 1679 l 347 1679 l 347 1678 q 344 1676 347 1676 l 343 1676 l 350 1676 l 351 1676 l 353 1676 l 354 1675 l 360 1675 l 358 1675 l 350 1675 q 348 1674 349 1675 q 346 1674 347 1674 l 344 1674 l 350 1674 q 364 1675 358 1674 q 367 1674 367 1675 q 364 1674 367 1674 q 360 1672 363 1674 q 356 1669 358 1669 l 367 1669 q 367 1667 369 1668 q 363 1667 364 1667 l 363 1668 q 364 1667 363 1667 q 373 1665 368 1665 q 381 1661 378 1664 q 382 1660 383 1661 q 379 1660 381 1660 l 378 1660 q 388 1654 383 1658 q 394 1644 392 1650 q 396 1642 396 1643 q 399 1640 396 1640 q 394 1639 399 1639 q 397 1635 396 1636 q 399 1632 399 1633 q 408 1630 404 1631 q 415 1626 413 1629 q 422 1626 419 1626 q 428 1624 424 1625 l 422 1624 q 428 1622 424 1622 q 424 1618 429 1618 q 429 1617 424 1617 q 428 1615 429 1617 q 444 1610 435 1615 q 443 1608 444 1608 l 442 1608 l 444 1607 l 442 1607 l 444 1607 q 446 1604 446 1607 q 444 1601 446 1601 q 446 1600 444 1600 l 449 1600 q 447 1597 449 1599 l 446 1597 l 446 1596 l 449 1596 l 450 1596 q 456 1593 454 1596 q 457 1588 457 1590 l 456 1588 q 458 1582 458 1582 q 463 1577 461 1579 q 465 1574 464 1575 q 464 1572 465 1574 l 464 1571 q 467 1564 467 1563 q 470 1559 469 1561 q 472 1554 471 1557 l 471 1553 q 472 1549 472 1550 q 474 1544 472 1547 l 472 1544 l 472 1542 q 473 1537 472 1539 q 474 1531 474 1535 q 472 1529 474 1531 q 472 1525 472 1528 q 471 1521 471 1522 l 471 1507 l 467 1507 l 467 1506 l 467 1489 l 464 1489 l 464 1472 l 463 1472 q 458 1472 458 1472 l 458 1471 q 457 1469 458 1469 q 456 1471 456 1469 l 456 1472 q 456 1466 456 1469 q 453 1460 456 1463 l 450 1458 l 449 1456 l 446 1456 l 446 1451 q 444 1450 446 1450 q 442 1451 442 1450 q 434 1440 438 1444 q 431 1435 431 1436 q 431 1440 431 1436 q 432 1450 431 1443 l 432 1451 q 436 1454 436 1451 l 436 1456 q 432 1457 432 1456 l 432 1458 q 436 1463 436 1460 l 436 1464 q 438 1471 438 1467 l 438 1472 l 438 1478 l 438 1481 q 438 1486 438 1485 q 439 1489 439 1488 l 436 1489 q 438 1494 438 1492 q 439 1499 438 1496 l 439 1507 q 438 1510 438 1507 q 438 1513 438 1513 q 439 1515 439 1514 l 439 1518 l 436 1518 l 436 1538 q 433 1536 436 1536 l 431 1536 l 431 1554 q 430 1558 431 1557 q 429 1561 429 1558 q 430 1555 429 1558 q 431 1549 431 1551 q 429 1546 431 1547 l 428 1546 q 424 1559 425 1553 q 421 1572 424 1565 l 419 1572 q 420 1570 419 1571 q 421 1567 421 1569 l 421 1553 l 419 1553 q 415 1539 419 1544 q 419 1532 415 1536 l 415 1532 l 419 1532 q 415 1524 415 1529 q 413 1524 415 1521 q 399 1493 407 1506 q 405 1510 404 1500 q 406 1531 406 1521 l 403 1531 l 403 1542 q 401 1543 401 1542 l 401 1546 l 401 1550 q 399 1554 399 1553 q 396 1558 399 1556 q 395 1557 396 1557 q 394 1558 394 1557 l 394 1567 l 394 1565 q 392 1564 394 1564 q 390 1565 390 1564 l 390 1574 l 390 1575 l 388 1579 l 388 1574 l 388 1567 q 388 1566 390 1567 q 385 1567 385 1565 l 385 1572 q 383 1584 385 1579 q 379 1593 381 1589 q 378 1594 379 1594 q 378 1596 378 1594 l 378 1597 l 378 1585 l 372 1585 l 372 1588 l 369 1588 q 363 1610 369 1600 q 358 1612 360 1610 q 354 1614 356 1614 q 362 1602 358 1608 q 369 1589 365 1596 q 367 1588 369 1588 l 364 1588 q 358 1601 361 1594 q 350 1614 354 1607 q 354 1607 351 1608 q 353 1604 354 1606 l 351 1604 q 349 1601 351 1601 q 347 1601 347 1600 q 342 1613 344 1607 q 333 1622 339 1618 q 328 1624 333 1624 l 342 1610 l 339 1610 q 336 1610 336 1610 q 328 1619 332 1615 q 319 1626 325 1624 q 317 1628 318 1626 q 314 1631 315 1631 q 322 1624 318 1626 q 328 1615 325 1621 q 325 1614 328 1614 l 324 1614 q 312 1626 319 1621 q 297 1636 304 1632 l 293 1636 q 272 1565 285 1594 q 242 1514 258 1535 l 250 1513 l 250 1451 l 250 1369 l 250 1349 l 250 1310 l 225 1297 q 135 1246 164 1275 q 88 1175 107 1217 l 85 1174 q 56 1101 69 1138 q 31 1036 42 1065 q 17 1003 24 1017 q 7 978 11 989 q 1 968 1 972 q -1 977 0 974 q -4 985 -3 981 q -34 1042 -19 1014 q -69 1096 -49 1069 q -108 1158 -85 1129 q -158 1213 -131 1186 q -397 1314 -254 1292 l -432 1318 l -461 1318 l -461 1349 l -461 1413 l -461 1428 l -460 1546 l -426 1554 l -426 1656 l -382 1669 l -382 1735 l -358 1740 l -358 1763 l -358 1774 q -356 1780 -357 1776 q -353 1788 -354 1783 q -349 1780 -350 1783 q -346 1774 -347 1776 l -346 1763 l -346 1746 l -340 1747 l -340 1769 l -340 1792 l -340 1804 q -336 1814 -337 1810 q -329 1804 -332 1810 l -329 1792 l -329 1769 l -329 1753 l -303 1761 l -224 1735 l -224 1669 l -194 1661 l -194 1694 l -150 1708 l -150 1718 l -147 1718 l -147 1726 l -142 1726 l -135 1919 l -129 1726 l -125 1726 l -125 1718 l -121 1718 l -121 1708 l -76 1694 l -76 1651 l -43 1640 l -43 1624 l -43 1590 l 1 1575 l 1 1514 l 125 1553 l 133 1550 l 144 1546 l 144 1558 l 160 1564 l 160 1565 l 160 1585 l 185 1593 l 186 1590 l 193 1589 l 199 1588 l 211 1585 l 211 1564 l 222 1558 l 222 1553 q 242 1591 235 1568 q 257 1644 250 1614 l 257 1647 l 249 1647 q 247 1649 247 1647 q 249 1650 247 1650 l 249 1651 l 247 1651 l 247 1650 q 232 1647 236 1650 q 229 1650 228 1647 q 236 1651 232 1651 l 233 1651 l 232 1651 l 229 1651 l 228 1651 l 225 1651 q 222 1651 222 1651 q 221 1650 222 1650 q 219 1649 221 1647 q 219 1650 217 1650 q 221 1651 219 1651 l 219 1651 l 214 1651 q 208 1651 211 1651 q 204 1650 206 1651 q 200 1651 200 1650 q 204 1651 200 1651 l 207 1651 l 203 1651 q 197 1650 197 1651 q 194 1647 197 1647 q 193 1650 190 1647 q 194 1651 193 1651 q 196 1653 196 1651 l 193 1651 l 189 1651 l 182 1651 q 181 1650 182 1651 q 176 1651 174 1650 l 178 1651 l 176 1651 q 168 1647 169 1650 q 165 1646 168 1644 q 164 1650 163 1647 q 167 1651 167 1650 q 169 1651 168 1651 l 163 1651 q 160 1650 161 1650 l 156 1650 l 153 1650 q 149 1647 150 1647 q 147 1644 147 1647 l 144 1644 q 147 1647 146 1647 l 142 1647 l 138 1643 q 135 1644 133 1643 l 131 1644 q 126 1643 128 1643 q 124 1640 126 1640 l 121 1640 l 125 1643 q 118 1640 121 1640 q 110 1639 115 1640 q 115 1642 113 1640 q 119 1647 118 1644 l 121 1647 q 122 1650 121 1650 l 125 1650 l 121 1650 l 125 1651 l 126 1653 q 129 1654 126 1653 q 131 1656 131 1654 l 129 1656 q 131 1658 129 1656 l 135 1658 l 138 1658 l 139 1660 q 137 1660 138 1660 q 139 1661 136 1661 q 144 1665 142 1665 l 146 1665 q 146 1667 144 1665 l 147 1667 q 150 1668 147 1668 q 151 1669 150 1668 l 153 1669 q 163 1674 156 1674 q 160 1674 160 1674 q 161 1675 160 1675 l 160 1675 l 158 1675 q 161 1676 160 1675 q 169 1679 168 1676 l 171 1679 q 176 1681 174 1679 q 181 1682 178 1682 l 176 1682 l 178 1683 l 189 1683 l 190 1683 l 186 1683 q 185 1685 185 1683 q 189 1686 186 1686 l 197 1686 l 193 1686 q 192 1687 190 1686 q 196 1688 193 1688 l 204 1688 l 206 1688 q 214 1690 211 1690 q 213 1691 213 1690 q 217 1692 214 1692 q 222 1690 221 1692 q 224 1692 222 1690 l 225 1692 q 231 1690 228 1690 q 236 1688 233 1690 q 240 1690 239 1690 l 242 1690 l 242 1692 q 240 1694 242 1692 q 239 1695 239 1694 q 236 1696 239 1696 l 236 1699 l 233 1699 q 233 1700 232 1699 q 236 1701 233 1701 q 232 1703 236 1703 q 231 1703 229 1703 q 233 1704 232 1704 q 229 1710 232 1708 q 228 1711 229 1711 l 229 1713 q 222 1715 228 1715 q 225 1719 221 1718 q 219 1722 221 1719 l 219 1724 q 213 1726 214 1724 l 213 1728 l 213 1729 q 214 1731 213 1729 q 211 1733 213 1732 q 206 1735 210 1735 q 207 1739 206 1739 l 199 1739 q 199 1740 197 1739 q 203 1740 200 1740 l 204 1740 l 203 1740 q 199 1742 199 1740 l 199 1744 q 196 1746 199 1746 l 197 1746 l 196 1746 l 193 1746 l 190 1746 l 190 1747 l 192 1747 q 194 1748 193 1747 q 196 1749 194 1749 l 197 1749 l 196 1749 l 193 1749 l 189 1749 q 186 1751 186 1749 q 189 1753 186 1753 l 185 1753 q 185 1756 179 1756 l 182 1758 l 178 1758 l 176 1758 l 169 1758 q 168 1760 168 1758 l 168 1761 l 163 1761 q 162 1762 161 1761 q 164 1763 163 1763 q 160 1764 161 1763 q 157 1763 160 1763 l 156 1763 q 152 1762 154 1763 q 153 1763 150 1761 q 154 1764 153 1763 l 153 1763 l 150 1763 l 146 1763 q 142 1762 144 1763 q 138 1761 139 1761 q 134 1760 135 1758 q 135 1763 133 1761 l 139 1763 l 131 1763 q 129 1761 131 1761 l 128 1761 q 124 1760 126 1758 q 125 1761 122 1761 q 118 1758 119 1761 l 117 1758 l 117 1761 l 110 1761 q 108 1756 110 1758 l 103 1756 q 104 1757 103 1756 l 104 1758 l 99 1758 l 94 1754 l 90 1754 q 94 1756 92 1756 q 83 1754 88 1754 q 74 1753 78 1754 q 83 1760 78 1756 q 94 1769 88 1764 q 96 1774 94 1774 l 99 1774 l 101 1774 q 100 1774 100 1774 q 101 1775 100 1775 l 103 1775 l 104 1778 l 103 1778 q 103 1779 103 1778 l 104 1781 l 108 1781 l 110 1781 q 111 1782 110 1782 q 115 1784 113 1783 q 118 1788 117 1785 l 111 1788 q 110 1788 110 1788 q 113 1789 111 1789 l 117 1790 l 118 1789 q 121 1790 121 1789 l 125 1790 l 126 1790 l 125 1790 l 121 1790 q 128 1792 125 1792 l 131 1792 l 128 1792 q 126 1794 125 1792 q 128 1797 126 1797 q 138 1796 131 1796 l 139 1797 l 135 1797 q 133 1798 133 1797 q 135 1799 133 1799 l 142 1799 l 144 1800 l 150 1800 l 153 1800 l 161 1800 l 161 1801 q 163 1800 161 1801 l 169 1800 q 171 1801 169 1801 q 174 1800 171 1801 l 176 1799 l 178 1799 l 181 1799 q 186 1797 185 1799 l 190 1797 l 196 1797 q 200 1795 197 1796 q 203 1790 203 1794 l 204 1790 q 211 1783 206 1790 l 213 1783 l 214 1783 l 219 1783 q 222 1779 221 1782 q 225 1774 222 1776 q 229 1774 229 1775 q 233 1767 231 1772 l 236 1767 q 238 1763 236 1764 q 239 1758 239 1761 q 242 1758 242 1764 l 243 1758 q 246 1756 246 1758 l 247 1756 l 247 1758 l 247 1760 q 247 1761 247 1761 q 246 1763 246 1761 q 244 1765 246 1764 q 240 1769 242 1767 q 242 1774 240 1775 q 236 1782 239 1781 q 235 1786 235 1782 q 236 1789 235 1788 q 239 1785 239 1788 q 240 1783 239 1783 l 240 1788 q 236 1792 236 1792 q 235 1796 235 1793 q 236 1797 235 1797 q 233 1799 236 1799 q 231 1804 233 1803 q 229 1807 229 1806 q 228 1810 228 1807 q 229 1813 229 1814 l 232 1813 q 228 1815 229 1814 q 225 1818 228 1817 q 224 1822 224 1819 q 225 1825 224 1824 l 225 1826 l 225 1825 q 222 1829 222 1828 q 219 1833 221 1831 l 219 1835 q 221 1839 219 1836 q 216 1846 218 1842 q 213 1853 214 1850 q 222 1840 219 1846 q 225 1840 225 1842 q 228 1835 228 1840 l 228 1836 q 229 1835 228 1836 l 232 1833 l 233 1833 q 239 1826 233 1832 q 240 1821 240 1825 q 246 1817 242 1818 q 247 1819 246 1818 q 247 1817 247 1819 q 249 1810 249 1814 q 250 1806 250 1807 q 252 1808 250 1807 q 254 1807 254 1810 l 254 1804 l 257 1804 l 257 1799 l 258 1799 q 263 1789 263 1796 l 263 1788 l 264 1788 q 263 1790 263 1789 q 265 1789 264 1790 l 265 1790 q 272 1778 269 1786 l 272 1775 q 275 1772 275 1774 q 276 1767 275 1769 q 279 1769 276 1771 q 282 1754 279 1758 l 282 1753 q 283 1756 282 1758 q 283 1751 283 1754 q 285 1747 283 1749 q 286 1749 285 1749 q 288 1747 288 1749 q 289 1740 288 1744 q 290 1732 290 1736 l 290 1735 l 292 1735 q 292 1728 292 1732 q 293 1722 293 1725 q 297 1736 296 1729 q 301 1753 299 1743 q 306 1757 304 1754 q 311 1763 308 1760 q 314 1763 314 1764 q 315 1763 314 1763 q 317 1765 315 1764 q 319 1769 318 1767 q 324 1767 324 1771 q 335 1775 328 1772 q 335 1774 335 1775 q 344 1783 343 1779 q 349 1784 349 1786 q 350 1781 350 1782 q 356 1788 354 1785 q 357 1785 358 1788 q 356 1781 356 1782 l 356 1782 q 362 1786 358 1783 q 369 1790 365 1789 q 369 1789 369 1790 q 378 1792 371 1790 l 379 1792 q 385 1795 383 1794 q 390 1797 388 1796 q 393 1798 393 1799 q 390 1797 393 1797 q 393 1794 393 1797 q 393 1790 393 1792 l 393 1792 q 403 1799 396 1796 l 403 1797 q 406 1798 406 1797 q 407 1799 406 1799 q 410 1797 408 1799 q 413 1798 413 1797 q 414 1799 413 1799 q 414 1797 414 1799 l 419 1797 q 424 1800 422 1800 q 428 1801 426 1803 q 428 1799 429 1799 l 431 1799 q 438 1800 432 1800 q 439 1801 439 1803 q 438 1799 439 1800 q 442 1800 439 1800 q 446 1800 444 1800 l 449 1800 l 450 1800 q 453 1799 451 1800 q 456 1799 456 1799 q 457 1800 456 1800 q 457 1799 458 1800 l 475 1799 q 467 1796 472 1797 q 458 1792 463 1794 q 457 1789 458 1790 l 449 1789 l 446 1789 q 445 1785 446 1788 q 442 1782 444 1782 l 432 1782 q 433 1778 435 1782 q 431 1775 432 1775 q 426 1776 429 1775 q 422 1775 424 1778 l 421 1775 q 415 1771 421 1771 q 413 1770 414 1771 q 407 1769 411 1769 l 406 1767 q 408 1768 407 1767 q 413 1769 410 1769 q 413 1766 414 1769 q 410 1763 413 1763 l 399 1763 q 400 1758 401 1761 q 396 1756 399 1756 l 388 1756 q 385 1754 386 1754 q 383 1751 385 1753 q 381 1747 381 1749 q 382 1746 383 1747 q 379 1744 381 1744 l 371 1744 q 369 1742 369 1744 l 369 1740 q 371 1742 371 1740 q 372 1744 371 1744 q 374 1742 375 1744 q 371 1739 372 1739 q 365 1736 368 1738 q 360 1735 363 1735 q 360 1732 363 1732 l 358 1731 q 363 1733 361 1732 q 369 1735 365 1735 q 376 1740 371 1739 l 379 1740 q 378 1739 378 1740 l 379 1740 q 384 1746 381 1743 q 390 1753 388 1749 l 394 1753 q 396 1754 394 1753 q 401 1753 399 1754 q 401 1753 403 1753 q 390 1746 396 1749 l 394 1746 q 406 1753 403 1749 q 410 1753 407 1754 q 410 1753 413 1753 q 406 1749 407 1749 l 410 1749 q 419 1754 414 1754 q 422 1755 422 1756 q 421 1754 422 1754 q 418 1753 419 1753 l 415 1753 l 421 1753 l 424 1753 l 425 1753 l 428 1753 l 429 1753 l 431 1753 l 431 1754 q 438 1755 435 1754 q 444 1756 440 1756 q 446 1754 446 1756 q 444 1753 446 1753 l 442 1753 l 446 1753 q 453 1751 449 1753 q 461 1749 458 1749 q 463 1748 464 1749 q 458 1747 461 1747 q 464 1746 461 1747 l 474 1746 q 476 1744 478 1744 q 472 1744 474 1744 l 467 1744 q 471 1740 471 1744 l 479 1740 q 478 1739 479 1739 l 475 1739 q 481 1735 481 1738 q 489 1728 488 1729 l 488 1726 q 492 1724 492 1726 q 489 1722 492 1724 q 497 1718 493 1722 q 497 1715 499 1717 l 496 1715 l 496 1713 q 501 1710 500 1713 q 500 1708 501 1710 l 501 1704 q 504 1703 504 1704 l 504 1701 l 507 1701 l 507 1700 q 504 1699 507 1699 q 506 1698 506 1699 q 507 1697 506 1697 q 508 1696 507 1696 l 507 1694 q 514 1692 510 1694 l 514 1690 l 510 1690 q 512 1687 510 1688 q 515 1683 514 1686 l 514 1683 q 517 1679 514 1683 l 515 1679 m 381 1789 l 379 1789 l 381 1789 m 422 1618 q 415 1622 421 1622 q 419 1620 418 1622 q 422 1618 421 1618 m 410 1625 l 414 1625 l 413 1625 l 410 1625 l 407 1625 l 410 1625 m 369 1607 q 372 1599 371 1603 q 372 1590 372 1596 q 371 1604 372 1600 l 369 1607 m 354 1669 l 351 1669 l 354 1669 m 385 1744 l 386 1744 l 385 1744 l 385 1744 m 413 1713 q 415 1711 414 1713 l 415 1713 l 414 1713 l 413 1713 z "}}}
